G04*
G04 #@! TF.GenerationSoftware,Altium Limited,Altium Designer,26.3.0 (6)*
G04*
G04 Layer_Color=16711935*
%FSLAX44Y44*%
%MOMM*%
G71*
G04*
G04 #@! TF.SameCoordinates,699F2071-7C69-4EA5-8E2A-78D3DEE1F4DE*
G04*
G04*
G04 #@! TF.FilePolarity,Negative*
G04*
G01*
G75*
%ADD55O,1.8032X2.0032*%
G04:AMPARAMS|DCode=56|XSize=1.8032mm|YSize=2.0032mm|CornerRadius=0.5016mm|HoleSize=0mm|Usage=FLASHONLY|Rotation=0.000|XOffset=0mm|YOffset=0mm|HoleType=Round|Shape=RoundedRectangle|*
%AMROUNDEDRECTD56*
21,1,1.8032,1.0000,0,0,0.0*
21,1,0.8000,2.0032,0,0,0.0*
1,1,1.0032,0.4000,-0.5000*
1,1,1.0032,-0.4000,-0.5000*
1,1,1.0032,-0.4000,0.5000*
1,1,1.0032,0.4000,0.5000*
%
%ADD56ROUNDEDRECTD56*%
%ADD57O,2.9972X3.2512*%
%ADD58R,2.9972X3.2512*%
%ADD59C,1.6312*%
%ADD60C,1.4632*%
%ADD61C,2.1082*%
%ADD62C,1.3900*%
%ADD63R,1.3900X1.3900*%
%ADD64C,5.2032*%
%ADD65R,1.4632X1.4632*%
%ADD66O,3.2512X2.9972*%
%ADD67R,3.2512X2.9972*%
%ADD68C,1.7032*%
%ADD69R,1.4632X1.4632*%
%ADD70R,1.7032X1.7032*%
%ADD71R,1.6312X1.6312*%
%ADD72C,3.5492*%
%ADD73C,1.0032*%
%ADD74C,1.4732*%
%ADD100R,4.1632X4.1632*%
%ADD101R,5.2832X5.2832*%
D55*
X924800Y873000D02*
D03*
X899400D02*
D03*
X950200D02*
D03*
X975600D02*
D03*
X874000D02*
D03*
X1026400D02*
D03*
X1001000D02*
D03*
X975360Y909000D02*
D03*
X949960D02*
D03*
X873760D02*
D03*
X899160D02*
D03*
X924560D02*
D03*
D56*
X848600Y873000D02*
D03*
X848360Y909000D02*
D03*
D57*
X1108000Y108000D02*
D03*
X1158800D02*
D03*
X1057200D02*
D03*
X955600D02*
D03*
X1006400D02*
D03*
X658800Y1320000D02*
D03*
X608000D02*
D03*
X811200D02*
D03*
X760400D02*
D03*
X709600D02*
D03*
X1069200Y1321000D02*
D03*
X1120000D02*
D03*
X1018400D02*
D03*
X967600D02*
D03*
X916800D02*
D03*
X803200Y108000D02*
D03*
X854000D02*
D03*
X615000D02*
D03*
X1311200D02*
D03*
X1260400D02*
D03*
X1362000D02*
D03*
X1412800D02*
D03*
X1463600D02*
D03*
D58*
X904800D02*
D03*
X564200D02*
D03*
X862000Y1320000D02*
D03*
X1170800Y1321000D02*
D03*
X752400Y108000D02*
D03*
X1209600D02*
D03*
D59*
X1351000Y1246000D02*
D03*
X1376000Y1226000D02*
D03*
Y1246000D02*
D03*
D60*
X1157000Y1222000D02*
D03*
Y1145800D02*
D03*
X1106000Y1145900D02*
D03*
Y1222100D02*
D03*
X1004300Y1222100D02*
D03*
X1055100Y1222100D02*
D03*
X953300Y1222100D02*
D03*
X902300D02*
D03*
X1004300Y1145900D02*
D03*
X1055100Y1145900D02*
D03*
X953300Y1145900D02*
D03*
X902300D02*
D03*
X800300Y1222100D02*
D03*
X851300D02*
D03*
X698300D02*
D03*
X749300D02*
D03*
X800300Y1145900D02*
D03*
X851300D02*
D03*
X749300D02*
D03*
X698300D02*
D03*
X444800Y1198420D02*
D03*
Y1141270D02*
D03*
Y1255570D02*
D03*
Y1084120D02*
D03*
Y1026970D02*
D03*
Y912670D02*
D03*
Y969820D02*
D03*
Y798370D02*
D03*
Y855520D02*
D03*
Y741220D02*
D03*
X368600Y1141270D02*
D03*
Y1198420D02*
D03*
Y1255570D02*
D03*
Y969820D02*
D03*
Y912670D02*
D03*
Y1026970D02*
D03*
Y1084120D02*
D03*
Y798370D02*
D03*
Y741220D02*
D03*
Y855520D02*
D03*
X444800Y1166670D02*
D03*
Y1280970D02*
D03*
Y823770D02*
D03*
Y766620D02*
D03*
Y880920D02*
D03*
Y1052370D02*
D03*
Y1109520D02*
D03*
Y938070D02*
D03*
Y1223820D02*
D03*
Y995220D02*
D03*
X825700Y1145900D02*
D03*
X1029700D02*
D03*
X876700D02*
D03*
X774700D02*
D03*
X927700D02*
D03*
X978700D02*
D03*
X723700D02*
D03*
X1182400Y1145800D02*
D03*
X1131400Y1145900D02*
D03*
X1080500Y1145900D02*
D03*
D61*
X556000Y780780D02*
D03*
Y806180D02*
D03*
Y755380D02*
D03*
D62*
X308620Y1081930D02*
D03*
Y1107330D02*
D03*
Y1031130D02*
D03*
Y1056530D02*
D03*
Y1132730D02*
D03*
Y980330D02*
D03*
Y954930D02*
D03*
Y1005730D02*
D03*
Y929530D02*
D03*
X232420Y980330D02*
D03*
Y904130D02*
D03*
Y929530D02*
D03*
Y954930D02*
D03*
Y1005730D02*
D03*
Y1031130D02*
D03*
Y1056530D02*
D03*
Y1081930D02*
D03*
Y1107330D02*
D03*
Y1132730D02*
D03*
D63*
X308620Y904130D02*
D03*
D64*
X1489000Y378000D02*
D03*
X150000Y1335000D02*
D03*
X1487000Y1330000D02*
D03*
X151000Y97000D02*
D03*
D65*
X876700Y1222100D02*
D03*
X723700D02*
D03*
X774700D02*
D03*
X825700D02*
D03*
X1182400Y1222000D02*
D03*
X1131400Y1222100D02*
D03*
X978700Y1222100D02*
D03*
X1029700D02*
D03*
X1080500Y1222100D02*
D03*
X927700Y1222100D02*
D03*
D66*
X1476450Y919290D02*
D03*
Y868490D02*
D03*
Y970090D02*
D03*
Y614490D02*
D03*
Y665290D02*
D03*
Y716090D02*
D03*
Y766890D02*
D03*
Y563690D02*
D03*
X159000Y960400D02*
D03*
Y1164480D02*
D03*
Y1215280D02*
D03*
Y1113680D02*
D03*
Y1011200D02*
D03*
Y909600D02*
D03*
Y858800D02*
D03*
Y808000D02*
D03*
X158760Y446180D02*
D03*
Y496980D02*
D03*
Y547780D02*
D03*
Y649380D02*
D03*
Y598580D02*
D03*
Y344380D02*
D03*
D67*
X1476450Y817690D02*
D03*
Y512890D02*
D03*
X159000Y1266080D02*
D03*
Y1062000D02*
D03*
X158760Y700180D02*
D03*
Y395180D02*
D03*
D68*
X909016Y1043338D02*
D03*
X782016Y967139D02*
D03*
X858216Y1043338D02*
D03*
X1124300Y967139D02*
D03*
X1073500D02*
D03*
X832816Y967139D02*
D03*
X1022700Y967139D02*
D03*
X883616Y967139D02*
D03*
X909016D02*
D03*
X807416Y1043338D02*
D03*
Y967139D02*
D03*
X858216D02*
D03*
X756616Y1043338D02*
D03*
X782016D02*
D03*
X832816D02*
D03*
X883616D02*
D03*
X1149700Y1043338D02*
D03*
X1124300D02*
D03*
X1098900D02*
D03*
X1073500D02*
D03*
X1048100D02*
D03*
X1022700D02*
D03*
X997300D02*
D03*
X1149700Y967139D02*
D03*
X1098900D02*
D03*
X1048100D02*
D03*
D69*
X368600Y938070D02*
D03*
Y1052370D02*
D03*
Y766620D02*
D03*
Y1109520D02*
D03*
Y823770D02*
D03*
Y1166670D02*
D03*
Y880920D02*
D03*
Y1223820D02*
D03*
Y1280970D02*
D03*
Y995220D02*
D03*
D70*
X756616Y967139D02*
D03*
X997300Y967139D02*
D03*
D71*
X1351000Y1226000D02*
D03*
D72*
X1423700Y1273100D02*
D03*
X1303300D02*
D03*
D73*
X788392Y620833D02*
D03*
X805392Y549833D02*
D03*
X697000Y566000D02*
D03*
X607392Y1267833D02*
D03*
X605000Y1029000D02*
D03*
X643399Y1030089D02*
D03*
X672392Y1127833D02*
D03*
X634000Y1198000D02*
D03*
X536216Y1121789D02*
D03*
X484712Y655153D02*
D03*
X607700Y637566D02*
D03*
X694392Y691833D02*
D03*
X684885Y762855D02*
D03*
X632234Y806656D02*
D03*
X605392Y772833D02*
D03*
X444626Y162267D02*
D03*
X942392Y583833D02*
D03*
X1061087Y620571D02*
D03*
X1006000Y621000D02*
D03*
X944720Y706941D02*
D03*
X815000Y717000D02*
D03*
X798392Y748833D02*
D03*
X1362000Y1177000D02*
D03*
X1297213Y942765D02*
D03*
X1294000Y878000D02*
D03*
X1307512Y665953D02*
D03*
X1295392Y760833D02*
D03*
X1297950Y727964D02*
D03*
X1301000Y606000D02*
D03*
X1297392Y574833D02*
D03*
X1284194Y1148266D02*
D03*
X1291526Y1053515D02*
D03*
X1287442Y992783D02*
D03*
X1292000Y818000D02*
D03*
X907000Y596000D02*
D03*
X1318392Y503833D02*
D03*
X1463392Y239833D02*
D03*
X1400392D02*
D03*
X1336392Y238833D02*
D03*
X1298392Y448833D02*
D03*
X1273767Y237833D02*
D03*
X1210392D02*
D03*
X1508825Y209333D02*
D03*
X1444241Y209818D02*
D03*
X1381734Y209734D02*
D03*
X1316892Y209333D02*
D03*
X1254379Y209602D02*
D03*
X1189404Y208958D02*
D03*
X1142392Y417833D02*
D03*
X1067392D02*
D03*
X1145000Y237000D02*
D03*
X1017392Y237833D02*
D03*
X930034Y522451D02*
D03*
X995392Y416833D02*
D03*
X1082392Y236833D02*
D03*
X1125590Y208752D02*
D03*
X1059817Y209258D02*
D03*
X954392Y235833D02*
D03*
X887392Y236833D02*
D03*
X994231Y208752D02*
D03*
X930392Y208833D02*
D03*
X867392D02*
D03*
X332392Y640833D02*
D03*
X332015Y689954D02*
D03*
X633019Y502142D02*
D03*
X540484Y521200D02*
D03*
X491920Y519938D02*
D03*
X606871Y446591D02*
D03*
X511000Y350000D02*
D03*
X827392Y236833D02*
D03*
X805392Y208833D02*
D03*
X764923Y235591D02*
D03*
X629797Y308086D02*
D03*
X333495Y588131D02*
D03*
X332459Y539883D02*
D03*
X333051Y489859D02*
D03*
X333051Y435987D02*
D03*
X412392Y193833D02*
D03*
X331867Y384483D02*
D03*
X330979Y331647D02*
D03*
X575273Y1082246D02*
D03*
Y1164246D02*
D03*
X563000Y177000D02*
D03*
X501797Y200376D02*
D03*
X709797Y202376D02*
D03*
X731000Y192000D02*
D03*
X857826Y656338D02*
D03*
X829000Y683570D02*
D03*
X795000Y708000D02*
D03*
X574364Y674519D02*
D03*
X741000Y740000D02*
D03*
X786134Y702696D02*
D03*
X1030684Y538552D02*
D03*
X834000Y611000D02*
D03*
X1030000Y582000D02*
D03*
X868000Y646000D02*
D03*
X1031000Y549000D02*
D03*
X840000Y621000D02*
D03*
X742552Y853431D02*
D03*
X701552Y1036431D02*
D03*
X802000Y716000D02*
D03*
X562321Y1064412D02*
D03*
X793068Y679308D02*
D03*
X591000Y704000D02*
D03*
X804000Y669000D02*
D03*
X592000Y685000D02*
D03*
X778000Y571000D02*
D03*
X823000Y611000D02*
D03*
X991000Y590000D02*
D03*
X429273Y782246D02*
D03*
X427273Y896246D02*
D03*
X432157Y1010607D02*
D03*
X432273Y1125246D02*
D03*
X427000Y1240000D02*
D03*
X930000Y539000D02*
D03*
X1120000Y471000D02*
D03*
X833371Y592881D02*
D03*
X847000Y650000D02*
D03*
X857000Y645000D02*
D03*
X831750Y629000D02*
D03*
X777308Y582692D02*
D03*
X879000Y650000D02*
D03*
X887000Y638000D02*
D03*
X896371Y484881D02*
D03*
X818000Y486000D02*
D03*
X1031000Y571000D02*
D03*
X897371Y497881D02*
D03*
X825371Y507881D02*
D03*
X1033000Y716000D02*
D03*
X1328000Y1115000D02*
D03*
X985000Y744000D02*
D03*
X758000Y783000D02*
D03*
X825000Y601089D02*
D03*
X786000Y563000D02*
D03*
X732068Y687308D02*
D03*
X846000Y716000D02*
D03*
X700000Y537000D02*
D03*
X894000Y690000D02*
D03*
X872000Y665000D02*
D03*
X872000Y690000D02*
D03*
X823000Y890000D02*
D03*
X532000Y396000D02*
D03*
X502046Y409778D02*
D03*
X534000Y260000D02*
D03*
X498488Y295541D02*
D03*
X517937Y288358D02*
D03*
X544488Y268541D02*
D03*
X644488Y409541D02*
D03*
X680488Y214541D02*
D03*
X564114Y427064D02*
D03*
X582835Y214046D02*
D03*
X587000Y181000D02*
D03*
X475000Y407000D02*
D03*
X474000Y213000D02*
D03*
X591797Y201376D02*
D03*
X629000Y594000D02*
D03*
X807000Y639000D02*
D03*
X659321Y1066412D02*
D03*
X692552Y1030431D02*
D03*
X729552Y854431D02*
D03*
X907000Y652000D02*
D03*
X950207Y744073D02*
D03*
X1288021Y1034712D02*
D03*
X1209000Y999000D02*
D03*
X1071000Y705000D02*
D03*
X1070321Y679412D02*
D03*
X726000Y698000D02*
D03*
X835591Y712974D02*
D03*
X902000Y662000D02*
D03*
X940000Y732000D02*
D03*
X1209000Y986000D02*
D03*
X1288521Y971212D02*
D03*
X1085000Y706000D02*
D03*
X1086321Y679412D02*
D03*
X1209000Y961000D02*
D03*
X1288441Y844532D02*
D03*
X1112951Y706463D02*
D03*
X1112000Y673000D02*
D03*
X1029000Y593000D02*
D03*
X896000Y596000D02*
D03*
X883773Y703227D02*
D03*
X922000Y746000D02*
D03*
X906000Y712000D02*
D03*
X1209000Y974000D02*
D03*
X1289621Y907712D02*
D03*
X1098000Y706000D02*
D03*
X1099000Y676000D02*
D03*
X818000Y683000D02*
D03*
X810000Y891000D02*
D03*
X700000Y551000D02*
D03*
X895000Y676000D02*
D03*
X1031000Y560000D02*
D03*
X756000Y596000D02*
D03*
X628000Y556000D02*
D03*
X629000Y618000D02*
D03*
X792000Y657000D02*
D03*
X894000Y838000D02*
D03*
X909000Y950000D02*
D03*
X819000Y941000D02*
D03*
X746000Y603000D02*
D03*
X629000Y568000D02*
D03*
X629000Y582000D02*
D03*
X802000Y628000D02*
D03*
X629000Y606000D02*
D03*
X810000Y649000D02*
D03*
X1088000Y1108000D02*
D03*
X1138000D02*
D03*
X1189000D02*
D03*
X1099000Y988000D02*
D03*
X1048000D02*
D03*
X1000000D02*
D03*
X835000Y1109000D02*
D03*
X791000Y994000D02*
D03*
X1041000Y1108000D02*
D03*
X757000Y1064000D02*
D03*
X886000Y1108000D02*
D03*
Y1088000D02*
D03*
X784000Y1108000D02*
D03*
X774000Y995000D02*
D03*
X940000Y1108000D02*
D03*
X833415Y1079000D02*
D03*
X992000Y1108000D02*
D03*
X783000Y1071200D02*
D03*
X757000Y995000D02*
D03*
X736000Y1108000D02*
D03*
D74*
X680000Y1090000D02*
D03*
X780000Y452000D02*
D03*
X697000Y585000D02*
D03*
X512797Y459376D02*
D03*
X722797Y433376D02*
D03*
D100*
X1229000Y750000D02*
D03*
D101*
Y621750D02*
D03*
Y878250D02*
D03*
M02*
