G04*
G04 #@! TF.GenerationSoftware,Altium Limited,Altium Designer,26.3.0 (6)*
G04*
G04 Layer_Color=8421504*
%FSLAX44Y44*%
%MOMM*%
G71*
G04*
G04 #@! TF.SameCoordinates,699F2071-7C69-4EA5-8E2A-78D3DEE1F4DE*
G04*
G04*
G04 #@! TF.FilePolarity,Positive*
G04*
G01*
G75*
G04:AMPARAMS|DCode=20|XSize=1.39mm|YSize=0.58mm|CornerRadius=0.0725mm|HoleSize=0mm|Usage=FLASHONLY|Rotation=270.000|XOffset=0mm|YOffset=0mm|HoleType=Round|Shape=RoundedRectangle|*
%AMROUNDEDRECTD20*
21,1,1.3900,0.4350,0,0,270.0*
21,1,1.2450,0.5800,0,0,270.0*
1,1,0.1450,-0.2175,-0.6225*
1,1,0.1450,-0.2175,0.6225*
1,1,0.1450,0.2175,0.6225*
1,1,0.1450,0.2175,-0.6225*
%
%ADD20ROUNDEDRECTD20*%
%ADD21R,1.2065X1.0582*%
G04:AMPARAMS|DCode=22|XSize=1.23mm|YSize=0.6mm|CornerRadius=0.075mm|HoleSize=0mm|Usage=FLASHONLY|Rotation=90.000|XOffset=0mm|YOffset=0mm|HoleType=Round|Shape=RoundedRectangle|*
%AMROUNDEDRECTD22*
21,1,1.2300,0.4500,0,0,90.0*
21,1,1.0800,0.6000,0,0,90.0*
1,1,0.1500,0.2250,0.5400*
1,1,0.1500,0.2250,-0.5400*
1,1,0.1500,-0.2250,-0.5400*
1,1,0.1500,-0.2250,0.5400*
%
%ADD22ROUNDEDRECTD22*%
%ADD23R,1.0000X0.9500*%
%ADD24R,1.0582X1.2065*%
%ADD25R,1.5600X0.2800*%
%ADD26R,0.2800X1.5600*%
%ADD27R,0.9500X1.0000*%
G04:AMPARAMS|DCode=28|XSize=0.95mm|YSize=0.85mm|CornerRadius=0.2125mm|HoleSize=0mm|Usage=FLASHONLY|Rotation=270.000|XOffset=0mm|YOffset=0mm|HoleType=Round|Shape=RoundedRectangle|*
%AMROUNDEDRECTD28*
21,1,0.9500,0.4250,0,0,270.0*
21,1,0.5250,0.8500,0,0,270.0*
1,1,0.4250,-0.2125,-0.2625*
1,1,0.4250,-0.2125,0.2625*
1,1,0.4250,0.2125,0.2625*
1,1,0.4250,0.2125,-0.2625*
%
%ADD28ROUNDEDRECTD28*%
G04:AMPARAMS|DCode=29|XSize=1.26mm|YSize=0.59mm|CornerRadius=0.0738mm|HoleSize=0mm|Usage=FLASHONLY|Rotation=90.000|XOffset=0mm|YOffset=0mm|HoleType=Round|Shape=RoundedRectangle|*
%AMROUNDEDRECTD29*
21,1,1.2600,0.4425,0,0,90.0*
21,1,1.1125,0.5900,0,0,90.0*
1,1,0.1475,0.2213,0.5563*
1,1,0.1475,0.2213,-0.5563*
1,1,0.1475,-0.2213,-0.5563*
1,1,0.1475,-0.2213,0.5563*
%
%ADD29ROUNDEDRECTD29*%
G04:AMPARAMS|DCode=30|XSize=1.97mm|YSize=0.6mm|CornerRadius=0.075mm|HoleSize=0mm|Usage=FLASHONLY|Rotation=90.000|XOffset=0mm|YOffset=0mm|HoleType=Round|Shape=RoundedRectangle|*
%AMROUNDEDRECTD30*
21,1,1.9700,0.4500,0,0,90.0*
21,1,1.8200,0.6000,0,0,90.0*
1,1,0.1500,0.2250,0.9100*
1,1,0.1500,0.2250,-0.9100*
1,1,0.1500,-0.2250,-0.9100*
1,1,0.1500,-0.2250,0.9100*
%
%ADD30ROUNDEDRECTD30*%
%ADD31R,1.2000X0.8000*%
G04:AMPARAMS|DCode=32|XSize=1.97mm|YSize=0.6mm|CornerRadius=0.15mm|HoleSize=0mm|Usage=FLASHONLY|Rotation=270.000|XOffset=0mm|YOffset=0mm|HoleType=Round|Shape=RoundedRectangle|*
%AMROUNDEDRECTD32*
21,1,1.9700,0.3000,0,0,270.0*
21,1,1.6700,0.6000,0,0,270.0*
1,1,0.3000,-0.1500,-0.8350*
1,1,0.3000,-0.1500,0.8350*
1,1,0.3000,0.1500,0.8350*
1,1,0.3000,0.1500,-0.8350*
%
%ADD32ROUNDEDRECTD32*%
%ADD33R,3.8000X2.8000*%
G04:AMPARAMS|DCode=34|XSize=1.23mm|YSize=0.6mm|CornerRadius=0.075mm|HoleSize=0mm|Usage=FLASHONLY|Rotation=180.000|XOffset=0mm|YOffset=0mm|HoleType=Round|Shape=RoundedRectangle|*
%AMROUNDEDRECTD34*
21,1,1.2300,0.4500,0,0,180.0*
21,1,1.0800,0.6000,0,0,180.0*
1,1,0.1500,-0.5400,0.2250*
1,1,0.1500,0.5400,0.2250*
1,1,0.1500,0.5400,-0.2250*
1,1,0.1500,-0.5400,-0.2250*
%
%ADD34ROUNDEDRECTD34*%
G04:AMPARAMS|DCode=35|XSize=1.18mm|YSize=2.81mm|CornerRadius=0.1475mm|HoleSize=0mm|Usage=FLASHONLY|Rotation=0.000|XOffset=0mm|YOffset=0mm|HoleType=Round|Shape=RoundedRectangle|*
%AMROUNDEDRECTD35*
21,1,1.1800,2.5150,0,0,0.0*
21,1,0.8850,2.8100,0,0,0.0*
1,1,0.2950,0.4425,-1.2575*
1,1,0.2950,-0.4425,-1.2575*
1,1,0.2950,-0.4425,1.2575*
1,1,0.2950,0.4425,1.2575*
%
%ADD35ROUNDEDRECTD35*%
%ADD36R,1.9000X1.1000*%
G04:AMPARAMS|DCode=37|XSize=1.18mm|YSize=2.81mm|CornerRadius=0.1475mm|HoleSize=0mm|Usage=FLASHONLY|Rotation=270.000|XOffset=0mm|YOffset=0mm|HoleType=Round|Shape=RoundedRectangle|*
%AMROUNDEDRECTD37*
21,1,1.1800,2.5150,0,0,270.0*
21,1,0.8850,2.8100,0,0,270.0*
1,1,0.2950,-1.2575,-0.4425*
1,1,0.2950,-1.2575,0.4425*
1,1,0.2950,1.2575,0.4425*
1,1,0.2950,1.2575,-0.4425*
%
%ADD37ROUNDEDRECTD37*%
G36*
X277540Y337192D02*
X270040D01*
Y340191D01*
X277540D01*
Y337192D01*
D02*
G37*
G36*
X285640Y332506D02*
X280540D01*
Y338856D01*
X285640D01*
Y332506D01*
D02*
G37*
G36*
X277540Y330691D02*
X270040D01*
Y333691D01*
X277540D01*
Y330691D01*
D02*
G37*
G36*
X270040Y346692D02*
X277540D01*
Y343691D01*
X270040D01*
Y346692D01*
D02*
G37*
G36*
Y353191D02*
X277540D01*
Y350191D01*
X270040D01*
Y353191D01*
D02*
G37*
G36*
X280540Y351376D02*
X285640D01*
Y345027D01*
X280540D01*
Y351376D01*
D02*
G37*
G36*
X309040Y337192D02*
X300740D01*
Y340191D01*
X309040D01*
Y337192D01*
D02*
G37*
G36*
X294240Y332506D02*
X289140D01*
Y338856D01*
X294240D01*
Y332506D01*
D02*
G37*
G36*
X309040Y330691D02*
X300740D01*
Y333691D01*
X309040D01*
Y330691D01*
D02*
G37*
G36*
Y350191D02*
X300740D01*
Y353191D01*
X309040D01*
Y350191D01*
D02*
G37*
G36*
X294240Y345027D02*
X289140D01*
Y351376D01*
X294240D01*
Y345027D01*
D02*
G37*
G36*
X309040Y343691D02*
X300740D01*
Y346692D01*
X309040D01*
Y343691D01*
D02*
G37*
G36*
X270040Y384370D02*
X277540D01*
Y381370D01*
X270040D01*
Y384370D01*
D02*
G37*
G36*
Y390870D02*
X277540D01*
Y387870D01*
X270040D01*
Y390870D01*
D02*
G37*
G36*
X280540Y389535D02*
X285640D01*
Y383185D01*
X280540D01*
Y389535D01*
D02*
G37*
G36*
X270040Y397370D02*
X277540D01*
Y394370D01*
X270040D01*
Y397370D01*
D02*
G37*
G36*
Y403870D02*
X277540D01*
Y400870D01*
X270040D01*
Y403870D01*
D02*
G37*
G36*
X280540Y402055D02*
X285640D01*
Y395705D01*
X280540D01*
Y402055D01*
D02*
G37*
G36*
X309040Y387870D02*
X300740D01*
Y390870D01*
X309040D01*
Y387870D01*
D02*
G37*
G36*
X294240Y383185D02*
X289140D01*
Y389535D01*
X294240D01*
Y383185D01*
D02*
G37*
G36*
X309040Y381370D02*
X300740D01*
Y384370D01*
X309040D01*
Y381370D01*
D02*
G37*
G36*
Y400870D02*
X300740D01*
Y403870D01*
X309040D01*
Y400870D01*
D02*
G37*
G36*
X294240Y395705D02*
X289140D01*
Y402055D01*
X294240D01*
Y395705D01*
D02*
G37*
G36*
X309040Y394370D02*
X300740D01*
Y397370D01*
X309040D01*
Y394370D01*
D02*
G37*
G36*
X270040Y435170D02*
X277540D01*
Y432170D01*
X270040D01*
Y435170D01*
D02*
G37*
G36*
Y441670D02*
X277540D01*
Y438670D01*
X270040D01*
Y441670D01*
D02*
G37*
G36*
X280540Y440335D02*
X285640D01*
Y433985D01*
X280540D01*
Y440335D01*
D02*
G37*
G36*
X270040Y448170D02*
X277540D01*
Y445170D01*
X270040D01*
Y448170D01*
D02*
G37*
G36*
Y454670D02*
X277540D01*
Y451670D01*
X270040D01*
Y454670D01*
D02*
G37*
G36*
X280540Y452855D02*
X285640D01*
Y446505D01*
X280540D01*
Y452855D01*
D02*
G37*
G36*
X309040Y438670D02*
X300740D01*
Y441670D01*
X309040D01*
Y438670D01*
D02*
G37*
G36*
X294240Y433985D02*
X289140D01*
Y440335D01*
X294240D01*
Y433985D01*
D02*
G37*
G36*
X309040Y432170D02*
X300740D01*
Y435170D01*
X309040D01*
Y432170D01*
D02*
G37*
G36*
Y451670D02*
X300740D01*
Y454670D01*
X309040D01*
Y451670D01*
D02*
G37*
G36*
X294240Y446505D02*
X289140D01*
Y452855D01*
X294240D01*
Y446505D01*
D02*
G37*
G36*
X309040Y445170D02*
X300740D01*
Y448170D01*
X309040D01*
Y445170D01*
D02*
G37*
G36*
X270040Y485970D02*
X277540D01*
Y482970D01*
X270040D01*
Y485970D01*
D02*
G37*
G36*
Y492470D02*
X277540D01*
Y489470D01*
X270040D01*
Y492470D01*
D02*
G37*
G36*
X280540Y491135D02*
X285640D01*
Y484785D01*
X280540D01*
Y491135D01*
D02*
G37*
G36*
X270040Y498970D02*
X277540D01*
Y495970D01*
X270040D01*
Y498970D01*
D02*
G37*
G36*
Y505470D02*
X277540D01*
Y502470D01*
X270040D01*
Y505470D01*
D02*
G37*
G36*
X280540Y503655D02*
X285640D01*
Y497305D01*
X280540D01*
Y503655D01*
D02*
G37*
G36*
X309040Y489470D02*
X300740D01*
Y492470D01*
X309040D01*
Y489470D01*
D02*
G37*
G36*
X294240Y484785D02*
X289140D01*
Y491135D01*
X294240D01*
Y484785D01*
D02*
G37*
G36*
X309040Y482970D02*
X300740D01*
Y485970D01*
X309040D01*
Y482970D01*
D02*
G37*
G36*
Y502470D02*
X300740D01*
Y505470D01*
X309040D01*
Y502470D01*
D02*
G37*
G36*
X294240Y497305D02*
X289140D01*
Y503655D01*
X294240D01*
Y497305D01*
D02*
G37*
G36*
X309040Y495970D02*
X300740D01*
Y498970D01*
X309040D01*
Y495970D01*
D02*
G37*
G36*
X270040Y536770D02*
X277540D01*
Y533770D01*
X270040D01*
Y536770D01*
D02*
G37*
G36*
Y543270D02*
X277540D01*
Y540270D01*
X270040D01*
Y543270D01*
D02*
G37*
G36*
X280540Y541935D02*
X285640D01*
Y535585D01*
X280540D01*
Y541935D01*
D02*
G37*
G36*
X270040Y549770D02*
X277540D01*
Y546770D01*
X270040D01*
Y549770D01*
D02*
G37*
G36*
Y556270D02*
X277540D01*
Y553270D01*
X270040D01*
Y556270D01*
D02*
G37*
G36*
X280540Y554455D02*
X285640D01*
Y548105D01*
X280540D01*
Y554455D01*
D02*
G37*
G36*
X309040Y540270D02*
X300740D01*
Y543270D01*
X309040D01*
Y540270D01*
D02*
G37*
G36*
X294240Y535585D02*
X289140D01*
Y541935D01*
X294240D01*
Y535585D01*
D02*
G37*
G36*
X309040Y533770D02*
X300740D01*
Y536770D01*
X309040D01*
Y533770D01*
D02*
G37*
G36*
Y553270D02*
X300740D01*
Y556270D01*
X309040D01*
Y553270D01*
D02*
G37*
G36*
X294240Y548105D02*
X289140D01*
Y554455D01*
X294240D01*
Y548105D01*
D02*
G37*
G36*
X309040Y546770D02*
X300740D01*
Y549770D01*
X309040D01*
Y546770D01*
D02*
G37*
G36*
X270040Y587570D02*
X277540D01*
Y584570D01*
X270040D01*
Y587570D01*
D02*
G37*
G36*
Y594070D02*
X277540D01*
Y591070D01*
X270040D01*
Y594070D01*
D02*
G37*
G36*
X280540Y592735D02*
X285640D01*
Y586385D01*
X280540D01*
Y592735D01*
D02*
G37*
G36*
X270040Y600570D02*
X277540D01*
Y597570D01*
X270040D01*
Y600570D01*
D02*
G37*
G36*
Y607070D02*
X277540D01*
Y604070D01*
X270040D01*
Y607070D01*
D02*
G37*
G36*
X280540Y605255D02*
X285640D01*
Y598905D01*
X280540D01*
Y605255D01*
D02*
G37*
G36*
X309040Y591070D02*
X300740D01*
Y594070D01*
X309040D01*
Y591070D01*
D02*
G37*
G36*
X294240Y586385D02*
X289140D01*
Y592735D01*
X294240D01*
Y586385D01*
D02*
G37*
G36*
X309040Y584570D02*
X300740D01*
Y587570D01*
X309040D01*
Y584570D01*
D02*
G37*
G36*
Y604070D02*
X300740D01*
Y607070D01*
X309040D01*
Y604070D01*
D02*
G37*
G36*
X294240Y598905D02*
X289140D01*
Y605255D01*
X294240D01*
Y598905D01*
D02*
G37*
G36*
X309040Y597570D02*
X300740D01*
Y600570D01*
X309040D01*
Y597570D01*
D02*
G37*
G36*
X270040Y638570D02*
X277540D01*
Y635570D01*
X270040D01*
Y638570D01*
D02*
G37*
G36*
Y645070D02*
X277540D01*
Y642070D01*
X270040D01*
Y645070D01*
D02*
G37*
G36*
X280540Y643735D02*
X285640D01*
Y637385D01*
X280540D01*
Y643735D01*
D02*
G37*
G36*
X270040Y651570D02*
X277540D01*
Y648570D01*
X270040D01*
Y651570D01*
D02*
G37*
G36*
Y658070D02*
X277540D01*
Y655070D01*
X270040D01*
Y658070D01*
D02*
G37*
G36*
X280540Y656255D02*
X285640D01*
Y649905D01*
X280540D01*
Y656255D01*
D02*
G37*
G36*
X309040Y642070D02*
X300740D01*
Y645070D01*
X309040D01*
Y642070D01*
D02*
G37*
G36*
X294240Y637385D02*
X289140D01*
Y643735D01*
X294240D01*
Y637385D01*
D02*
G37*
G36*
X309040Y635570D02*
X300740D01*
Y638570D01*
X309040D01*
Y635570D01*
D02*
G37*
G36*
Y655070D02*
X300740D01*
Y658070D01*
X309040D01*
Y655070D01*
D02*
G37*
G36*
X294240Y649905D02*
X289140D01*
Y656255D01*
X294240D01*
Y649905D01*
D02*
G37*
G36*
X309040Y648570D02*
X300740D01*
Y651570D01*
X309040D01*
Y648570D01*
D02*
G37*
G36*
X270040Y689370D02*
X277540D01*
Y686370D01*
X270040D01*
Y689370D01*
D02*
G37*
G36*
Y695870D02*
X277540D01*
Y692870D01*
X270040D01*
Y695870D01*
D02*
G37*
G36*
X280540Y694535D02*
X285640D01*
Y688185D01*
X280540D01*
Y694535D01*
D02*
G37*
G36*
X270040Y702370D02*
X277540D01*
Y699370D01*
X270040D01*
Y702370D01*
D02*
G37*
G36*
Y708870D02*
X277540D01*
Y705870D01*
X270040D01*
Y708870D01*
D02*
G37*
G36*
X280540Y707055D02*
X285640D01*
Y700705D01*
X280540D01*
Y707055D01*
D02*
G37*
G36*
X309040Y692870D02*
X300740D01*
Y695870D01*
X309040D01*
Y692870D01*
D02*
G37*
G36*
X294240Y688185D02*
X289140D01*
Y694535D01*
X294240D01*
Y688185D01*
D02*
G37*
G36*
X309040Y686370D02*
X300740D01*
Y689370D01*
X309040D01*
Y686370D01*
D02*
G37*
G36*
Y705870D02*
X300740D01*
Y708870D01*
X309040D01*
Y705870D01*
D02*
G37*
G36*
X294240Y700705D02*
X289140D01*
Y707055D01*
X294240D01*
Y700705D01*
D02*
G37*
G36*
X309040Y699370D02*
X300740D01*
Y702370D01*
X309040D01*
Y699370D01*
D02*
G37*
D20*
X1362000Y1161650D02*
D03*
X1371500Y1138350D02*
D03*
X1352500D02*
D03*
Y1161650D02*
D03*
X1371500D02*
D03*
D21*
X1310741Y1135000D02*
D03*
Y1161000D02*
D03*
X984000Y764000D02*
D03*
X1040259Y620320D02*
D03*
X987517D02*
D03*
X654259Y1128000D02*
D03*
X614410Y1198970D02*
D03*
X535741Y1143000D02*
D03*
X601703Y1010000D02*
D03*
X802259Y788000D02*
D03*
Y822000D02*
D03*
X611259Y755380D02*
D03*
Y806180D02*
D03*
X687259Y745000D02*
D03*
Y712000D02*
D03*
X796877Y530000D02*
D03*
Y502000D02*
D03*
Y475000D02*
D03*
X597893Y1198970D02*
D03*
X637741Y1128000D02*
D03*
X780360Y530000D02*
D03*
Y502000D02*
D03*
Y475000D02*
D03*
X1327259Y1135000D02*
D03*
X967483Y764000D02*
D03*
X1023741Y620320D02*
D03*
X971000D02*
D03*
X785741Y822000D02*
D03*
X618220Y1010000D02*
D03*
X785741Y788000D02*
D03*
X670741Y712000D02*
D03*
X594741Y806180D02*
D03*
X670741Y745000D02*
D03*
X552259Y1143000D02*
D03*
X1327259Y1161000D02*
D03*
X594741Y755380D02*
D03*
D22*
X1308930Y1014100D02*
D03*
Y950600D02*
D03*
Y887100D02*
D03*
X1308270Y824040D02*
D03*
X1308320Y760540D02*
D03*
X1308270Y700850D02*
D03*
X1308320Y638620D02*
D03*
X1308930Y574680D02*
D03*
X1454100Y249400D02*
D03*
X1390790D02*
D03*
X1327100D02*
D03*
X1309930Y512050D02*
D03*
X1309930Y449400D02*
D03*
X1264500Y249400D02*
D03*
X1200100Y247790D02*
D03*
X1134960Y248300D02*
D03*
X1073500Y246400D02*
D03*
X1007500Y248300D02*
D03*
X943460Y247100D02*
D03*
X878150Y248300D02*
D03*
X817650D02*
D03*
X755340D02*
D03*
X1319430Y470600D02*
D03*
X1317770Y722050D02*
D03*
X1319430Y533250D02*
D03*
X1463600Y270600D02*
D03*
X827150Y269500D02*
D03*
X887650D02*
D03*
X1274000Y270600D02*
D03*
X1317820Y659820D02*
D03*
X1400290Y270600D02*
D03*
X1336600D02*
D03*
X764840Y269500D02*
D03*
X1144460D02*
D03*
X1083000Y267600D02*
D03*
X1017000Y269500D02*
D03*
X1318430Y1035300D02*
D03*
Y971800D02*
D03*
X1317770Y845240D02*
D03*
X1317820Y781740D02*
D03*
X1318430Y908300D02*
D03*
Y595880D02*
D03*
X1209600Y268990D02*
D03*
X952960Y268300D02*
D03*
X1327320Y760540D02*
D03*
X1328930Y512050D02*
D03*
X1327930Y574680D02*
D03*
X1327270Y824040D02*
D03*
X1327930Y1014100D02*
D03*
X1327270Y700850D02*
D03*
X1327320Y638620D02*
D03*
X1327930Y950600D02*
D03*
X1328930Y449400D02*
D03*
X1327930Y887100D02*
D03*
X1346100Y249400D02*
D03*
X897150Y248300D02*
D03*
X1219100Y247790D02*
D03*
X1153960Y248300D02*
D03*
X774340D02*
D03*
X1409790Y249400D02*
D03*
X962460Y247100D02*
D03*
X1026500Y248300D02*
D03*
X1283500Y249400D02*
D03*
X1473100D02*
D03*
X836650Y248300D02*
D03*
X1092500Y246400D02*
D03*
D23*
X1307240Y992950D02*
D03*
X1307120Y1053910D02*
D03*
X1307240Y928180D02*
D03*
X1307120Y865950D02*
D03*
X1308390Y618300D02*
D03*
X1307120Y802450D02*
D03*
X1307240Y741490D02*
D03*
X1307120Y679260D02*
D03*
X1308500Y553000D02*
D03*
Y490000D02*
D03*
X347600Y690000D02*
D03*
Y641000D02*
D03*
Y588000D02*
D03*
Y540000D02*
D03*
Y490000D02*
D03*
Y436000D02*
D03*
Y385000D02*
D03*
Y332192D02*
D03*
X597893Y1177000D02*
D03*
X612893Y1126000D02*
D03*
X854950Y1263000D02*
D03*
X704500Y1263000D02*
D03*
X753350Y1263000D02*
D03*
X804150Y1263000D02*
D03*
X1160500Y1263000D02*
D03*
X1108500D02*
D03*
X956500Y1263000D02*
D03*
X1009500Y1263000D02*
D03*
X1058500D02*
D03*
X908500D02*
D03*
X485500Y228000D02*
D03*
X700500D02*
D03*
X1358650Y459050D02*
D03*
X1357800Y708470D02*
D03*
X1357500Y522000D02*
D03*
X974750Y439000D02*
D03*
X1356530Y648780D02*
D03*
X1106250Y439000D02*
D03*
X1121250D02*
D03*
X1160500Y1108000D02*
D03*
X1058500D02*
D03*
X1108500D02*
D03*
X1009500D02*
D03*
X908500D02*
D03*
X960500D02*
D03*
X804150D02*
D03*
X854950D02*
D03*
X753350D02*
D03*
X704500D02*
D03*
X362600Y351000D02*
D03*
Y332192D02*
D03*
Y588000D02*
D03*
Y607000D02*
D03*
X609742Y735380D02*
D03*
X1356650Y1009460D02*
D03*
Y949770D02*
D03*
Y829120D02*
D03*
Y768160D02*
D03*
Y888810D02*
D03*
X1046480Y439000D02*
D03*
X362600Y385000D02*
D03*
Y404000D02*
D03*
X1355260Y586550D02*
D03*
X362600Y455000D02*
D03*
Y436000D02*
D03*
Y708000D02*
D03*
Y690000D02*
D03*
Y509000D02*
D03*
Y490000D02*
D03*
X362500Y558000D02*
D03*
X362600Y540000D02*
D03*
Y641000D02*
D03*
Y659000D02*
D03*
X1322240Y928180D02*
D03*
X1322120Y865950D02*
D03*
X1371650Y829120D02*
D03*
Y1009460D02*
D03*
Y949770D02*
D03*
X1322240Y741490D02*
D03*
X1322120Y802450D02*
D03*
X1372500Y522000D02*
D03*
X1373650Y459050D02*
D03*
X1322120Y679260D02*
D03*
X1371530Y648780D02*
D03*
X1370260Y586550D02*
D03*
X1323390Y618300D02*
D03*
X1322120Y1053910D02*
D03*
X1371650Y888810D02*
D03*
X1322240Y992950D02*
D03*
X1371650Y768160D02*
D03*
X1372800Y708470D02*
D03*
X1323500Y553000D02*
D03*
Y490000D02*
D03*
X347600Y708000D02*
D03*
Y351000D02*
D03*
Y404000D02*
D03*
X584000Y228000D02*
D03*
X599000D02*
D03*
X685500D02*
D03*
X347600Y607000D02*
D03*
Y455000D02*
D03*
Y509000D02*
D03*
X347500Y558000D02*
D03*
X347600Y659000D02*
D03*
X1031480Y439000D02*
D03*
X959750D02*
D03*
X470500Y228000D02*
D03*
X819150Y1108000D02*
D03*
X1024500D02*
D03*
X869950D02*
D03*
X768350D02*
D03*
X923500D02*
D03*
X975500D02*
D03*
X719500D02*
D03*
X1024500Y1263000D02*
D03*
X719500Y1263000D02*
D03*
X768350Y1263000D02*
D03*
X819150Y1263000D02*
D03*
X869950Y1263000D02*
D03*
X923500D02*
D03*
X971500Y1263000D02*
D03*
X1073500Y1263000D02*
D03*
X1123500D02*
D03*
X1175500D02*
D03*
X594741Y735380D02*
D03*
X612893Y1177000D02*
D03*
X597893Y1160000D02*
D03*
X1175500Y1108000D02*
D03*
X1123500D02*
D03*
X1073500D02*
D03*
X612893Y1160000D02*
D03*
X597893Y1143000D02*
D03*
X612893D02*
D03*
X597893Y1126000D02*
D03*
D24*
X1008000Y571741D02*
D03*
X1003000Y710741D02*
D03*
X967000D02*
D03*
X971000Y571741D02*
D03*
X948360Y522741D02*
D03*
X911000D02*
D03*
X660000Y1030753D02*
D03*
X563000D02*
D03*
X758000Y822000D02*
D03*
X718000Y634259D02*
D03*
X677000Y633259D02*
D03*
X628000Y638803D02*
D03*
X718000Y568741D02*
D03*
X677000D02*
D03*
X611200Y500987D02*
D03*
X538350D02*
D03*
X491350D02*
D03*
X395000Y206500D02*
D03*
X563000Y1047270D02*
D03*
X538350Y484470D02*
D03*
X491350D02*
D03*
X1003000Y727259D02*
D03*
X1008000Y588259D02*
D03*
X971000D02*
D03*
X967000Y727259D02*
D03*
X948360Y539259D02*
D03*
X911000D02*
D03*
X758000Y805483D02*
D03*
X718000Y617741D02*
D03*
X677000Y616741D02*
D03*
X718000Y585259D02*
D03*
X677000D02*
D03*
X611200Y484470D02*
D03*
X628000Y655320D02*
D03*
X660000Y1047270D02*
D03*
X395000Y223017D02*
D03*
D25*
X925160Y710320D02*
D03*
X771560Y620320D02*
D03*
Y690320D02*
D03*
Y705320D02*
D03*
X925160Y605320D02*
D03*
Y625320D02*
D03*
Y610320D02*
D03*
X771560Y715320D02*
D03*
X925160Y700320D02*
D03*
X771560Y670320D02*
D03*
Y665320D02*
D03*
X925160Y715320D02*
D03*
Y595320D02*
D03*
Y600320D02*
D03*
X771560Y615320D02*
D03*
Y610320D02*
D03*
X925160Y695320D02*
D03*
X771560Y595320D02*
D03*
Y710320D02*
D03*
Y700320D02*
D03*
Y695320D02*
D03*
Y685320D02*
D03*
Y680320D02*
D03*
Y675320D02*
D03*
Y660320D02*
D03*
Y655320D02*
D03*
Y650320D02*
D03*
Y645320D02*
D03*
Y640320D02*
D03*
Y635320D02*
D03*
Y630320D02*
D03*
Y625320D02*
D03*
Y605320D02*
D03*
Y600320D02*
D03*
X925160Y615320D02*
D03*
Y620320D02*
D03*
Y630320D02*
D03*
Y635320D02*
D03*
Y640320D02*
D03*
Y645320D02*
D03*
Y650320D02*
D03*
Y655320D02*
D03*
Y660320D02*
D03*
Y665320D02*
D03*
Y670320D02*
D03*
Y675320D02*
D03*
Y680320D02*
D03*
Y685320D02*
D03*
Y690320D02*
D03*
Y705320D02*
D03*
D26*
X903360Y578520D02*
D03*
X898360D02*
D03*
X818360Y732120D02*
D03*
X793360D02*
D03*
X888360Y578520D02*
D03*
X878360Y732120D02*
D03*
X838360Y578520D02*
D03*
X798360Y732120D02*
D03*
X808360Y578520D02*
D03*
X788360Y732120D02*
D03*
X908360Y578520D02*
D03*
X798360D02*
D03*
X853360Y732120D02*
D03*
X848360D02*
D03*
X858360D02*
D03*
X893360Y578520D02*
D03*
X868360Y732120D02*
D03*
X863360D02*
D03*
X823360D02*
D03*
X828360D02*
D03*
X788360Y578520D02*
D03*
X893360Y732120D02*
D03*
X813360D02*
D03*
X808360D02*
D03*
X793360Y578520D02*
D03*
X813360D02*
D03*
X818360D02*
D03*
X823360D02*
D03*
X828360D02*
D03*
X833360D02*
D03*
X843360D02*
D03*
X848360D02*
D03*
X853360D02*
D03*
X858360D02*
D03*
X863360D02*
D03*
X868360D02*
D03*
X873360D02*
D03*
X878360D02*
D03*
X883360D02*
D03*
X908360Y732120D02*
D03*
X903360D02*
D03*
X898360D02*
D03*
X888360D02*
D03*
X883360D02*
D03*
X873360D02*
D03*
X843360D02*
D03*
X838360D02*
D03*
X833360D02*
D03*
X803360D02*
D03*
Y578520D02*
D03*
D27*
X1496620Y209660D02*
D03*
X1433310D02*
D03*
X1369620Y209734D02*
D03*
X1305000Y209500D02*
D03*
X1242000Y209734D02*
D03*
X1177360Y208850D02*
D03*
X1113980D02*
D03*
X1048750D02*
D03*
X982170Y208580D02*
D03*
X919400D02*
D03*
X856360D02*
D03*
X794880D02*
D03*
X491350Y321191D02*
D03*
X629300D02*
D03*
X514350D02*
D03*
X425350D02*
D03*
Y336191D02*
D03*
X557050Y321191D02*
D03*
X649650D02*
D03*
X470250Y1158850D02*
D03*
Y1275120D02*
D03*
X1496620Y268990D02*
D03*
X856360Y268030D02*
D03*
X470250Y820030D02*
D03*
Y766620D02*
D03*
X919400Y268030D02*
D03*
X1304000Y269500D02*
D03*
X1049000Y713500D02*
D03*
X470250Y1260120D02*
D03*
Y1204230D02*
D03*
Y1143850D02*
D03*
Y1091180D02*
D03*
Y1033530D02*
D03*
X470250Y975560D02*
D03*
Y919980D02*
D03*
Y864770D02*
D03*
Y805030D02*
D03*
Y751620D02*
D03*
Y879770D02*
D03*
X1433310Y268990D02*
D03*
X1049000Y698500D02*
D03*
X1368350Y269064D02*
D03*
X794880Y268030D02*
D03*
X447350Y336191D02*
D03*
X1177480Y268300D02*
D03*
X1113980D02*
D03*
X1048750D02*
D03*
X470250Y1048530D02*
D03*
Y1106180D02*
D03*
X470250Y934980D02*
D03*
X470250Y1219230D02*
D03*
X470250Y990560D02*
D03*
X1242000Y269500D02*
D03*
X982170Y268030D02*
D03*
X1242000Y224734D02*
D03*
X1177480Y253300D02*
D03*
X1113980D02*
D03*
X1305000Y224500D02*
D03*
X1433310Y224660D02*
D03*
X856360Y223580D02*
D03*
X1113980Y223850D02*
D03*
X919400Y253030D02*
D03*
X982170D02*
D03*
X794880D02*
D03*
X1368350Y254064D02*
D03*
X982170Y223580D02*
D03*
X1433310Y253990D02*
D03*
X1048750Y253300D02*
D03*
X919400Y223580D02*
D03*
X1242000Y254500D02*
D03*
X1369620Y224734D02*
D03*
X794880Y223580D02*
D03*
X1496620Y224660D02*
D03*
X1048750Y223850D02*
D03*
X1177360D02*
D03*
X1304000Y254500D02*
D03*
X1496620Y253990D02*
D03*
X856360Y253030D02*
D03*
X649650Y336191D02*
D03*
X339150Y934860D02*
D03*
X339150Y1275000D02*
D03*
Y1260000D02*
D03*
Y1219110D02*
D03*
Y1204110D02*
D03*
Y1050830D02*
D03*
Y1035830D02*
D03*
Y1107330D02*
D03*
Y1092330D02*
D03*
X339150Y991710D02*
D03*
Y976710D02*
D03*
Y879530D02*
D03*
Y864530D02*
D03*
Y820030D02*
D03*
Y805030D02*
D03*
Y766620D02*
D03*
Y751620D02*
D03*
Y919860D02*
D03*
X339150Y1160000D02*
D03*
Y1145000D02*
D03*
X447350Y321191D02*
D03*
X608300D02*
D03*
Y336191D02*
D03*
X629300D02*
D03*
X670650Y321191D02*
D03*
Y336191D02*
D03*
X514350D02*
D03*
X537050Y321191D02*
D03*
Y336191D02*
D03*
X491350D02*
D03*
X557050D02*
D03*
X577050Y321191D02*
D03*
Y336191D02*
D03*
X469350Y321191D02*
D03*
Y336191D02*
D03*
D28*
X1121750Y418000D02*
D03*
X1046980D02*
D03*
X974750D02*
D03*
X1106250D02*
D03*
X1031480D02*
D03*
X959250D02*
D03*
D29*
X606790Y1251040D02*
D03*
X597290Y1231440D02*
D03*
X616290D02*
D03*
D30*
X605520Y1047270D02*
D03*
X606250Y427592D02*
D03*
X605520Y1096670D02*
D03*
X618220D02*
D03*
X592820Y1047270D02*
D03*
X618220D02*
D03*
X618950Y427592D02*
D03*
X630920Y1047270D02*
D03*
X644350Y427592D02*
D03*
Y378191D02*
D03*
X631650Y427592D02*
D03*
X606250Y378191D02*
D03*
X618950D02*
D03*
X631650D02*
D03*
X592820Y1096670D02*
D03*
X630920D02*
D03*
D31*
X500000Y655320D02*
D03*
X570000D02*
D03*
D32*
X511650Y378191D02*
D03*
X524350Y427691D02*
D03*
X498950D02*
D03*
X486250Y378191D02*
D03*
X549750D02*
D03*
X537050D02*
D03*
X524350D02*
D03*
X498950D02*
D03*
X473550D02*
D03*
Y427691D02*
D03*
X486250D02*
D03*
X511650D02*
D03*
X537050D02*
D03*
X549750D02*
D03*
D33*
X485000Y149000D02*
D03*
Y75000D02*
D03*
D34*
X451600Y227500D02*
D03*
Y208500D02*
D03*
X430400Y218000D02*
D03*
X543400D02*
D03*
X564600Y227500D02*
D03*
Y208500D02*
D03*
X664600Y227500D02*
D03*
Y208500D02*
D03*
X643400Y218000D02*
D03*
D35*
X1389280Y554840D02*
D03*
X1388770Y677990D02*
D03*
X1387890Y618300D02*
D03*
X1388770Y799910D02*
D03*
X1389890Y489530D02*
D03*
X1388770Y737680D02*
D03*
Y919290D02*
D03*
Y858330D02*
D03*
X1387890Y1038670D02*
D03*
X1388770Y980250D02*
D03*
X1359070D02*
D03*
Y677990D02*
D03*
Y858330D02*
D03*
Y737680D02*
D03*
X1358190Y1038670D02*
D03*
X1359580Y554840D02*
D03*
X1358190Y618300D02*
D03*
X1359070Y799910D02*
D03*
X1360190Y489530D02*
D03*
X1359070Y919290D02*
D03*
X248430Y344258D02*
D03*
X218730D02*
D03*
X248430Y395059D02*
D03*
X218730D02*
D03*
X248430Y598259D02*
D03*
X218730D02*
D03*
X248430Y496659D02*
D03*
X218730D02*
D03*
X248430Y445858D02*
D03*
X218730D02*
D03*
X248430Y649258D02*
D03*
X218730D02*
D03*
X248430Y700059D02*
D03*
X218730D02*
D03*
X248430Y547458D02*
D03*
X218730D02*
D03*
D36*
X641670Y717320D02*
D03*
Y742320D02*
D03*
D37*
X1274000Y194150D02*
D03*
Y223850D02*
D03*
X1209600Y194150D02*
D03*
Y223850D02*
D03*
X952960Y193880D02*
D03*
Y223580D02*
D03*
X1017000Y193880D02*
D03*
Y223580D02*
D03*
X1400290Y224390D02*
D03*
Y194690D02*
D03*
X1144460Y194150D02*
D03*
Y223850D02*
D03*
X764840Y193610D02*
D03*
Y223310D02*
D03*
X887650Y193610D02*
D03*
Y223310D02*
D03*
X1336600Y194764D02*
D03*
Y224464D02*
D03*
X1082000Y194150D02*
D03*
Y223850D02*
D03*
X827150Y193610D02*
D03*
Y223310D02*
D03*
X1463600Y224390D02*
D03*
Y194690D02*
D03*
M02*
