G04*
G04 #@! TF.GenerationSoftware,Altium Limited,Altium Designer,26.3.0 (6)*
G04*
G04 Layer_Physical_Order=4*
G04 Layer_Color=16711680*
%FSLAX44Y44*%
%MOMM*%
G71*
G04*
G04 #@! TF.SameCoordinates,699F2071-7C69-4EA5-8E2A-78D3DEE1F4DE*
G04*
G04*
G04 #@! TF.FilePolarity,Positive*
G04*
G01*
G75*
%ADD11C,0.2500*%
%ADD62C,1.3900*%
%ADD63R,1.3900X1.3900*%
%ADD77C,0.3200*%
%ADD78C,0.2600*%
%ADD80O,1.6000X1.8000*%
G04:AMPARAMS|DCode=81|XSize=1.6mm|YSize=1.8mm|CornerRadius=0.4mm|HoleSize=0mm|Usage=FLASHONLY|Rotation=0.000|XOffset=0mm|YOffset=0mm|HoleType=Round|Shape=RoundedRectangle|*
%AMROUNDEDRECTD81*
21,1,1.6000,1.0000,0,0,0.0*
21,1,0.8000,1.8000,0,0,0.0*
1,1,0.8000,0.4000,-0.5000*
1,1,0.8000,-0.4000,-0.5000*
1,1,0.8000,-0.4000,0.5000*
1,1,0.8000,0.4000,0.5000*
%
%ADD81ROUNDEDRECTD81*%
%ADD82O,2.7940X3.0480*%
%ADD83R,2.7940X3.0480*%
%ADD84C,1.4280*%
%ADD85C,1.2600*%
%ADD86C,1.9050*%
%ADD87C,5.0000*%
%ADD88R,1.2600X1.2600*%
%ADD89O,3.0480X2.7940*%
%ADD90R,3.0480X2.7940*%
%ADD91C,1.5000*%
%ADD92R,1.2600X1.2600*%
%ADD93R,1.5000X1.5000*%
%ADD94R,1.4280X1.4280*%
%ADD95C,3.3460*%
%ADD96C,0.8000*%
%ADD97C,1.2700*%
%ADD98R,3.9600X3.9600*%
%ADD99R,5.0800X5.0800*%
G36*
X1533526Y51474D02*
X101474D01*
Y1378526D01*
X1533526D01*
X1533526Y51474D01*
D02*
G37*
%LPC*%
G36*
X150000Y1365173D02*
X145280Y1364801D01*
X140676Y1363696D01*
X136302Y1361884D01*
X132265Y1359411D01*
X128665Y1356335D01*
X125590Y1352735D01*
X123116Y1348698D01*
X121304Y1344324D01*
X120198Y1339720D01*
X119827Y1335000D01*
X120198Y1330280D01*
X121304Y1325676D01*
X123116Y1321302D01*
X125590Y1317265D01*
X128665Y1313665D01*
X132265Y1310589D01*
X136302Y1308116D01*
X140676Y1306304D01*
X145280Y1305199D01*
X150000Y1304827D01*
X154720Y1305199D01*
X159324Y1306304D01*
X163698Y1308116D01*
X167735Y1310589D01*
X171336Y1313665D01*
X174410Y1317265D01*
X176884Y1321302D01*
X178696Y1325676D01*
X179802Y1330280D01*
X180173Y1335000D01*
X179802Y1339720D01*
X178696Y1344324D01*
X176884Y1348698D01*
X174410Y1352735D01*
X171336Y1356335D01*
X167735Y1359411D01*
X163698Y1361884D01*
X159324Y1363696D01*
X154720Y1364801D01*
X150000Y1365173D01*
D02*
G37*
G36*
X1189850Y1341320D02*
X1151750D01*
Y1300680D01*
X1189850D01*
Y1341320D01*
D02*
G37*
G36*
X1120000Y1341412D02*
X1116265Y1341044D01*
X1112675Y1339955D01*
X1109365Y1338186D01*
X1106464Y1335806D01*
X1104084Y1332905D01*
X1102315Y1329595D01*
X1101226Y1326004D01*
X1100858Y1322270D01*
Y1319730D01*
X1101226Y1315995D01*
X1102315Y1312405D01*
X1104084Y1309095D01*
X1106464Y1306194D01*
X1109365Y1303814D01*
X1112675Y1302045D01*
X1116265Y1300956D01*
X1120000Y1300588D01*
X1123735Y1300956D01*
X1127325Y1302045D01*
X1130635Y1303814D01*
X1133536Y1306194D01*
X1135916Y1309095D01*
X1137685Y1312405D01*
X1138774Y1315995D01*
X1139142Y1319730D01*
Y1322270D01*
X1138774Y1326004D01*
X1137685Y1329595D01*
X1135916Y1332905D01*
X1133536Y1335806D01*
X1130635Y1338186D01*
X1127325Y1339955D01*
X1123735Y1341044D01*
X1120000Y1341412D01*
D02*
G37*
G36*
X1069200D02*
X1065465Y1341044D01*
X1061875Y1339955D01*
X1058565Y1338186D01*
X1055664Y1335806D01*
X1053284Y1332905D01*
X1051515Y1329595D01*
X1050426Y1326004D01*
X1050058Y1322270D01*
Y1319730D01*
X1050426Y1315995D01*
X1051515Y1312405D01*
X1053284Y1309095D01*
X1055664Y1306194D01*
X1058565Y1303814D01*
X1061875Y1302045D01*
X1065465Y1300956D01*
X1069200Y1300588D01*
X1072934Y1300956D01*
X1076525Y1302045D01*
X1079835Y1303814D01*
X1082736Y1306194D01*
X1085116Y1309095D01*
X1086885Y1312405D01*
X1087974Y1315995D01*
X1088342Y1319730D01*
Y1322270D01*
X1087974Y1326004D01*
X1086885Y1329595D01*
X1085116Y1332905D01*
X1082736Y1335806D01*
X1079835Y1338186D01*
X1076525Y1339955D01*
X1072934Y1341044D01*
X1069200Y1341412D01*
D02*
G37*
G36*
X1018400D02*
X1014666Y1341044D01*
X1011075Y1339955D01*
X1007765Y1338186D01*
X1004864Y1335806D01*
X1002484Y1332905D01*
X1000715Y1329595D01*
X999626Y1326004D01*
X999258Y1322270D01*
Y1319730D01*
X999626Y1315995D01*
X1000715Y1312405D01*
X1002484Y1309095D01*
X1004864Y1306194D01*
X1007765Y1303814D01*
X1011075Y1302045D01*
X1014666Y1300956D01*
X1018400Y1300588D01*
X1022134Y1300956D01*
X1025725Y1302045D01*
X1029035Y1303814D01*
X1031936Y1306194D01*
X1034316Y1309095D01*
X1036085Y1312405D01*
X1037174Y1315995D01*
X1037542Y1319730D01*
Y1322270D01*
X1037174Y1326004D01*
X1036085Y1329595D01*
X1034316Y1332905D01*
X1031936Y1335806D01*
X1029035Y1338186D01*
X1025725Y1339955D01*
X1022134Y1341044D01*
X1018400Y1341412D01*
D02*
G37*
G36*
X967600D02*
X963866Y1341044D01*
X960275Y1339955D01*
X956965Y1338186D01*
X954064Y1335806D01*
X951684Y1332905D01*
X949915Y1329595D01*
X948826Y1326004D01*
X948458Y1322270D01*
Y1319730D01*
X948826Y1315995D01*
X949915Y1312405D01*
X951684Y1309095D01*
X954064Y1306194D01*
X956965Y1303814D01*
X960275Y1302045D01*
X963866Y1300956D01*
X967600Y1300588D01*
X971335Y1300956D01*
X974925Y1302045D01*
X978235Y1303814D01*
X981136Y1306194D01*
X983516Y1309095D01*
X985285Y1312405D01*
X986374Y1315995D01*
X986742Y1319730D01*
Y1322270D01*
X986374Y1326004D01*
X985285Y1329595D01*
X983516Y1332905D01*
X981136Y1335806D01*
X978235Y1338186D01*
X974925Y1339955D01*
X971335Y1341044D01*
X967600Y1341412D01*
D02*
G37*
G36*
X916800D02*
X913065Y1341044D01*
X909475Y1339955D01*
X906165Y1338186D01*
X903264Y1335806D01*
X900884Y1332905D01*
X899115Y1329595D01*
X898026Y1326004D01*
X897658Y1322270D01*
Y1319730D01*
X898026Y1315995D01*
X899115Y1312405D01*
X900884Y1309095D01*
X903264Y1306194D01*
X906165Y1303814D01*
X909475Y1302045D01*
X913065Y1300956D01*
X916800Y1300588D01*
X920535Y1300956D01*
X924125Y1302045D01*
X927435Y1303814D01*
X930336Y1306194D01*
X932716Y1309095D01*
X934485Y1312405D01*
X935574Y1315995D01*
X935942Y1319730D01*
Y1322270D01*
X935574Y1326004D01*
X934485Y1329595D01*
X932716Y1332905D01*
X930336Y1335806D01*
X927435Y1338186D01*
X924125Y1339955D01*
X920535Y1341044D01*
X916800Y1341412D01*
D02*
G37*
G36*
X1487000Y1360173D02*
X1482280Y1359801D01*
X1477676Y1358696D01*
X1473302Y1356884D01*
X1469265Y1354411D01*
X1465665Y1351335D01*
X1462590Y1347735D01*
X1460116Y1343698D01*
X1458304Y1339324D01*
X1457198Y1334720D01*
X1456827Y1330000D01*
X1457198Y1325280D01*
X1458304Y1320676D01*
X1460116Y1316302D01*
X1462590Y1312265D01*
X1465665Y1308665D01*
X1469265Y1305589D01*
X1473302Y1303116D01*
X1477676Y1301304D01*
X1482280Y1300199D01*
X1487000Y1299827D01*
X1491720Y1300199D01*
X1496324Y1301304D01*
X1500698Y1303116D01*
X1504735Y1305589D01*
X1508336Y1308665D01*
X1511411Y1312265D01*
X1513884Y1316302D01*
X1515696Y1320676D01*
X1516801Y1325280D01*
X1517173Y1330000D01*
X1516801Y1334720D01*
X1515696Y1339324D01*
X1513884Y1343698D01*
X1511411Y1347735D01*
X1508336Y1351335D01*
X1504735Y1354411D01*
X1500698Y1356884D01*
X1496324Y1358696D01*
X1491720Y1359801D01*
X1487000Y1360173D01*
D02*
G37*
G36*
X881050Y1340320D02*
X842950D01*
Y1299680D01*
X881050D01*
Y1340320D01*
D02*
G37*
G36*
X811200Y1340412D02*
X807466Y1340044D01*
X803875Y1338955D01*
X800565Y1337186D01*
X797664Y1334806D01*
X795284Y1331905D01*
X793515Y1328595D01*
X792426Y1325004D01*
X792058Y1321270D01*
Y1318730D01*
X792426Y1314996D01*
X793515Y1311405D01*
X795284Y1308095D01*
X797664Y1305194D01*
X800565Y1302814D01*
X803875Y1301045D01*
X807466Y1299956D01*
X811200Y1299588D01*
X814934Y1299956D01*
X818525Y1301045D01*
X821835Y1302814D01*
X824736Y1305194D01*
X827116Y1308095D01*
X828885Y1311405D01*
X829974Y1314996D01*
X830342Y1318730D01*
Y1321270D01*
X829974Y1325004D01*
X828885Y1328595D01*
X827116Y1331905D01*
X824736Y1334806D01*
X821835Y1337186D01*
X818525Y1338955D01*
X814934Y1340044D01*
X811200Y1340412D01*
D02*
G37*
G36*
X760400D02*
X756665Y1340044D01*
X753075Y1338955D01*
X749765Y1337186D01*
X746864Y1334806D01*
X744484Y1331905D01*
X742715Y1328595D01*
X741626Y1325004D01*
X741258Y1321270D01*
Y1318730D01*
X741626Y1314996D01*
X742715Y1311405D01*
X744484Y1308095D01*
X746864Y1305194D01*
X749765Y1302814D01*
X753075Y1301045D01*
X756665Y1299956D01*
X760400Y1299588D01*
X764135Y1299956D01*
X767725Y1301045D01*
X771035Y1302814D01*
X773936Y1305194D01*
X776316Y1308095D01*
X778085Y1311405D01*
X779174Y1314996D01*
X779542Y1318730D01*
Y1321270D01*
X779174Y1325004D01*
X778085Y1328595D01*
X776316Y1331905D01*
X773936Y1334806D01*
X771035Y1337186D01*
X767725Y1338955D01*
X764135Y1340044D01*
X760400Y1340412D01*
D02*
G37*
G36*
X709600D02*
X705865Y1340044D01*
X702275Y1338955D01*
X698965Y1337186D01*
X696064Y1334806D01*
X693684Y1331905D01*
X691915Y1328595D01*
X690826Y1325004D01*
X690458Y1321270D01*
Y1318730D01*
X690826Y1314996D01*
X691915Y1311405D01*
X693684Y1308095D01*
X696064Y1305194D01*
X698965Y1302814D01*
X702275Y1301045D01*
X705865Y1299956D01*
X709600Y1299588D01*
X713335Y1299956D01*
X716925Y1301045D01*
X720235Y1302814D01*
X723136Y1305194D01*
X725516Y1308095D01*
X727285Y1311405D01*
X728374Y1314996D01*
X728742Y1318730D01*
Y1321270D01*
X728374Y1325004D01*
X727285Y1328595D01*
X725516Y1331905D01*
X723136Y1334806D01*
X720235Y1337186D01*
X716925Y1338955D01*
X713335Y1340044D01*
X709600Y1340412D01*
D02*
G37*
G36*
X658800D02*
X655066Y1340044D01*
X651475Y1338955D01*
X648165Y1337186D01*
X645264Y1334806D01*
X642884Y1331905D01*
X641115Y1328595D01*
X640026Y1325004D01*
X639658Y1321270D01*
Y1318730D01*
X640026Y1314996D01*
X641115Y1311405D01*
X642884Y1308095D01*
X645264Y1305194D01*
X648165Y1302814D01*
X651475Y1301045D01*
X655066Y1299956D01*
X658800Y1299588D01*
X662534Y1299956D01*
X666125Y1301045D01*
X669435Y1302814D01*
X672336Y1305194D01*
X674716Y1308095D01*
X676485Y1311405D01*
X677574Y1314996D01*
X677942Y1318730D01*
Y1321270D01*
X677574Y1325004D01*
X676485Y1328595D01*
X674716Y1331905D01*
X672336Y1334806D01*
X669435Y1337186D01*
X666125Y1338955D01*
X662534Y1340044D01*
X658800Y1340412D01*
D02*
G37*
G36*
X608000D02*
X604266Y1340044D01*
X600675Y1338955D01*
X597365Y1337186D01*
X594464Y1334806D01*
X592084Y1331905D01*
X590315Y1328595D01*
X589226Y1325004D01*
X588858Y1321270D01*
Y1318730D01*
X589226Y1314996D01*
X590315Y1311405D01*
X592084Y1308095D01*
X594464Y1305194D01*
X597365Y1302814D01*
X600675Y1301045D01*
X604266Y1299956D01*
X608000Y1299588D01*
X611735Y1299956D01*
X615325Y1301045D01*
X618635Y1302814D01*
X621536Y1305194D01*
X623916Y1308095D01*
X625685Y1311405D01*
X626774Y1314996D01*
X627142Y1318730D01*
Y1321270D01*
X626774Y1325004D01*
X625685Y1328595D01*
X623916Y1331905D01*
X621536Y1334806D01*
X618635Y1337186D01*
X615325Y1338955D01*
X611735Y1340044D01*
X608000Y1340412D01*
D02*
G37*
G36*
X379980Y1292350D02*
X357220D01*
Y1269590D01*
X379980D01*
Y1292350D01*
D02*
G37*
G36*
X444800Y1292448D02*
X441829Y1292057D01*
X439061Y1290910D01*
X436684Y1289086D01*
X434860Y1286709D01*
X433713Y1283941D01*
X433322Y1280970D01*
X433713Y1277999D01*
X434860Y1275231D01*
X436684Y1272854D01*
X439061Y1271030D01*
X441829Y1269883D01*
X444800Y1269492D01*
X447771Y1269883D01*
X450539Y1271030D01*
X452916Y1272854D01*
X454740Y1275231D01*
X455887Y1277999D01*
X456278Y1280970D01*
X455887Y1283941D01*
X454740Y1286709D01*
X452916Y1289086D01*
X450539Y1290910D01*
X447771Y1292057D01*
X444800Y1292448D01*
D02*
G37*
G36*
X1423700Y1295016D02*
X1419424Y1294594D01*
X1415313Y1293347D01*
X1411524Y1291322D01*
X1408203Y1288597D01*
X1405478Y1285276D01*
X1403453Y1281487D01*
X1402206Y1277375D01*
X1401785Y1273100D01*
X1402206Y1268824D01*
X1403453Y1264713D01*
X1405478Y1260924D01*
X1408203Y1257603D01*
X1411524Y1254878D01*
X1415313Y1252853D01*
X1419424Y1251606D01*
X1423700Y1251184D01*
X1427975Y1251606D01*
X1432087Y1252853D01*
X1435876Y1254878D01*
X1439197Y1257603D01*
X1441922Y1260924D01*
X1443947Y1264713D01*
X1445194Y1268824D01*
X1445616Y1273100D01*
X1445194Y1277375D01*
X1443947Y1281487D01*
X1441922Y1285276D01*
X1439197Y1288597D01*
X1435876Y1291322D01*
X1432087Y1293347D01*
X1427975Y1294594D01*
X1423700Y1295016D01*
D02*
G37*
G36*
X1303300D02*
X1299025Y1294594D01*
X1294913Y1293347D01*
X1291124Y1291322D01*
X1287803Y1288597D01*
X1285078Y1285276D01*
X1283053Y1281487D01*
X1281806Y1277375D01*
X1281384Y1273100D01*
X1281806Y1268824D01*
X1283053Y1264713D01*
X1285078Y1260924D01*
X1287803Y1257603D01*
X1291124Y1254878D01*
X1294913Y1252853D01*
X1299025Y1251606D01*
X1303300Y1251184D01*
X1307576Y1251606D01*
X1311687Y1252853D01*
X1315476Y1254878D01*
X1318797Y1257603D01*
X1321522Y1260924D01*
X1323547Y1264713D01*
X1324794Y1268824D01*
X1325215Y1273100D01*
X1324794Y1277375D01*
X1323547Y1281487D01*
X1321522Y1285276D01*
X1318797Y1288597D01*
X1315476Y1291322D01*
X1311687Y1293347D01*
X1307576Y1294594D01*
X1303300Y1295016D01*
D02*
G37*
G36*
X179320Y1285130D02*
X138680D01*
Y1247030D01*
X179320D01*
Y1285130D01*
D02*
G37*
G36*
X1376000Y1258325D02*
X1372810Y1257906D01*
X1369837Y1256674D01*
X1367285Y1254715D01*
X1365326Y1252163D01*
X1364095Y1249190D01*
X1363675Y1246000D01*
X1364095Y1242810D01*
X1365326Y1239837D01*
X1366979Y1237683D01*
X1367304Y1236157D01*
Y1235843D01*
X1367058Y1234688D01*
X1365760Y1233675D01*
X1363220Y1234854D01*
Y1238220D01*
X1338780D01*
Y1213780D01*
X1363220D01*
Y1218624D01*
X1363236Y1218634D01*
X1365760Y1219271D01*
X1367285Y1217285D01*
X1369837Y1215326D01*
X1372810Y1214095D01*
X1376000Y1213675D01*
X1379190Y1214095D01*
X1382163Y1215326D01*
X1384715Y1217285D01*
X1386674Y1219837D01*
X1387905Y1222810D01*
X1388325Y1226000D01*
X1387905Y1229190D01*
X1386674Y1232163D01*
X1385021Y1234317D01*
X1384696Y1235843D01*
Y1236157D01*
X1385021Y1237683D01*
X1386674Y1239837D01*
X1387905Y1242810D01*
X1388325Y1246000D01*
X1387905Y1249190D01*
X1386674Y1252163D01*
X1384715Y1254715D01*
X1382163Y1256674D01*
X1379190Y1257906D01*
X1376000Y1258325D01*
D02*
G37*
G36*
X427000Y1249158D02*
X424630Y1248846D01*
X422421Y1247931D01*
X420524Y1246476D01*
X419069Y1244579D01*
X418154Y1242370D01*
X417842Y1240000D01*
X418154Y1237630D01*
X419069Y1235421D01*
X420524Y1233524D01*
X422421Y1232069D01*
X424630Y1231154D01*
X427000Y1230842D01*
X429370Y1231154D01*
X431579Y1232069D01*
X433476Y1233524D01*
X434931Y1235421D01*
X435846Y1237630D01*
X436158Y1240000D01*
X435846Y1242370D01*
X434931Y1244579D01*
X433476Y1246476D01*
X431579Y1247931D01*
X429370Y1248846D01*
X427000Y1249158D01*
D02*
G37*
G36*
X379980Y1235200D02*
X357220D01*
Y1212440D01*
X379980D01*
Y1235200D01*
D02*
G37*
G36*
X444800Y1235298D02*
X441829Y1234907D01*
X439061Y1233760D01*
X436684Y1231936D01*
X434860Y1229559D01*
X433713Y1226791D01*
X433322Y1223820D01*
X433713Y1220849D01*
X434860Y1218081D01*
X436684Y1215704D01*
X439061Y1213880D01*
X441829Y1212733D01*
X444800Y1212342D01*
X447771Y1212733D01*
X450539Y1213880D01*
X452916Y1215704D01*
X454740Y1218081D01*
X455887Y1220849D01*
X456278Y1223820D01*
X455887Y1226791D01*
X454740Y1229559D01*
X452916Y1231936D01*
X450539Y1233760D01*
X447771Y1234907D01*
X444800Y1235298D01*
D02*
G37*
G36*
X1041080Y1233480D02*
X1018320D01*
Y1210720D01*
X1041080D01*
Y1233480D01*
D02*
G37*
G36*
X990080D02*
X967320D01*
Y1210720D01*
X990080D01*
Y1233480D01*
D02*
G37*
G36*
X939080D02*
X916320D01*
Y1210720D01*
X939080D01*
Y1233480D01*
D02*
G37*
G36*
X888080D02*
X865320D01*
Y1210720D01*
X888080D01*
Y1233480D01*
D02*
G37*
G36*
X837080D02*
X814320D01*
Y1210720D01*
X837080D01*
Y1233480D01*
D02*
G37*
G36*
X786080D02*
X763320D01*
Y1210720D01*
X786080D01*
Y1233480D01*
D02*
G37*
G36*
X735080D02*
X712320D01*
Y1210720D01*
X735080D01*
Y1233480D01*
D02*
G37*
G36*
X1142780Y1233480D02*
X1120020D01*
Y1210720D01*
X1142780D01*
Y1233480D01*
D02*
G37*
G36*
X1091880Y1233480D02*
X1069120D01*
Y1210720D01*
X1091880D01*
Y1233480D01*
D02*
G37*
G36*
X1193780Y1233380D02*
X1171020D01*
Y1210620D01*
X1193780D01*
Y1233380D01*
D02*
G37*
G36*
X160270Y1234422D02*
X157730D01*
X153996Y1234054D01*
X150405Y1232965D01*
X147095Y1231196D01*
X144194Y1228816D01*
X141814Y1225915D01*
X140045Y1222605D01*
X138956Y1219014D01*
X138588Y1215280D01*
X138956Y1211545D01*
X140045Y1207954D01*
X141814Y1204645D01*
X144194Y1201744D01*
X147095Y1199364D01*
X150405Y1197595D01*
X153996Y1196506D01*
X157730Y1196138D01*
X160270D01*
X164004Y1196506D01*
X167595Y1197595D01*
X170905Y1199364D01*
X173806Y1201744D01*
X176186Y1204645D01*
X177955Y1207954D01*
X179044Y1211545D01*
X179412Y1215280D01*
X179044Y1219014D01*
X177955Y1222605D01*
X176186Y1225915D01*
X173806Y1228816D01*
X170905Y1231196D01*
X167595Y1232965D01*
X164004Y1234054D01*
X160270Y1234422D01*
D02*
G37*
G36*
X379980Y1178050D02*
X357220D01*
Y1155290D01*
X379980D01*
Y1178050D01*
D02*
G37*
G36*
X444800Y1178148D02*
X441829Y1177757D01*
X439061Y1176610D01*
X436684Y1174786D01*
X434860Y1172409D01*
X433713Y1169641D01*
X433322Y1166670D01*
X433713Y1163699D01*
X434860Y1160931D01*
X436684Y1158554D01*
X439061Y1156730D01*
X441829Y1155583D01*
X444800Y1155192D01*
X447771Y1155583D01*
X450539Y1156730D01*
X452916Y1158554D01*
X454740Y1160931D01*
X455887Y1163699D01*
X456278Y1166670D01*
X455887Y1169641D01*
X454740Y1172409D01*
X452916Y1174786D01*
X450539Y1176610D01*
X447771Y1177757D01*
X444800Y1178148D01*
D02*
G37*
G36*
X160270Y1183622D02*
X157730D01*
X153996Y1183254D01*
X150405Y1182165D01*
X147095Y1180396D01*
X144194Y1178016D01*
X141814Y1175115D01*
X140045Y1171805D01*
X138956Y1168214D01*
X138588Y1164480D01*
X138956Y1160745D01*
X140045Y1157154D01*
X141814Y1153845D01*
X144194Y1150944D01*
X147095Y1148564D01*
X150405Y1146795D01*
X153996Y1145706D01*
X157730Y1145338D01*
X160270D01*
X164004Y1145706D01*
X167595Y1146795D01*
X170905Y1148564D01*
X173806Y1150944D01*
X176186Y1153845D01*
X177955Y1157154D01*
X179044Y1160745D01*
X179412Y1164480D01*
X179044Y1168214D01*
X177955Y1171805D01*
X176186Y1175115D01*
X173806Y1178016D01*
X170905Y1180396D01*
X167595Y1182165D01*
X164004Y1183254D01*
X160270Y1183622D01*
D02*
G37*
G36*
X1029700Y1157378D02*
X1026729Y1156987D01*
X1023961Y1155840D01*
X1021584Y1154016D01*
X1019760Y1151639D01*
X1018613Y1148871D01*
X1018222Y1145900D01*
X1018613Y1142929D01*
X1019760Y1140161D01*
X1021584Y1137784D01*
X1023961Y1135960D01*
X1026729Y1134813D01*
X1029700Y1134422D01*
X1032671Y1134813D01*
X1035439Y1135960D01*
X1037816Y1137784D01*
X1039640Y1140161D01*
X1040787Y1142929D01*
X1041178Y1145900D01*
X1040787Y1148871D01*
X1039640Y1151639D01*
X1037816Y1154016D01*
X1035439Y1155840D01*
X1032671Y1156987D01*
X1029700Y1157378D01*
D02*
G37*
G36*
X978700D02*
X975729Y1156987D01*
X972961Y1155840D01*
X970584Y1154016D01*
X968760Y1151639D01*
X967613Y1148871D01*
X967222Y1145900D01*
X967613Y1142929D01*
X968760Y1140161D01*
X970584Y1137784D01*
X972961Y1135960D01*
X975729Y1134813D01*
X978700Y1134422D01*
X981671Y1134813D01*
X984439Y1135960D01*
X986816Y1137784D01*
X988640Y1140161D01*
X989787Y1142929D01*
X990178Y1145900D01*
X989787Y1148871D01*
X988640Y1151639D01*
X986816Y1154016D01*
X984439Y1155840D01*
X981671Y1156987D01*
X978700Y1157378D01*
D02*
G37*
G36*
X927700D02*
X924729Y1156987D01*
X921961Y1155840D01*
X919584Y1154016D01*
X917760Y1151639D01*
X916613Y1148871D01*
X916222Y1145900D01*
X916613Y1142929D01*
X917760Y1140161D01*
X919584Y1137784D01*
X921961Y1135960D01*
X924729Y1134813D01*
X927700Y1134422D01*
X930671Y1134813D01*
X933439Y1135960D01*
X935816Y1137784D01*
X937640Y1140161D01*
X938787Y1142929D01*
X939178Y1145900D01*
X938787Y1148871D01*
X937640Y1151639D01*
X935816Y1154016D01*
X933439Y1155840D01*
X930671Y1156987D01*
X927700Y1157378D01*
D02*
G37*
G36*
X876700D02*
X873729Y1156987D01*
X870961Y1155840D01*
X868584Y1154016D01*
X866760Y1151639D01*
X865613Y1148871D01*
X865222Y1145900D01*
X865613Y1142929D01*
X866760Y1140161D01*
X868584Y1137784D01*
X870961Y1135960D01*
X873729Y1134813D01*
X876700Y1134422D01*
X879671Y1134813D01*
X882439Y1135960D01*
X884816Y1137784D01*
X886640Y1140161D01*
X887787Y1142929D01*
X888178Y1145900D01*
X887787Y1148871D01*
X886640Y1151639D01*
X884816Y1154016D01*
X882439Y1155840D01*
X879671Y1156987D01*
X876700Y1157378D01*
D02*
G37*
G36*
X825700D02*
X822729Y1156987D01*
X819961Y1155840D01*
X817584Y1154016D01*
X815760Y1151639D01*
X814613Y1148871D01*
X814222Y1145900D01*
X814613Y1142929D01*
X815760Y1140161D01*
X817584Y1137784D01*
X819961Y1135960D01*
X822729Y1134813D01*
X825700Y1134422D01*
X828671Y1134813D01*
X831439Y1135960D01*
X833816Y1137784D01*
X835640Y1140161D01*
X836787Y1142929D01*
X837178Y1145900D01*
X836787Y1148871D01*
X835640Y1151639D01*
X833816Y1154016D01*
X831439Y1155840D01*
X828671Y1156987D01*
X825700Y1157378D01*
D02*
G37*
G36*
X774700D02*
X771729Y1156987D01*
X768961Y1155840D01*
X766584Y1154016D01*
X764760Y1151639D01*
X763613Y1148871D01*
X763222Y1145900D01*
X763613Y1142929D01*
X764760Y1140161D01*
X766584Y1137784D01*
X768961Y1135960D01*
X771729Y1134813D01*
X774700Y1134422D01*
X777671Y1134813D01*
X780439Y1135960D01*
X782816Y1137784D01*
X784640Y1140161D01*
X785787Y1142929D01*
X786178Y1145900D01*
X785787Y1148871D01*
X784640Y1151639D01*
X782816Y1154016D01*
X780439Y1155840D01*
X777671Y1156987D01*
X774700Y1157378D01*
D02*
G37*
G36*
X723700D02*
X720729Y1156987D01*
X717961Y1155840D01*
X715584Y1154016D01*
X713760Y1151639D01*
X712613Y1148871D01*
X712222Y1145900D01*
X712613Y1142929D01*
X713760Y1140161D01*
X715584Y1137784D01*
X717961Y1135960D01*
X720729Y1134813D01*
X723700Y1134422D01*
X726671Y1134813D01*
X729439Y1135960D01*
X731816Y1137784D01*
X733640Y1140161D01*
X734787Y1142929D01*
X735178Y1145900D01*
X734787Y1148871D01*
X733640Y1151639D01*
X731816Y1154016D01*
X729439Y1155840D01*
X726671Y1156987D01*
X723700Y1157378D01*
D02*
G37*
G36*
X1131400Y1157378D02*
X1128429Y1156987D01*
X1125661Y1155840D01*
X1123284Y1154016D01*
X1121460Y1151639D01*
X1120313Y1148871D01*
X1119922Y1145900D01*
X1120313Y1142929D01*
X1121460Y1140161D01*
X1123284Y1137784D01*
X1125661Y1135960D01*
X1128429Y1134813D01*
X1131400Y1134422D01*
X1134371Y1134813D01*
X1137139Y1135960D01*
X1139516Y1137784D01*
X1141340Y1140161D01*
X1142487Y1142929D01*
X1142878Y1145900D01*
X1142487Y1148871D01*
X1141340Y1151639D01*
X1139516Y1154016D01*
X1137139Y1155840D01*
X1134371Y1156987D01*
X1131400Y1157378D01*
D02*
G37*
G36*
X1080500Y1157378D02*
X1077529Y1156987D01*
X1074761Y1155840D01*
X1072384Y1154016D01*
X1070560Y1151639D01*
X1069413Y1148871D01*
X1069022Y1145900D01*
X1069413Y1142929D01*
X1070560Y1140161D01*
X1072384Y1137784D01*
X1074761Y1135960D01*
X1077529Y1134813D01*
X1080500Y1134422D01*
X1083471Y1134813D01*
X1086239Y1135960D01*
X1088616Y1137784D01*
X1090440Y1140161D01*
X1091587Y1142929D01*
X1091978Y1145900D01*
X1091587Y1148871D01*
X1090440Y1151639D01*
X1088616Y1154016D01*
X1086239Y1155840D01*
X1083471Y1156987D01*
X1080500Y1157378D01*
D02*
G37*
G36*
X1182400Y1157278D02*
X1179429Y1156887D01*
X1176661Y1155740D01*
X1174284Y1153916D01*
X1172460Y1151539D01*
X1171313Y1148771D01*
X1170922Y1145800D01*
X1171313Y1142829D01*
X1172460Y1140061D01*
X1174284Y1137684D01*
X1176661Y1135860D01*
X1179429Y1134713D01*
X1182400Y1134322D01*
X1185371Y1134713D01*
X1188139Y1135860D01*
X1190516Y1137684D01*
X1192340Y1140061D01*
X1193487Y1142829D01*
X1193878Y1145800D01*
X1193487Y1148771D01*
X1192340Y1151539D01*
X1190516Y1153916D01*
X1188139Y1155740D01*
X1185371Y1156887D01*
X1182400Y1157278D01*
D02*
G37*
G36*
X1328000Y1124158D02*
X1325630Y1123846D01*
X1323421Y1122931D01*
X1321524Y1121476D01*
X1320069Y1119579D01*
X1319154Y1117370D01*
X1318842Y1115000D01*
X1319154Y1112630D01*
X1320069Y1110421D01*
X1321524Y1108524D01*
X1323421Y1107069D01*
X1325630Y1106154D01*
X1328000Y1105842D01*
X1330370Y1106154D01*
X1332579Y1107069D01*
X1334476Y1108524D01*
X1335931Y1110421D01*
X1336846Y1112630D01*
X1337158Y1115000D01*
X1336846Y1117370D01*
X1335931Y1119579D01*
X1334476Y1121476D01*
X1332579Y1122931D01*
X1330370Y1123846D01*
X1328000Y1124158D01*
D02*
G37*
G36*
X379980Y1120900D02*
X357220D01*
Y1098140D01*
X379980D01*
Y1120900D01*
D02*
G37*
G36*
X432273Y1134404D02*
X429903Y1134092D01*
X427694Y1133177D01*
X425797Y1131722D01*
X424342Y1129825D01*
X423427Y1127616D01*
X423115Y1125246D01*
X423427Y1122875D01*
X424342Y1120667D01*
X425797Y1118770D01*
X427694Y1117314D01*
X429903Y1116400D01*
X432273Y1116087D01*
X432464Y1116113D01*
X434249Y1113786D01*
X433713Y1112491D01*
X433322Y1109520D01*
X433713Y1106549D01*
X434860Y1103781D01*
X436684Y1101404D01*
X439061Y1099580D01*
X441829Y1098433D01*
X444800Y1098042D01*
X447771Y1098433D01*
X450539Y1099580D01*
X452916Y1101404D01*
X454740Y1103781D01*
X455887Y1106549D01*
X456278Y1109520D01*
X455887Y1112491D01*
X454740Y1115259D01*
X452916Y1117636D01*
X450539Y1119460D01*
X447771Y1120607D01*
X444800Y1120998D01*
X442993Y1120760D01*
X441119Y1122876D01*
X441431Y1125246D01*
X441119Y1127616D01*
X440204Y1129825D01*
X438749Y1131722D01*
X436852Y1133177D01*
X434643Y1134092D01*
X432273Y1134404D01*
D02*
G37*
G36*
X160270Y1132822D02*
X157730D01*
X153996Y1132454D01*
X150405Y1131365D01*
X147095Y1129596D01*
X144194Y1127215D01*
X141814Y1124315D01*
X140045Y1121005D01*
X138956Y1117414D01*
X138588Y1113680D01*
X138956Y1109946D01*
X140045Y1106355D01*
X141814Y1103045D01*
X144194Y1100144D01*
X147095Y1097764D01*
X150405Y1095995D01*
X153996Y1094906D01*
X157730Y1094538D01*
X160270D01*
X164004Y1094906D01*
X167595Y1095995D01*
X170905Y1097764D01*
X173806Y1100144D01*
X176186Y1103045D01*
X177955Y1106355D01*
X179044Y1109946D01*
X179412Y1113680D01*
X179044Y1117414D01*
X177955Y1121005D01*
X176186Y1124315D01*
X173806Y1127215D01*
X170905Y1129596D01*
X167595Y1131365D01*
X164004Y1132454D01*
X160270Y1132822D01*
D02*
G37*
G36*
X835000Y1118158D02*
X832630Y1117846D01*
X830421Y1116931D01*
X828524Y1115476D01*
X827069Y1113579D01*
X826154Y1111370D01*
X825898Y1109426D01*
X808009Y1091538D01*
X780385D01*
X779413Y1093884D01*
X784426Y1098898D01*
X786370Y1099154D01*
X788579Y1100069D01*
X790476Y1101524D01*
X791931Y1103421D01*
X792846Y1105630D01*
X793158Y1108000D01*
X792846Y1110370D01*
X791931Y1112579D01*
X790476Y1114476D01*
X788579Y1115931D01*
X786370Y1116846D01*
X784000Y1117158D01*
X781630Y1116846D01*
X779421Y1115931D01*
X777524Y1114476D01*
X776069Y1112579D01*
X775154Y1110370D01*
X774898Y1108426D01*
X764209Y1097738D01*
X741567D01*
X740887Y1099343D01*
X740852Y1100278D01*
X742476Y1101524D01*
X743931Y1103421D01*
X744846Y1105630D01*
X745158Y1108000D01*
X744846Y1110370D01*
X743931Y1112579D01*
X742476Y1114476D01*
X740579Y1115931D01*
X738370Y1116846D01*
X736000Y1117158D01*
X733630Y1116846D01*
X731421Y1115931D01*
X729524Y1114476D01*
X728069Y1112579D01*
X727154Y1110370D01*
X726898Y1108426D01*
X719236Y1100764D01*
X718165Y1099369D01*
X717492Y1097744D01*
X717262Y1096000D01*
Y1028000D01*
X717492Y1026256D01*
X718165Y1024631D01*
X719236Y1023236D01*
X747898Y994574D01*
X748154Y992630D01*
X749069Y990421D01*
X750524Y988524D01*
X752421Y987069D01*
X754630Y986154D01*
X757000Y985842D01*
X759370Y986154D01*
X761579Y987069D01*
X763476Y988524D01*
X763974Y989173D01*
X767026D01*
X767524Y988524D01*
X769421Y987069D01*
X771630Y986154D01*
X774000Y985842D01*
X776370Y986154D01*
X778579Y987069D01*
X780476Y988524D01*
X780615Y988706D01*
X781172Y988868D01*
X783717Y988576D01*
X784524Y987524D01*
X786421Y986069D01*
X788630Y985154D01*
X791000Y984842D01*
X793370Y985154D01*
X795579Y986069D01*
X797476Y987524D01*
X798931Y989421D01*
X799592Y991015D01*
X801431Y991495D01*
X802380Y991414D01*
X802852Y990706D01*
X811046Y982513D01*
X810405Y979726D01*
X810006Y979486D01*
X807416Y979827D01*
X804132Y979395D01*
X801072Y978127D01*
X798444Y976111D01*
X796428Y973483D01*
X796091Y972670D01*
X793342D01*
X793005Y973483D01*
X790988Y976111D01*
X788360Y978127D01*
X785300Y979395D01*
X782016Y979827D01*
X778732Y979395D01*
X775672Y978127D01*
X773044Y976111D01*
X771736Y974406D01*
X769196Y975268D01*
Y979718D01*
X744036D01*
Y954558D01*
X769196D01*
Y959009D01*
X771736Y959871D01*
X773044Y958166D01*
X775672Y956150D01*
X778732Y954882D01*
X782016Y954450D01*
X785300Y954882D01*
X788360Y956150D01*
X790988Y958166D01*
X793005Y960794D01*
X793342Y961607D01*
X796091D01*
X796428Y960794D01*
X798444Y958166D01*
X801072Y956150D01*
X804132Y954882D01*
X807416Y954450D01*
X810006Y954791D01*
X812546Y953238D01*
Y947493D01*
X812524Y947476D01*
X811069Y945579D01*
X810154Y943370D01*
X809842Y941000D01*
X810154Y938630D01*
X811069Y936421D01*
X812524Y934524D01*
X814421Y933069D01*
X816630Y932154D01*
X819000Y931842D01*
X821370Y932154D01*
X823579Y933069D01*
X825476Y934524D01*
X826931Y936421D01*
X827846Y938630D01*
X828158Y941000D01*
X827846Y943370D01*
X826931Y945579D01*
X825476Y947476D01*
X825454Y947493D01*
Y953849D01*
X827994Y955519D01*
X829532Y954882D01*
X832816Y954450D01*
X836100Y954882D01*
X839160Y956150D01*
X841788Y958166D01*
X843805Y960794D01*
X844141Y961607D01*
X846891D01*
X847228Y960794D01*
X849244Y958166D01*
X851872Y956150D01*
X854932Y954882D01*
X858216Y954450D01*
X861500Y954882D01*
X864560Y956150D01*
X867188Y958166D01*
X869205Y960794D01*
X869541Y961607D01*
X872291D01*
X872628Y960794D01*
X874644Y958166D01*
X877272Y956150D01*
X880332Y954882D01*
X883616Y954450D01*
X886900Y954882D01*
X889960Y956150D01*
X892588Y958166D01*
X894605Y960794D01*
X894941Y961607D01*
X897691D01*
X898028Y960794D01*
X900044Y958166D01*
X902421Y956342D01*
X901069Y954579D01*
X900154Y952370D01*
X899842Y950000D01*
X900154Y947630D01*
X901069Y945421D01*
X902524Y943524D01*
X902546Y943507D01*
Y927955D01*
X902546Y927954D01*
X903037Y925485D01*
X903301Y925090D01*
X903210Y924797D01*
X901741Y922853D01*
X899160Y923193D01*
X895745Y922743D01*
X892564Y921425D01*
X889831Y919329D01*
X887865Y916766D01*
X886501Y916585D01*
X886419D01*
X885055Y916766D01*
X883089Y919329D01*
X880357Y921425D01*
X877175Y922743D01*
X873760Y923193D01*
X870346Y922743D01*
X867164Y921425D01*
X866301Y920764D01*
X863795Y921178D01*
X863674Y921360D01*
X863674Y921360D01*
X859720Y925314D01*
X857626Y926713D01*
X855156Y927204D01*
X855156Y927204D01*
X656283D01*
X656283Y927204D01*
X653813Y926713D01*
X651720Y925314D01*
X573232Y846826D01*
X571833Y844733D01*
X571342Y842263D01*
X571342Y842263D01*
Y813943D01*
X568802Y813438D01*
X568758Y813546D01*
X566416Y816596D01*
X563366Y818938D01*
X559813Y820409D01*
X556000Y820911D01*
X552187Y820409D01*
X548634Y818938D01*
X545584Y816596D01*
X543243Y813546D01*
X541771Y809993D01*
X541269Y806180D01*
X541771Y802367D01*
X543243Y798814D01*
X545584Y795764D01*
X548634Y793423D01*
X552187Y791951D01*
X556000Y791449D01*
X559813Y791951D01*
X563366Y793423D01*
X566416Y795764D01*
X568758Y798814D01*
X568802Y798922D01*
X571342Y798417D01*
Y763143D01*
X568802Y762638D01*
X568758Y762746D01*
X566416Y765796D01*
X563366Y768138D01*
X559813Y769609D01*
X556000Y770111D01*
X552187Y769609D01*
X548634Y768138D01*
X545584Y765796D01*
X543243Y762746D01*
X541771Y759193D01*
X541269Y755380D01*
X541771Y751567D01*
X543243Y748015D01*
X545584Y744964D01*
X548634Y742623D01*
X552187Y741151D01*
X556000Y740649D01*
X559813Y741151D01*
X563366Y742623D01*
X566416Y744964D01*
X568758Y748015D01*
X568802Y748122D01*
X571342Y747617D01*
Y683095D01*
X569784Y682450D01*
X567887Y680994D01*
X566432Y679098D01*
X565517Y676889D01*
X565205Y674519D01*
X565517Y672148D01*
X566432Y669939D01*
X567887Y668043D01*
X569784Y666587D01*
X571993Y665672D01*
X574364Y665360D01*
X576734Y665672D01*
X578943Y666587D01*
X580839Y668043D01*
X582295Y669939D01*
X583210Y672148D01*
X583522Y674519D01*
X583362Y675732D01*
X583759Y676326D01*
X583842Y676744D01*
X586619Y677684D01*
X587421Y677069D01*
X589630Y676154D01*
X592000Y675842D01*
X594370Y676154D01*
X596579Y677069D01*
X598438Y678495D01*
X618386D01*
X626081Y670800D01*
X628191Y669390D01*
X630680Y668895D01*
X703986D01*
X706603Y666278D01*
X705551Y663738D01*
X677000D01*
X675256Y663508D01*
X673631Y662835D01*
X672236Y661764D01*
X635209Y624738D01*
X635135D01*
X633579Y625931D01*
X631370Y626846D01*
X629000Y627158D01*
X626630Y626846D01*
X624421Y625931D01*
X622524Y624476D01*
X621069Y622579D01*
X620154Y620370D01*
X619842Y618000D01*
X620154Y615630D01*
X621069Y613421D01*
X622159Y612000D01*
X621069Y610579D01*
X620154Y608370D01*
X619842Y606000D01*
X620154Y603630D01*
X621069Y601421D01*
X622159Y600000D01*
X621069Y598579D01*
X620154Y596370D01*
X619842Y594000D01*
X620154Y591630D01*
X621069Y589421D01*
X622159Y588000D01*
X621069Y586579D01*
X620154Y584370D01*
X619842Y582000D01*
X620154Y579630D01*
X621069Y577421D01*
X622524Y575524D01*
Y574476D01*
X621069Y572579D01*
X620154Y570370D01*
X619842Y568000D01*
X620154Y565630D01*
X621069Y563421D01*
X621694Y562606D01*
X621524Y562476D01*
X620069Y560579D01*
X619154Y558370D01*
X618842Y556000D01*
X619154Y553630D01*
X620069Y551421D01*
X621524Y549524D01*
X623421Y548069D01*
X625630Y547154D01*
X628000Y546842D01*
X630370Y547154D01*
X632579Y548069D01*
X634476Y549524D01*
X635931Y551421D01*
X636846Y553630D01*
X636905Y554078D01*
X650090Y567262D01*
X731471D01*
X732523Y564722D01*
X725306Y557505D01*
X706438D01*
X704579Y558931D01*
X702370Y559846D01*
X700000Y560158D01*
X697630Y559846D01*
X695421Y558931D01*
X693524Y557476D01*
X692069Y555579D01*
X691154Y553370D01*
X690842Y551000D01*
X691154Y548630D01*
X692069Y546421D01*
X692484Y545880D01*
X693524Y543476D01*
X692069Y541579D01*
X691154Y539370D01*
X690842Y537000D01*
X691154Y534630D01*
X692069Y532421D01*
X693524Y530524D01*
X695421Y529069D01*
X697630Y528154D01*
X700000Y527842D01*
X702370Y528154D01*
X704579Y529069D01*
X706438Y530495D01*
X722000D01*
X724489Y530990D01*
X726600Y532400D01*
X766443Y572244D01*
X768849Y571058D01*
X768842Y571000D01*
X769154Y568630D01*
X770069Y566421D01*
X771524Y564524D01*
X773421Y563069D01*
X775630Y562154D01*
X776976Y561976D01*
X777154Y560630D01*
X778069Y558421D01*
X779524Y556524D01*
X781421Y555069D01*
X783630Y554154D01*
X786000Y553842D01*
X788370Y554154D01*
X790579Y555069D01*
X792476Y556524D01*
X792493Y556546D01*
X807000D01*
X807000Y556546D01*
X809470Y557037D01*
X811564Y558436D01*
X822564Y569436D01*
X823963Y571530D01*
X824454Y574000D01*
X824455Y574000D01*
X826994Y574241D01*
X827408Y572159D01*
X828807Y570065D01*
X891132Y507741D01*
X891029Y504690D01*
X890827Y504454D01*
X837925D01*
X834526Y507854D01*
X834529Y507881D01*
X834217Y510252D01*
X833302Y512460D01*
X831847Y514357D01*
X829950Y515813D01*
X827741Y516727D01*
X825371Y517040D01*
X823000Y516727D01*
X820792Y515813D01*
X818895Y514357D01*
X817439Y512460D01*
X816525Y510252D01*
X816212Y507881D01*
X816525Y505511D01*
X817439Y503302D01*
X818895Y501405D01*
X820792Y499950D01*
X823000Y499035D01*
X825371Y498723D01*
X825398Y498727D01*
X829690Y494435D01*
X828638Y491895D01*
X824922D01*
X824476Y492476D01*
X822579Y493931D01*
X820370Y494846D01*
X818000Y495158D01*
X815630Y494846D01*
X813421Y493931D01*
X811524Y492476D01*
X810069Y490579D01*
X809154Y488370D01*
X808842Y486000D01*
X809154Y483630D01*
X810069Y481421D01*
X811524Y479524D01*
X813421Y478069D01*
X815630Y477154D01*
X818000Y476842D01*
X820370Y477154D01*
X822579Y478069D01*
X823775Y478987D01*
X889449D01*
X889895Y478405D01*
X891792Y476950D01*
X894000Y476035D01*
X896371Y475723D01*
X898741Y476035D01*
X900950Y476950D01*
X902847Y478405D01*
X904302Y480302D01*
X905217Y482511D01*
X905529Y484881D01*
X905217Y487252D01*
X904526Y488920D01*
X905154Y490523D01*
X905531Y490653D01*
X908113Y490759D01*
X932436Y466436D01*
X932436Y466436D01*
X934530Y465037D01*
X937000Y464546D01*
X937000Y464546D01*
X1113507D01*
X1113524Y464524D01*
X1115421Y463069D01*
X1117630Y462154D01*
X1120000Y461842D01*
X1122370Y462154D01*
X1124579Y463069D01*
X1126476Y464524D01*
X1127931Y466421D01*
X1128846Y468630D01*
X1129158Y471000D01*
X1128846Y473370D01*
X1127931Y475579D01*
X1126476Y477476D01*
X1124579Y478931D01*
X1122370Y479846D01*
X1120000Y480158D01*
X1117630Y479846D01*
X1115421Y478931D01*
X1113524Y477476D01*
X1113507Y477454D01*
X939673D01*
X839825Y577303D01*
Y584821D01*
X842365Y585873D01*
X889301Y538936D01*
X889301Y538936D01*
X891395Y537537D01*
X893865Y537046D01*
X894827D01*
X904186Y527686D01*
X904186Y527686D01*
X906280Y526287D01*
X908750Y525796D01*
X1024382D01*
X1024382Y525796D01*
X1026852Y526287D01*
X1028946Y527686D01*
X1030657Y529398D01*
X1030684Y529394D01*
X1033055Y529706D01*
X1035264Y530621D01*
X1037160Y532076D01*
X1038616Y533973D01*
X1039531Y536182D01*
X1039843Y538552D01*
X1039531Y540923D01*
X1038616Y543132D01*
X1038279Y543571D01*
X1038931Y544421D01*
X1039846Y546630D01*
X1040158Y549000D01*
X1039846Y551370D01*
X1038931Y553579D01*
X1038225Y554500D01*
X1038931Y555421D01*
X1039846Y557630D01*
X1040158Y560000D01*
X1039846Y562370D01*
X1038931Y564579D01*
X1038225Y565500D01*
X1038931Y566421D01*
X1039846Y568630D01*
X1040158Y571000D01*
X1039846Y573370D01*
X1038931Y575579D01*
X1037725Y577152D01*
X1037931Y577421D01*
X1038846Y579630D01*
X1039158Y582000D01*
X1038846Y584370D01*
X1037931Y586579D01*
X1036725Y588152D01*
X1036931Y588421D01*
X1037846Y590630D01*
X1038158Y593000D01*
X1037846Y595370D01*
X1036931Y597579D01*
X1035836Y599006D01*
X1036326Y600669D01*
X1036951Y601546D01*
X1198520D01*
Y591270D01*
X1259480D01*
Y643103D01*
X1273564Y657186D01*
X1273564Y657186D01*
X1274963Y659280D01*
X1275454Y661750D01*
X1275454Y661750D01*
Y838250D01*
X1274963Y840720D01*
X1273564Y842814D01*
X1273564Y842814D01*
X1259480Y856897D01*
Y908730D01*
X1198520D01*
Y847770D01*
X1250353D01*
X1262546Y835577D01*
Y664423D01*
X1250353Y652230D01*
X1198520D01*
Y614454D01*
X944127D01*
X913450Y645131D01*
X913476Y645524D01*
X914931Y647421D01*
X915846Y649630D01*
X916158Y652000D01*
X915846Y654370D01*
X914931Y656579D01*
X914797Y656754D01*
X914927Y656949D01*
X915418Y659418D01*
Y688745D01*
X954771Y728098D01*
X954771Y728098D01*
X956170Y730192D01*
X956661Y732661D01*
X956661Y732662D01*
Y737580D01*
X956683Y737597D01*
X958139Y739494D01*
X959054Y741703D01*
X959366Y744073D01*
X959054Y746443D01*
X958139Y748652D01*
X956683Y750549D01*
X954787Y752004D01*
X952578Y752919D01*
X950207Y753232D01*
X947837Y752919D01*
X945628Y752004D01*
X943731Y750549D01*
X942276Y748652D01*
X941361Y746443D01*
X941049Y744073D01*
X941115Y743574D01*
X940082Y741335D01*
X939014Y741029D01*
X937630Y740846D01*
X935421Y739931D01*
X933524Y738476D01*
X932069Y736579D01*
X931154Y734370D01*
X930994Y733157D01*
X928454Y733324D01*
Y739507D01*
X928476Y739524D01*
X929931Y741421D01*
X930846Y743630D01*
X931158Y746000D01*
X930846Y748370D01*
X929931Y750579D01*
X928476Y752476D01*
X926579Y753931D01*
X924370Y754846D01*
X922000Y755158D01*
X919630Y754846D01*
X917421Y753931D01*
X915524Y752476D01*
X914069Y750579D01*
X913154Y748370D01*
X913015Y747314D01*
X912994Y747157D01*
X911229Y747273D01*
Y747273D01*
X911229Y747273D01*
X910454Y749492D01*
Y831327D01*
X912673Y833546D01*
X933403D01*
X933403Y833546D01*
X935873Y834037D01*
X937966Y835436D01*
X963995Y861465D01*
X966123Y862593D01*
X967652Y861612D01*
X969004Y860575D01*
X972185Y859257D01*
X975600Y858807D01*
X979015Y859257D01*
X982196Y860575D01*
X984929Y862671D01*
X987025Y865404D01*
X988343Y868585D01*
X988793Y872000D01*
Y874000D01*
X988343Y877415D01*
X987025Y880596D01*
X984929Y883329D01*
X982196Y885425D01*
X979015Y886743D01*
X975600Y887193D01*
X972185Y886743D01*
X969004Y885425D01*
X966271Y883329D01*
X964305Y880766D01*
X963026Y880596D01*
X962774D01*
X961496Y880766D01*
X959529Y883329D01*
X956796Y885425D01*
X953615Y886743D01*
X950200Y887193D01*
X946785Y886743D01*
X943604Y885425D01*
X940871Y883329D01*
X938904Y880766D01*
X937541Y880585D01*
X937459D01*
X936096Y880766D01*
X934129Y883329D01*
X931396Y885425D01*
X928215Y886743D01*
X924800Y887193D01*
X921844Y886804D01*
X919813Y887794D01*
X919304Y888134D01*
Y893610D01*
X921844Y895165D01*
X924560Y894807D01*
X927975Y895257D01*
X931156Y896575D01*
X933889Y898671D01*
X935855Y901234D01*
X937219Y901415D01*
X937301D01*
X938665Y901234D01*
X940631Y898671D01*
X943364Y896575D01*
X946545Y895257D01*
X949960Y894807D01*
X953375Y895257D01*
X956556Y896575D01*
X959289Y898671D01*
X961385Y901404D01*
X962703Y904585D01*
X963153Y908000D01*
Y910000D01*
X962703Y913415D01*
X961385Y916596D01*
X959289Y919329D01*
X956556Y921425D01*
X953375Y922743D01*
X949960Y923193D01*
X946545Y922743D01*
X943364Y921425D01*
X940631Y919329D01*
X938665Y916766D01*
X937301Y916585D01*
X937219D01*
X935855Y916766D01*
X933889Y919329D01*
X931156Y921425D01*
X927975Y922743D01*
X924560Y923193D01*
X921844Y922835D01*
X920248Y923633D01*
X919189Y924682D01*
X918813Y926574D01*
X917414Y928668D01*
X917414Y928668D01*
X915454Y930628D01*
Y943507D01*
X915476Y943524D01*
X916931Y945421D01*
X917846Y947630D01*
X918158Y950000D01*
X917846Y952370D01*
X916931Y954579D01*
X915591Y956327D01*
X917988Y958166D01*
X920005Y960794D01*
X921272Y963855D01*
X921705Y967139D01*
X921272Y970423D01*
X920005Y973483D01*
X917988Y976111D01*
X915360Y978127D01*
X912300Y979395D01*
X909016Y979827D01*
X905732Y979395D01*
X902672Y978127D01*
X900044Y976111D01*
X898028Y973483D01*
X897691Y972670D01*
X894941D01*
X894605Y973483D01*
X892588Y976111D01*
X889960Y978127D01*
X886900Y979395D01*
X883616Y979827D01*
X880332Y979395D01*
X877272Y978127D01*
X874644Y976111D01*
X872628Y973483D01*
X872291Y972670D01*
X869541D01*
X869205Y973483D01*
X867188Y976111D01*
X864560Y978127D01*
X861500Y979395D01*
X858216Y979827D01*
X854932Y979395D01*
X851872Y978127D01*
X849244Y976111D01*
X847228Y973483D01*
X846891Y972670D01*
X844141D01*
X843805Y973483D01*
X841788Y976111D01*
X839160Y978127D01*
X836100Y979395D01*
X832816Y979827D01*
X829532Y979395D01*
X827994Y978758D01*
X825454Y980428D01*
Y983686D01*
X825454Y983686D01*
X824963Y986156D01*
X823564Y988250D01*
X823564Y988250D01*
X813870Y997943D01*
Y1032434D01*
X816388Y1034366D01*
X818405Y1036994D01*
X818742Y1037807D01*
X821491D01*
X821828Y1036994D01*
X823844Y1034366D01*
X826472Y1032350D01*
X829532Y1031082D01*
X832816Y1030650D01*
X836100Y1031082D01*
X839160Y1032350D01*
X841788Y1034366D01*
X843805Y1036994D01*
X844141Y1037807D01*
X846891D01*
X847228Y1036994D01*
X849244Y1034366D01*
X851872Y1032350D01*
X854932Y1031082D01*
X858216Y1030650D01*
X861500Y1031082D01*
X864560Y1032350D01*
X867188Y1034366D01*
X869205Y1036994D01*
X869541Y1037807D01*
X872291D01*
X872628Y1036994D01*
X874644Y1034366D01*
X877272Y1032350D01*
X880332Y1031082D01*
X883616Y1030650D01*
X886900Y1031082D01*
X889960Y1032350D01*
X892588Y1034366D01*
X894605Y1036994D01*
X894941Y1037807D01*
X897691D01*
X898028Y1036994D01*
X900044Y1034366D01*
X902672Y1032350D01*
X905732Y1031082D01*
X909016Y1030650D01*
X912300Y1031082D01*
X915360Y1032350D01*
X917988Y1034366D01*
X920005Y1036994D01*
X921272Y1040054D01*
X921705Y1043338D01*
X921272Y1046623D01*
X920005Y1049683D01*
X917988Y1052311D01*
X915360Y1054327D01*
X914406Y1054722D01*
X914911Y1057262D01*
X991405D01*
X991910Y1054722D01*
X990956Y1054327D01*
X988328Y1052311D01*
X986311Y1049683D01*
X985044Y1046622D01*
X984612Y1043338D01*
X985044Y1040054D01*
X986311Y1036994D01*
X988328Y1034366D01*
X990956Y1032350D01*
X994016Y1031082D01*
X997300Y1030650D01*
X1000584Y1031082D01*
X1003644Y1032350D01*
X1006272Y1034366D01*
X1008289Y1036994D01*
X1008625Y1037807D01*
X1011375D01*
X1011711Y1036994D01*
X1013728Y1034366D01*
X1016356Y1032350D01*
X1019416Y1031082D01*
X1022700Y1030650D01*
X1025984Y1031082D01*
X1028222Y1032009D01*
X1030762Y1030749D01*
Y1028291D01*
X999574Y997102D01*
X997630Y996846D01*
X995421Y995931D01*
X993524Y994476D01*
X992069Y992579D01*
X991154Y990370D01*
X990842Y988000D01*
X991154Y985630D01*
X992069Y983421D01*
X992961Y982259D01*
X992034Y979910D01*
X991857Y979718D01*
X984720D01*
Y954558D01*
X1009880D01*
Y959008D01*
X1012420Y959871D01*
X1013728Y958166D01*
X1016356Y956150D01*
X1019416Y954882D01*
X1022700Y954450D01*
X1025984Y954882D01*
X1029044Y956150D01*
X1031672Y958166D01*
X1033689Y960794D01*
X1034025Y961607D01*
X1036775D01*
X1037111Y960794D01*
X1039128Y958166D01*
X1041756Y956150D01*
X1044816Y954882D01*
X1048100Y954450D01*
X1051384Y954882D01*
X1054444Y956150D01*
X1057072Y958166D01*
X1059089Y960794D01*
X1059425Y961607D01*
X1062175D01*
X1062511Y960794D01*
X1064528Y958166D01*
X1067156Y956150D01*
X1070216Y954882D01*
X1073500Y954450D01*
X1076784Y954882D01*
X1079844Y956150D01*
X1082472Y958166D01*
X1084489Y960794D01*
X1084825Y961607D01*
X1087575D01*
X1087911Y960794D01*
X1089928Y958166D01*
X1092556Y956150D01*
X1095616Y954882D01*
X1098900Y954450D01*
X1102184Y954882D01*
X1105244Y956150D01*
X1107872Y958166D01*
X1109889Y960794D01*
X1110225Y961607D01*
X1112975D01*
X1113311Y960794D01*
X1115328Y958166D01*
X1117956Y956150D01*
X1121016Y954882D01*
X1124300Y954450D01*
X1127584Y954882D01*
X1130644Y956150D01*
X1133272Y958166D01*
X1135289Y960794D01*
X1135625Y961607D01*
X1138375D01*
X1138711Y960794D01*
X1140728Y958166D01*
X1143356Y956150D01*
X1146416Y954882D01*
X1149700Y954450D01*
X1152984Y954882D01*
X1156044Y956150D01*
X1158672Y958166D01*
X1160689Y960794D01*
X1161956Y963855D01*
X1162389Y967139D01*
X1161956Y970423D01*
X1160689Y973483D01*
X1158672Y976111D01*
X1156044Y978127D01*
X1152984Y979395D01*
X1149700Y979827D01*
X1146416Y979395D01*
X1143356Y978127D01*
X1140728Y976111D01*
X1138711Y973483D01*
X1138375Y972670D01*
X1135625D01*
X1135289Y973483D01*
X1133272Y976111D01*
X1130644Y978127D01*
X1127584Y979395D01*
X1124300Y979827D01*
X1121016Y979395D01*
X1117956Y978127D01*
X1115328Y976111D01*
X1113311Y973483D01*
X1112975Y972670D01*
X1110225D01*
X1109889Y973483D01*
X1107872Y976111D01*
X1105244Y978127D01*
X1105229Y978133D01*
X1104847Y981041D01*
X1105476Y981524D01*
X1106931Y983421D01*
X1107846Y985630D01*
X1108102Y987574D01*
X1143864Y1023336D01*
X1144935Y1024731D01*
X1145608Y1026356D01*
X1145838Y1028100D01*
Y1028707D01*
X1148378Y1030824D01*
X1149700Y1030650D01*
X1152984Y1031082D01*
X1156044Y1032350D01*
X1158672Y1034366D01*
X1160689Y1036994D01*
X1161956Y1040054D01*
X1162389Y1043338D01*
X1161956Y1046622D01*
X1160689Y1049683D01*
X1158672Y1052311D01*
X1156044Y1054327D01*
X1152984Y1055595D01*
X1150096Y1055975D01*
X1149416Y1057074D01*
X1149029Y1058501D01*
X1189426Y1098898D01*
X1191370Y1099154D01*
X1193579Y1100069D01*
X1195476Y1101524D01*
X1196931Y1103421D01*
X1197846Y1105630D01*
X1198158Y1108000D01*
X1197846Y1110370D01*
X1196931Y1112579D01*
X1195476Y1114476D01*
X1193579Y1115931D01*
X1191370Y1116846D01*
X1189000Y1117158D01*
X1186630Y1116846D01*
X1184421Y1115931D01*
X1182524Y1114476D01*
X1181069Y1112579D01*
X1180154Y1110370D01*
X1179898Y1108426D01*
X1134336Y1062864D01*
X1133265Y1061469D01*
X1132592Y1059844D01*
X1132362Y1058100D01*
Y1055928D01*
X1129822Y1054668D01*
X1127584Y1055595D01*
X1124300Y1056027D01*
X1121016Y1055595D01*
X1117956Y1054327D01*
X1115328Y1052311D01*
X1113311Y1049683D01*
X1112975Y1048870D01*
X1110225D01*
X1109889Y1049683D01*
X1107872Y1052311D01*
X1105244Y1054327D01*
X1102184Y1055595D01*
X1099119Y1055998D01*
X1098673Y1056643D01*
X1097999Y1058470D01*
X1138426Y1098898D01*
X1140370Y1099154D01*
X1142579Y1100069D01*
X1144476Y1101524D01*
X1145931Y1103421D01*
X1146846Y1105630D01*
X1147158Y1108000D01*
X1146846Y1110370D01*
X1145931Y1112579D01*
X1144476Y1114476D01*
X1142579Y1115931D01*
X1140370Y1116846D01*
X1138000Y1117158D01*
X1135630Y1116846D01*
X1133421Y1115931D01*
X1131524Y1114476D01*
X1130069Y1112579D01*
X1129154Y1110370D01*
X1128898Y1108426D01*
X1083536Y1063064D01*
X1082465Y1061669D01*
X1081792Y1060044D01*
X1081562Y1058300D01*
Y1055928D01*
X1079022Y1054668D01*
X1076784Y1055595D01*
X1073500Y1056027D01*
X1070216Y1055595D01*
X1067156Y1054327D01*
X1064528Y1052311D01*
X1062511Y1049683D01*
X1062175Y1048870D01*
X1059425D01*
X1059089Y1049683D01*
X1057072Y1052311D01*
X1054444Y1054327D01*
X1051384Y1055595D01*
X1049026Y1055905D01*
X1047943Y1058414D01*
X1088426Y1098898D01*
X1090370Y1099154D01*
X1092579Y1100069D01*
X1094476Y1101524D01*
X1095931Y1103421D01*
X1096846Y1105630D01*
X1097158Y1108000D01*
X1096846Y1110370D01*
X1095931Y1112579D01*
X1094476Y1114476D01*
X1092579Y1115931D01*
X1090370Y1116846D01*
X1088000Y1117158D01*
X1085630Y1116846D01*
X1083421Y1115931D01*
X1081524Y1114476D01*
X1080069Y1112579D01*
X1079154Y1110370D01*
X1078898Y1108426D01*
X1032736Y1062264D01*
X1031665Y1060869D01*
X1030992Y1059244D01*
X1030762Y1057500D01*
Y1055928D01*
X1028222Y1054668D01*
X1025984Y1055595D01*
X1022700Y1056027D01*
X1019416Y1055595D01*
X1016356Y1054327D01*
X1013728Y1052311D01*
X1011711Y1049683D01*
X1011375Y1048870D01*
X1008625D01*
X1008289Y1049683D01*
X1006272Y1052311D01*
X1003644Y1054327D01*
X1000692Y1055550D01*
X1000556Y1055927D01*
X1000377Y1058067D01*
X1000391Y1058182D01*
X1001764Y1059236D01*
X1041426Y1098898D01*
X1043370Y1099154D01*
X1045579Y1100069D01*
X1047476Y1101524D01*
X1048931Y1103421D01*
X1049846Y1105630D01*
X1050158Y1108000D01*
X1049846Y1110370D01*
X1048931Y1112579D01*
X1047476Y1114476D01*
X1045579Y1115931D01*
X1043370Y1116846D01*
X1041000Y1117158D01*
X1038630Y1116846D01*
X1036421Y1115931D01*
X1034524Y1114476D01*
X1033069Y1112579D01*
X1032154Y1110370D01*
X1031898Y1108426D01*
X994209Y1070738D01*
X967585D01*
X966613Y1073084D01*
X992426Y1098898D01*
X994370Y1099154D01*
X996579Y1100069D01*
X998476Y1101524D01*
X999931Y1103421D01*
X1000846Y1105630D01*
X1001158Y1108000D01*
X1000846Y1110370D01*
X999931Y1112579D01*
X998476Y1114476D01*
X996579Y1115931D01*
X994370Y1116846D01*
X992000Y1117158D01*
X989630Y1116846D01*
X987421Y1115931D01*
X985524Y1114476D01*
X984069Y1112579D01*
X983154Y1110370D01*
X982898Y1108426D01*
X952409Y1077938D01*
X922785D01*
X921813Y1080284D01*
X940426Y1098898D01*
X942370Y1099154D01*
X944579Y1100069D01*
X946476Y1101524D01*
X947931Y1103421D01*
X948846Y1105630D01*
X949158Y1108000D01*
X948846Y1110370D01*
X947931Y1112579D01*
X946476Y1114476D01*
X944579Y1115931D01*
X942370Y1116846D01*
X940000Y1117158D01*
X937630Y1116846D01*
X935421Y1115931D01*
X933524Y1114476D01*
X932069Y1112579D01*
X931154Y1110370D01*
X930898Y1108426D01*
X908209Y1085738D01*
X896787D01*
X895112Y1087647D01*
X895158Y1088000D01*
X894846Y1090370D01*
X893931Y1092579D01*
X892738Y1094135D01*
Y1101865D01*
X893931Y1103421D01*
X894846Y1105630D01*
X895158Y1108000D01*
X894846Y1110370D01*
X893931Y1112579D01*
X892476Y1114476D01*
X890579Y1115931D01*
X888370Y1116846D01*
X886000Y1117158D01*
X883630Y1116846D01*
X881421Y1115931D01*
X879524Y1114476D01*
X878069Y1112579D01*
X877154Y1110370D01*
X876842Y1108000D01*
X877154Y1105630D01*
X878069Y1103421D01*
X879262Y1101865D01*
Y1094135D01*
X878069Y1092579D01*
X877154Y1090370D01*
X876842Y1088000D01*
X876888Y1087647D01*
X875213Y1085738D01*
X839549D01*
X837994Y1086931D01*
X835785Y1087846D01*
X833415Y1088158D01*
X831044Y1087846D01*
X828835Y1086931D01*
X826939Y1085476D01*
X825483Y1083579D01*
X824568Y1081370D01*
X824256Y1079000D01*
X823325Y1077938D01*
X817002D01*
X816423Y1078783D01*
X816006Y1080478D01*
X835426Y1099898D01*
X837370Y1100154D01*
X839579Y1101069D01*
X841476Y1102524D01*
X842931Y1104421D01*
X843846Y1106630D01*
X844158Y1109000D01*
X843846Y1111370D01*
X842931Y1113579D01*
X841476Y1115476D01*
X839579Y1116931D01*
X837370Y1117846D01*
X835000Y1118158D01*
D02*
G37*
G36*
X680000Y1101529D02*
X677016Y1101136D01*
X674236Y1099984D01*
X671848Y1098152D01*
X670016Y1095764D01*
X668864Y1092984D01*
X668471Y1090000D01*
X668864Y1087016D01*
X670016Y1084236D01*
X671848Y1081848D01*
X674236Y1080016D01*
X677016Y1078864D01*
X680000Y1078471D01*
X682984Y1078864D01*
X685764Y1080016D01*
X688152Y1081848D01*
X689984Y1084236D01*
X691136Y1087016D01*
X691529Y1090000D01*
X691136Y1092984D01*
X689984Y1095764D01*
X688152Y1098152D01*
X685764Y1099984D01*
X682984Y1101136D01*
X680000Y1101529D01*
D02*
G37*
G36*
X575273Y1173404D02*
X572903Y1173092D01*
X570694Y1172177D01*
X568797Y1170722D01*
X567342Y1168825D01*
X566427Y1166616D01*
X566115Y1164246D01*
X566427Y1161875D01*
X567342Y1159667D01*
X568262Y1158467D01*
Y1088025D01*
X567342Y1086825D01*
X566427Y1084616D01*
X566115Y1082246D01*
X566427Y1079875D01*
X567342Y1077667D01*
X568797Y1075770D01*
X570694Y1074314D01*
X572202Y1073690D01*
X571697Y1071150D01*
X568456D01*
X566900Y1072343D01*
X564691Y1073258D01*
X562321Y1073570D01*
X559950Y1073258D01*
X557742Y1072343D01*
X555845Y1070888D01*
X554389Y1068991D01*
X553475Y1066782D01*
X553162Y1064412D01*
X553475Y1062042D01*
X554389Y1059833D01*
X555845Y1057936D01*
X557742Y1056481D01*
X559950Y1055566D01*
X562321Y1055254D01*
X564691Y1055566D01*
X566900Y1056481D01*
X568456Y1057674D01*
X608391D01*
X610135Y1057904D01*
X611759Y1058577D01*
X613155Y1059648D01*
X620281Y1066774D01*
X649845D01*
X650162Y1066412D01*
X650474Y1064042D01*
X651389Y1061833D01*
X652845Y1059936D01*
X654742Y1058481D01*
X656950Y1057566D01*
X658895Y1057310D01*
X683671Y1032534D01*
X683394Y1030431D01*
X683706Y1028060D01*
X684621Y1025851D01*
X686076Y1023955D01*
X687973Y1022499D01*
X690182Y1021584D01*
X692552Y1021272D01*
X694922Y1021584D01*
X697131Y1022499D01*
X699028Y1023955D01*
X700483Y1025851D01*
X701097Y1027332D01*
X701552Y1027272D01*
X703923Y1027584D01*
X706131Y1028499D01*
X708028Y1029955D01*
X709483Y1031851D01*
X710398Y1034060D01*
X710711Y1036431D01*
X710398Y1038801D01*
X709483Y1041010D01*
X708028Y1042906D01*
X706131Y1044362D01*
X703923Y1045277D01*
X701552Y1045589D01*
X699927Y1045375D01*
X667026Y1078276D01*
X665630Y1079347D01*
X664006Y1080020D01*
X662262Y1080250D01*
X617491D01*
X615747Y1080020D01*
X614122Y1079347D01*
X612727Y1078276D01*
X605600Y1071150D01*
X578849D01*
X578344Y1073690D01*
X579852Y1074314D01*
X581749Y1075770D01*
X583204Y1077667D01*
X584119Y1079875D01*
X584431Y1082246D01*
X584119Y1084616D01*
X583204Y1086825D01*
X581749Y1088722D01*
X581738Y1088730D01*
Y1157761D01*
X581749Y1157770D01*
X583204Y1159667D01*
X584119Y1161875D01*
X584431Y1164246D01*
X584119Y1166616D01*
X583204Y1168825D01*
X581749Y1170722D01*
X579852Y1172177D01*
X577643Y1173092D01*
X575273Y1173404D01*
D02*
G37*
G36*
X179320Y1081050D02*
X138680D01*
Y1042950D01*
X179320D01*
Y1081050D01*
D02*
G37*
G36*
X379980Y1063750D02*
X357220D01*
Y1040990D01*
X379980D01*
Y1063750D01*
D02*
G37*
G36*
X444800Y1063848D02*
X441829Y1063457D01*
X439061Y1062310D01*
X436684Y1060486D01*
X434860Y1058109D01*
X433713Y1055341D01*
X433322Y1052370D01*
X433713Y1049399D01*
X434860Y1046631D01*
X436684Y1044254D01*
X439061Y1042430D01*
X441829Y1041283D01*
X444800Y1040892D01*
X447771Y1041283D01*
X450539Y1042430D01*
X452916Y1044254D01*
X454740Y1046631D01*
X455887Y1049399D01*
X456278Y1052370D01*
X455887Y1055341D01*
X454740Y1058109D01*
X452916Y1060486D01*
X450539Y1062310D01*
X447771Y1063457D01*
X444800Y1063848D01*
D02*
G37*
G36*
X1288021Y1043870D02*
X1285650Y1043558D01*
X1283442Y1042643D01*
X1281545Y1041188D01*
X1280089Y1039291D01*
X1279174Y1037082D01*
X1278862Y1034712D01*
X1278866Y1034685D01*
X1252635Y1008454D01*
X1213215D01*
X1213214Y1008454D01*
X1210745Y1007963D01*
X1210702Y1007934D01*
X1209000Y1008158D01*
X1206630Y1007846D01*
X1204421Y1006931D01*
X1202524Y1005476D01*
X1201069Y1003579D01*
X1200154Y1001370D01*
X1199842Y999000D01*
X1200154Y996630D01*
X1201069Y994421D01*
X1202524Y992476D01*
X1201069Y990579D01*
X1200154Y988370D01*
X1199842Y986000D01*
X1200154Y983630D01*
X1201069Y981421D01*
X1202159Y980000D01*
X1201069Y978579D01*
X1200154Y976370D01*
X1199842Y974000D01*
X1200154Y971630D01*
X1201069Y969421D01*
X1202524Y967476D01*
X1201069Y965579D01*
X1200154Y963370D01*
X1199842Y961000D01*
X1200154Y958630D01*
X1201069Y956421D01*
X1202524Y954524D01*
X1204421Y953069D01*
X1206630Y952154D01*
X1209000Y951842D01*
X1211370Y952154D01*
X1213579Y953069D01*
X1215476Y954524D01*
X1215493Y954546D01*
X1241327D01*
X1276417Y919456D01*
Y850102D01*
X1276417Y850102D01*
X1276908Y847632D01*
X1278307Y845538D01*
X1279286Y844559D01*
X1279282Y844532D01*
X1279594Y842162D01*
X1280509Y839953D01*
X1281965Y838056D01*
X1283862Y836601D01*
X1286070Y835686D01*
X1288441Y835374D01*
X1290811Y835686D01*
X1293020Y836601D01*
X1294917Y838056D01*
X1296372Y839953D01*
X1297287Y842162D01*
X1297599Y844532D01*
X1297287Y846902D01*
X1296372Y849111D01*
X1294917Y851008D01*
X1293020Y852463D01*
X1290811Y853378D01*
X1289325Y853574D01*
Y898294D01*
X1289621Y898554D01*
X1291991Y898866D01*
X1294200Y899781D01*
X1296097Y901236D01*
X1297552Y903133D01*
X1298467Y905342D01*
X1298779Y907712D01*
X1298467Y910082D01*
X1297552Y912291D01*
X1296097Y914188D01*
X1296075Y914205D01*
Y936379D01*
X1296075Y936379D01*
X1295583Y938849D01*
X1294184Y940943D01*
X1294184Y940943D01*
X1272716Y962411D01*
X1273688Y964758D01*
X1282028D01*
X1282045Y964736D01*
X1283942Y963281D01*
X1286150Y962366D01*
X1288521Y962054D01*
X1290891Y962366D01*
X1293100Y963281D01*
X1294997Y964736D01*
X1296452Y966633D01*
X1297367Y968842D01*
X1297679Y971212D01*
X1297367Y973582D01*
X1296452Y975791D01*
X1294997Y977688D01*
X1293100Y979143D01*
X1290891Y980058D01*
X1288521Y980370D01*
X1286150Y980058D01*
X1283942Y979143D01*
X1282045Y977688D01*
X1282028Y977666D01*
X1271138D01*
X1258240Y990564D01*
X1256146Y991963D01*
X1253676Y992454D01*
X1253676Y992454D01*
X1220585D01*
X1220492Y992505D01*
X1219272Y994994D01*
X1219700Y995546D01*
X1255309D01*
X1255309Y995546D01*
X1257779Y996037D01*
X1259873Y997436D01*
X1287993Y1025557D01*
X1288021Y1025554D01*
X1290391Y1025866D01*
X1292600Y1026781D01*
X1294497Y1028236D01*
X1295952Y1030133D01*
X1296867Y1032342D01*
X1297179Y1034712D01*
X1296867Y1037082D01*
X1295952Y1039291D01*
X1294497Y1041188D01*
X1292600Y1042643D01*
X1290391Y1043558D01*
X1288021Y1043870D01*
D02*
G37*
G36*
X160270Y1030342D02*
X157730D01*
X153996Y1029974D01*
X150405Y1028885D01*
X147095Y1027116D01*
X144194Y1024736D01*
X141814Y1021835D01*
X140045Y1018525D01*
X138956Y1014934D01*
X138588Y1011200D01*
X138956Y1007466D01*
X140045Y1003875D01*
X141814Y1000565D01*
X144194Y997664D01*
X147095Y995284D01*
X150405Y993515D01*
X153996Y992426D01*
X157730Y992058D01*
X160270D01*
X164004Y992426D01*
X167595Y993515D01*
X170905Y995284D01*
X173806Y997664D01*
X176186Y1000565D01*
X177955Y1003875D01*
X179044Y1007466D01*
X179412Y1011200D01*
X179044Y1014934D01*
X177955Y1018525D01*
X176186Y1021835D01*
X173806Y1024736D01*
X170905Y1027116D01*
X167595Y1028885D01*
X164004Y1029974D01*
X160270Y1030342D01*
D02*
G37*
G36*
X379980Y1006600D02*
X357220D01*
Y983840D01*
X379980D01*
Y1006600D01*
D02*
G37*
G36*
X432157Y1019765D02*
X429787Y1019453D01*
X427578Y1018538D01*
X425681Y1017083D01*
X424226Y1015186D01*
X423311Y1012977D01*
X422999Y1010607D01*
X423311Y1008237D01*
X424226Y1006028D01*
X425681Y1004131D01*
X427578Y1002676D01*
X429787Y1001761D01*
X432157Y1001449D01*
X432322Y1001470D01*
X434108Y999143D01*
X433713Y998191D01*
X433322Y995220D01*
X433713Y992249D01*
X434860Y989481D01*
X436684Y987104D01*
X439061Y985280D01*
X441829Y984133D01*
X444800Y983742D01*
X447771Y984133D01*
X450539Y985280D01*
X452916Y987104D01*
X454740Y989481D01*
X455887Y992249D01*
X456278Y995220D01*
X455887Y998191D01*
X454740Y1000959D01*
X452916Y1003336D01*
X450539Y1005160D01*
X447771Y1006307D01*
X444800Y1006698D01*
X443018Y1006464D01*
X441862Y1007481D01*
X441119Y1008469D01*
X441058Y1008654D01*
X441315Y1010607D01*
X441003Y1012977D01*
X440089Y1015186D01*
X438633Y1017083D01*
X436736Y1018538D01*
X434528Y1019453D01*
X432157Y1019765D01*
D02*
G37*
G36*
X1477720Y989232D02*
X1475180D01*
X1471445Y988864D01*
X1467855Y987775D01*
X1464545Y986006D01*
X1461644Y983626D01*
X1459264Y980725D01*
X1457495Y977415D01*
X1456406Y973824D01*
X1456038Y970090D01*
X1456406Y966356D01*
X1457495Y962765D01*
X1459264Y959455D01*
X1461644Y956554D01*
X1464545Y954174D01*
X1467855Y952405D01*
X1471445Y951316D01*
X1475180Y950948D01*
X1477720D01*
X1481454Y951316D01*
X1485045Y952405D01*
X1488355Y954174D01*
X1491255Y956554D01*
X1493636Y959455D01*
X1495405Y962765D01*
X1496494Y966356D01*
X1496862Y970090D01*
X1496494Y973824D01*
X1495405Y977415D01*
X1493636Y980725D01*
X1491255Y983626D01*
X1488355Y986006D01*
X1485045Y987775D01*
X1481454Y988864D01*
X1477720Y989232D01*
D02*
G37*
G36*
X160270Y979542D02*
X157730D01*
X153996Y979174D01*
X150405Y978085D01*
X147095Y976316D01*
X144194Y973936D01*
X141814Y971035D01*
X140045Y967725D01*
X138956Y964135D01*
X138588Y960400D01*
X138956Y956665D01*
X140045Y953075D01*
X141814Y949765D01*
X144194Y946864D01*
X147095Y944484D01*
X150405Y942715D01*
X153996Y941626D01*
X157730Y941258D01*
X160270D01*
X164004Y941626D01*
X167595Y942715D01*
X170905Y944484D01*
X173806Y946864D01*
X176186Y949765D01*
X177955Y953075D01*
X179044Y956665D01*
X179412Y960400D01*
X179044Y964135D01*
X177955Y967725D01*
X176186Y971035D01*
X173806Y973936D01*
X170905Y976316D01*
X167595Y978085D01*
X164004Y979174D01*
X160270Y979542D01*
D02*
G37*
G36*
X379980Y949450D02*
X357220D01*
Y926690D01*
X379980D01*
Y949450D01*
D02*
G37*
G36*
X444800Y949548D02*
X441829Y949157D01*
X439061Y948010D01*
X436684Y946186D01*
X434860Y943809D01*
X433713Y941041D01*
X433322Y938070D01*
X433713Y935099D01*
X434860Y932331D01*
X436684Y929954D01*
X439061Y928130D01*
X441829Y926983D01*
X444800Y926592D01*
X447771Y926983D01*
X450539Y928130D01*
X452916Y929954D01*
X454740Y932331D01*
X455887Y935099D01*
X456278Y938070D01*
X455887Y941041D01*
X454740Y943809D01*
X452916Y946186D01*
X450539Y948010D01*
X447771Y949157D01*
X444800Y949548D01*
D02*
G37*
G36*
X1477720Y938432D02*
X1475180D01*
X1471445Y938064D01*
X1467855Y936975D01*
X1464545Y935206D01*
X1461644Y932826D01*
X1459264Y929925D01*
X1457495Y926615D01*
X1456406Y923025D01*
X1456038Y919290D01*
X1456406Y915555D01*
X1457495Y911965D01*
X1459264Y908655D01*
X1461644Y905754D01*
X1464545Y903374D01*
X1467855Y901605D01*
X1471445Y900516D01*
X1475180Y900148D01*
X1477720D01*
X1481454Y900516D01*
X1485045Y901605D01*
X1488355Y903374D01*
X1491255Y905754D01*
X1493636Y908655D01*
X1495405Y911965D01*
X1496494Y915555D01*
X1496862Y919290D01*
X1496494Y923025D01*
X1495405Y926615D01*
X1493636Y929925D01*
X1491255Y932826D01*
X1488355Y935206D01*
X1485045Y936975D01*
X1481454Y938064D01*
X1477720Y938432D01*
D02*
G37*
G36*
X232420Y1144864D02*
X229280Y1144450D01*
X226353Y1143238D01*
X223840Y1141310D01*
X221912Y1138797D01*
X220700Y1135870D01*
X220286Y1132730D01*
X220700Y1129589D01*
X221912Y1126663D01*
X223840Y1124150D01*
X226353Y1122222D01*
X228344Y1121397D01*
Y1118663D01*
X226353Y1117838D01*
X223840Y1115910D01*
X221912Y1113397D01*
X220700Y1110470D01*
X220286Y1107330D01*
X220700Y1104190D01*
X221912Y1101263D01*
X223840Y1098750D01*
X226353Y1096822D01*
X228344Y1095997D01*
Y1093263D01*
X226353Y1092438D01*
X223840Y1090510D01*
X221912Y1087997D01*
X220700Y1085070D01*
X220286Y1081930D01*
X220700Y1078790D01*
X221912Y1075863D01*
X223840Y1073350D01*
X226353Y1071422D01*
X228344Y1070597D01*
Y1067863D01*
X226353Y1067038D01*
X223840Y1065110D01*
X221912Y1062597D01*
X220700Y1059670D01*
X220286Y1056530D01*
X220700Y1053390D01*
X221912Y1050463D01*
X223840Y1047950D01*
X226353Y1046022D01*
X228344Y1045197D01*
Y1042463D01*
X226353Y1041638D01*
X223840Y1039710D01*
X221912Y1037197D01*
X220700Y1034270D01*
X220286Y1031130D01*
X220700Y1027990D01*
X221912Y1025063D01*
X223840Y1022550D01*
X226353Y1020622D01*
X228344Y1019797D01*
Y1017063D01*
X226353Y1016238D01*
X223840Y1014310D01*
X221912Y1011797D01*
X220700Y1008870D01*
X220286Y1005730D01*
X220700Y1002589D01*
X221912Y999663D01*
X223840Y997150D01*
X226353Y995222D01*
X228344Y994397D01*
Y991663D01*
X226353Y990838D01*
X223840Y988910D01*
X221912Y986397D01*
X220700Y983470D01*
X220286Y980330D01*
X220700Y977189D01*
X221912Y974263D01*
X223840Y971750D01*
X226353Y969822D01*
X228344Y968997D01*
Y966263D01*
X226353Y965438D01*
X223840Y963510D01*
X221912Y960997D01*
X220700Y958070D01*
X220286Y954930D01*
X220700Y951789D01*
X221912Y948863D01*
X223840Y946350D01*
X226353Y944422D01*
X228344Y943597D01*
Y940863D01*
X226353Y940038D01*
X223840Y938110D01*
X221912Y935597D01*
X220700Y932670D01*
X220286Y929530D01*
X220700Y926389D01*
X221912Y923463D01*
X223840Y920950D01*
X226353Y919022D01*
X228344Y918197D01*
Y915463D01*
X226353Y914638D01*
X223840Y912710D01*
X221912Y910197D01*
X220700Y907270D01*
X220286Y904130D01*
X220700Y900990D01*
X221912Y898063D01*
X223840Y895550D01*
X226353Y893622D01*
X229280Y892410D01*
X232420Y891996D01*
X235560Y892410D01*
X238487Y893622D01*
X241000Y895550D01*
X242928Y898063D01*
X244140Y900990D01*
X244554Y904130D01*
X244140Y907270D01*
X242928Y910197D01*
X241000Y912710D01*
X238487Y914638D01*
X236496Y915463D01*
Y918197D01*
X238487Y919022D01*
X241000Y920950D01*
X242928Y923463D01*
X244140Y926389D01*
X244554Y929530D01*
X244140Y932670D01*
X242928Y935597D01*
X241000Y938110D01*
X238487Y940038D01*
X236496Y940863D01*
Y943597D01*
X238487Y944422D01*
X241000Y946350D01*
X242928Y948863D01*
X244140Y951789D01*
X244554Y954930D01*
X244140Y958070D01*
X242928Y960997D01*
X241000Y963510D01*
X238487Y965438D01*
X236496Y966263D01*
Y968997D01*
X238487Y969822D01*
X241000Y971750D01*
X242928Y974263D01*
X244140Y977189D01*
X244554Y980330D01*
X244140Y983470D01*
X242928Y986397D01*
X241000Y988910D01*
X238487Y990838D01*
X236496Y991663D01*
Y994397D01*
X238487Y995222D01*
X241000Y997150D01*
X242928Y999663D01*
X244140Y1002589D01*
X244554Y1005730D01*
X244140Y1008870D01*
X242928Y1011797D01*
X241000Y1014310D01*
X238487Y1016238D01*
X236496Y1017063D01*
Y1019797D01*
X238487Y1020622D01*
X241000Y1022550D01*
X242928Y1025063D01*
X244140Y1027990D01*
X244554Y1031130D01*
X244140Y1034270D01*
X242928Y1037197D01*
X241000Y1039710D01*
X238487Y1041638D01*
X236496Y1042463D01*
Y1045197D01*
X238487Y1046022D01*
X241000Y1047950D01*
X242928Y1050463D01*
X244140Y1053390D01*
X244554Y1056530D01*
X244140Y1059670D01*
X242928Y1062597D01*
X241000Y1065110D01*
X238487Y1067038D01*
X236496Y1067863D01*
Y1070597D01*
X238487Y1071422D01*
X241000Y1073350D01*
X242928Y1075863D01*
X244140Y1078790D01*
X244554Y1081930D01*
X244140Y1085070D01*
X242928Y1087997D01*
X241000Y1090510D01*
X238487Y1092438D01*
X236496Y1093263D01*
Y1095997D01*
X238487Y1096822D01*
X241000Y1098750D01*
X242928Y1101263D01*
X244140Y1104190D01*
X244554Y1107330D01*
X244140Y1110470D01*
X242928Y1113397D01*
X241000Y1115910D01*
X238487Y1117838D01*
X236496Y1118663D01*
Y1121397D01*
X238487Y1122222D01*
X241000Y1124150D01*
X242928Y1126663D01*
X244140Y1129589D01*
X244554Y1132730D01*
X244140Y1135870D01*
X242928Y1138797D01*
X241000Y1141310D01*
X238487Y1143238D01*
X235560Y1144450D01*
X232420Y1144864D01*
D02*
G37*
G36*
X160270Y928742D02*
X157730D01*
X153996Y928374D01*
X150405Y927285D01*
X147095Y925516D01*
X144194Y923136D01*
X141814Y920235D01*
X140045Y916925D01*
X138956Y913335D01*
X138588Y909600D01*
X138956Y905865D01*
X140045Y902275D01*
X141814Y898965D01*
X144194Y896065D01*
X147095Y893684D01*
X150405Y891915D01*
X153996Y890826D01*
X157730Y890458D01*
X160270D01*
X164004Y890826D01*
X167595Y891915D01*
X170905Y893684D01*
X173806Y896065D01*
X176186Y898965D01*
X177955Y902275D01*
X179044Y905865D01*
X179412Y909600D01*
X179044Y913335D01*
X177955Y916925D01*
X176186Y920235D01*
X173806Y923136D01*
X170905Y925516D01*
X167595Y927285D01*
X164004Y928374D01*
X160270Y928742D01*
D02*
G37*
G36*
X427273Y905404D02*
X424903Y905092D01*
X422694Y904177D01*
X420797Y902722D01*
X419342Y900825D01*
X418427Y898616D01*
X418115Y896246D01*
X418427Y893875D01*
X419342Y891667D01*
X420797Y889770D01*
X422694Y888314D01*
X424903Y887400D01*
X427273Y887087D01*
X429643Y887400D01*
X431852Y888314D01*
X433749Y889770D01*
X435204Y891667D01*
X436119Y893875D01*
X436431Y896246D01*
X436119Y898616D01*
X435204Y900825D01*
X433749Y902722D01*
X431852Y904177D01*
X429643Y905092D01*
X427273Y905404D01*
D02*
G37*
G36*
X379980Y892300D02*
X357220D01*
Y869540D01*
X379980D01*
Y892300D01*
D02*
G37*
G36*
X444800Y892398D02*
X441829Y892007D01*
X439061Y890860D01*
X436684Y889036D01*
X434860Y886659D01*
X433713Y883891D01*
X433322Y880920D01*
X433713Y877949D01*
X434860Y875181D01*
X436684Y872804D01*
X439061Y870980D01*
X441829Y869833D01*
X444800Y869442D01*
X447771Y869833D01*
X450539Y870980D01*
X452916Y872804D01*
X454740Y875181D01*
X455887Y877949D01*
X456278Y880920D01*
X455887Y883891D01*
X454740Y886659D01*
X452916Y889036D01*
X450539Y890860D01*
X447771Y892007D01*
X444800Y892398D01*
D02*
G37*
G36*
X1026400Y887193D02*
X1022985Y886743D01*
X1019804Y885425D01*
X1017071Y883329D01*
X1014975Y880596D01*
X1013657Y877415D01*
X1013207Y874000D01*
Y872000D01*
X1013657Y868585D01*
X1014975Y865404D01*
X1017071Y862671D01*
X1019804Y860575D01*
X1022985Y859257D01*
X1026400Y858807D01*
X1029815Y859257D01*
X1032996Y860575D01*
X1035729Y862671D01*
X1037825Y865404D01*
X1039143Y868585D01*
X1039593Y872000D01*
Y874000D01*
X1039143Y877415D01*
X1037825Y880596D01*
X1035729Y883329D01*
X1032996Y885425D01*
X1029815Y886743D01*
X1026400Y887193D01*
D02*
G37*
G36*
X1477720Y887632D02*
X1475180D01*
X1471445Y887264D01*
X1467855Y886175D01*
X1464545Y884406D01*
X1461644Y882026D01*
X1459264Y879125D01*
X1457495Y875815D01*
X1456406Y872225D01*
X1456038Y868490D01*
X1456406Y864755D01*
X1457495Y861165D01*
X1459264Y857855D01*
X1461644Y854954D01*
X1464545Y852574D01*
X1467855Y850805D01*
X1471445Y849716D01*
X1475180Y849348D01*
X1477720D01*
X1481454Y849716D01*
X1485045Y850805D01*
X1488355Y852574D01*
X1491255Y854954D01*
X1493636Y857855D01*
X1495405Y861165D01*
X1496494Y864755D01*
X1496862Y868490D01*
X1496494Y872225D01*
X1495405Y875815D01*
X1493636Y879125D01*
X1491255Y882026D01*
X1488355Y884406D01*
X1485045Y886175D01*
X1481454Y887264D01*
X1477720Y887632D01*
D02*
G37*
G36*
X160270Y877942D02*
X157730D01*
X153996Y877574D01*
X150405Y876485D01*
X147095Y874716D01*
X144194Y872336D01*
X141814Y869435D01*
X140045Y866125D01*
X138956Y862534D01*
X138588Y858800D01*
X138956Y855066D01*
X140045Y851475D01*
X141814Y848165D01*
X144194Y845265D01*
X147095Y842884D01*
X150405Y841115D01*
X153996Y840026D01*
X157730Y839658D01*
X160270D01*
X164004Y840026D01*
X167595Y841115D01*
X170905Y842884D01*
X173806Y845265D01*
X176186Y848165D01*
X177955Y851475D01*
X179044Y855066D01*
X179412Y858800D01*
X179044Y862534D01*
X177955Y866125D01*
X176186Y869435D01*
X173806Y872336D01*
X170905Y874716D01*
X167595Y876485D01*
X164004Y877574D01*
X160270Y877942D01*
D02*
G37*
G36*
X379980Y835150D02*
X357220D01*
Y812390D01*
X379980D01*
Y835150D01*
D02*
G37*
G36*
X444800Y835248D02*
X441829Y834857D01*
X439061Y833710D01*
X436684Y831886D01*
X434860Y829509D01*
X433713Y826741D01*
X433322Y823770D01*
X433713Y820799D01*
X434860Y818031D01*
X436684Y815654D01*
X439061Y813830D01*
X441829Y812683D01*
X444800Y812292D01*
X447771Y812683D01*
X450539Y813830D01*
X452916Y815654D01*
X454740Y818031D01*
X455887Y820799D01*
X456278Y823770D01*
X455887Y826741D01*
X454740Y829509D01*
X452916Y831886D01*
X450539Y833710D01*
X447771Y834857D01*
X444800Y835248D01*
D02*
G37*
G36*
X1496770Y836740D02*
X1456130D01*
Y798640D01*
X1496770D01*
Y836740D01*
D02*
G37*
G36*
X160270Y827142D02*
X157730D01*
X153996Y826774D01*
X150405Y825685D01*
X147095Y823916D01*
X144194Y821536D01*
X141814Y818635D01*
X140045Y815325D01*
X138956Y811734D01*
X138588Y808000D01*
X138956Y804266D01*
X140045Y800675D01*
X141814Y797365D01*
X144194Y794464D01*
X147095Y792084D01*
X150405Y790315D01*
X153996Y789226D01*
X157730Y788858D01*
X160270D01*
X164004Y789226D01*
X167595Y790315D01*
X170905Y792084D01*
X173806Y794464D01*
X176186Y797365D01*
X177955Y800675D01*
X179044Y804266D01*
X179412Y808000D01*
X179044Y811734D01*
X177955Y815325D01*
X176186Y818635D01*
X173806Y821536D01*
X170905Y823916D01*
X167595Y825685D01*
X164004Y826774D01*
X160270Y827142D01*
D02*
G37*
G36*
X379980Y778000D02*
X357220D01*
Y755240D01*
X379980D01*
Y778000D01*
D02*
G37*
G36*
X429273Y791404D02*
X426903Y791092D01*
X424694Y790177D01*
X422797Y788722D01*
X421342Y786825D01*
X420427Y784616D01*
X420115Y782246D01*
X420427Y779875D01*
X421342Y777667D01*
X422797Y775770D01*
X424694Y774314D01*
X426903Y773400D01*
X429273Y773087D01*
X431643Y773400D01*
X432842Y773896D01*
X433875Y773109D01*
X434671Y771904D01*
X433713Y769591D01*
X433322Y766620D01*
X433713Y763649D01*
X434860Y760881D01*
X436684Y758504D01*
X439061Y756680D01*
X441829Y755533D01*
X444800Y755142D01*
X447771Y755533D01*
X450539Y756680D01*
X452916Y758504D01*
X454740Y760881D01*
X455887Y763649D01*
X456278Y766620D01*
X455887Y769591D01*
X454740Y772359D01*
X452916Y774736D01*
X450539Y776560D01*
X447771Y777707D01*
X444800Y778098D01*
X441829Y777707D01*
X439585Y776778D01*
X438199Y777752D01*
X437589Y778596D01*
X438119Y779875D01*
X438431Y782246D01*
X438119Y784616D01*
X437204Y786825D01*
X435749Y788722D01*
X433852Y790177D01*
X431643Y791092D01*
X429273Y791404D01*
D02*
G37*
G36*
X1477720Y786032D02*
X1475180D01*
X1471445Y785664D01*
X1467855Y784575D01*
X1464545Y782806D01*
X1461644Y780426D01*
X1459264Y777525D01*
X1457495Y774215D01*
X1456406Y770624D01*
X1456038Y766890D01*
X1456406Y763156D01*
X1457495Y759565D01*
X1459264Y756255D01*
X1461644Y753354D01*
X1464545Y750974D01*
X1467855Y749205D01*
X1471445Y748116D01*
X1475180Y747748D01*
X1477720D01*
X1481454Y748116D01*
X1485045Y749205D01*
X1488355Y750974D01*
X1491255Y753354D01*
X1493636Y756255D01*
X1495405Y759565D01*
X1496494Y763156D01*
X1496862Y766890D01*
X1496494Y770624D01*
X1495405Y774215D01*
X1493636Y777525D01*
X1491255Y780426D01*
X1488355Y782806D01*
X1485045Y784575D01*
X1481454Y785664D01*
X1477720Y786032D01*
D02*
G37*
G36*
X985000Y753158D02*
X982630Y752846D01*
X980421Y751931D01*
X978524Y750476D01*
X977069Y748579D01*
X976154Y746370D01*
X975842Y744000D01*
X976154Y741630D01*
X977069Y739421D01*
X978524Y737524D01*
X980421Y736069D01*
X982630Y735154D01*
X985000Y734842D01*
X987370Y735154D01*
X989579Y736069D01*
X991476Y737524D01*
X992931Y739421D01*
X993846Y741630D01*
X994158Y744000D01*
X993846Y746370D01*
X992931Y748579D01*
X991476Y750476D01*
X989579Y751931D01*
X987370Y752846D01*
X985000Y753158D01*
D02*
G37*
G36*
X1112951Y715622D02*
X1110580Y715310D01*
X1108372Y714395D01*
X1106475Y712939D01*
X1106119Y712476D01*
X1104476D01*
X1102579Y713931D01*
X1100370Y714846D01*
X1098000Y715158D01*
X1095630Y714846D01*
X1093421Y713931D01*
X1091500Y712494D01*
X1089579Y713931D01*
X1087370Y714846D01*
X1085000Y715158D01*
X1082630Y714846D01*
X1080421Y713931D01*
X1078524Y712476D01*
X1078325Y712216D01*
X1077476Y711476D01*
X1075579Y712931D01*
X1073370Y713846D01*
X1071000Y714158D01*
X1068630Y713846D01*
X1066421Y712931D01*
X1064524Y711476D01*
X1063069Y709579D01*
X1062154Y707370D01*
X1061842Y705000D01*
X1062154Y702630D01*
X1063069Y700421D01*
X1064206Y698938D01*
Y686165D01*
X1063845Y685888D01*
X1062389Y683991D01*
X1061475Y681782D01*
X1061162Y679412D01*
X1061475Y677042D01*
X1062389Y674833D01*
X1063845Y672936D01*
X1065742Y671481D01*
X1067950Y670566D01*
X1070321Y670254D01*
X1072691Y670566D01*
X1074900Y671481D01*
X1076700Y672862D01*
X1076824Y672936D01*
X1079818D01*
X1079941Y672862D01*
X1081742Y671481D01*
X1083950Y670566D01*
X1086321Y670254D01*
X1088691Y670566D01*
X1091069Y671421D01*
X1092524Y669524D01*
X1094421Y668069D01*
X1096630Y667154D01*
X1099000Y666842D01*
X1101370Y667154D01*
X1103579Y668069D01*
X1105524Y666524D01*
X1107421Y665069D01*
X1109630Y664154D01*
X1112000Y663842D01*
X1114370Y664154D01*
X1116579Y665069D01*
X1118476Y666524D01*
X1119931Y668421D01*
X1120846Y670630D01*
X1121158Y673000D01*
X1120846Y675370D01*
X1119931Y677579D01*
X1118476Y679476D01*
X1118454Y679493D01*
Y699241D01*
X1119427Y699987D01*
X1120882Y701884D01*
X1121797Y704093D01*
X1122109Y706463D01*
X1121797Y708834D01*
X1120882Y711042D01*
X1119427Y712939D01*
X1117530Y714395D01*
X1115321Y715310D01*
X1112951Y715622D01*
D02*
G37*
G36*
X1033000Y725158D02*
X1030630Y724846D01*
X1028421Y723931D01*
X1026524Y722476D01*
X1025069Y720579D01*
X1024154Y718370D01*
X1023842Y716000D01*
X1024154Y713630D01*
X1025069Y711421D01*
X1026524Y709524D01*
X1028421Y708069D01*
X1030630Y707154D01*
X1033000Y706842D01*
X1035370Y707154D01*
X1037579Y708069D01*
X1039476Y709524D01*
X1040931Y711421D01*
X1041846Y713630D01*
X1042158Y716000D01*
X1041846Y718370D01*
X1040931Y720579D01*
X1039476Y722476D01*
X1037579Y723931D01*
X1035370Y724846D01*
X1033000Y725158D01*
D02*
G37*
G36*
X1477720Y735232D02*
X1475180D01*
X1471445Y734864D01*
X1467855Y733775D01*
X1464545Y732006D01*
X1461644Y729626D01*
X1459264Y726725D01*
X1457495Y723415D01*
X1456406Y719825D01*
X1456038Y716090D01*
X1456406Y712355D01*
X1457495Y708765D01*
X1459264Y705455D01*
X1461644Y702554D01*
X1464545Y700174D01*
X1467855Y698405D01*
X1471445Y697316D01*
X1475180Y696948D01*
X1477720D01*
X1481454Y697316D01*
X1485045Y698405D01*
X1488355Y700174D01*
X1491255Y702554D01*
X1493636Y705455D01*
X1495405Y708765D01*
X1496494Y712355D01*
X1496862Y716090D01*
X1496494Y719825D01*
X1495405Y723415D01*
X1493636Y726725D01*
X1491255Y729626D01*
X1488355Y732006D01*
X1485045Y733775D01*
X1481454Y734864D01*
X1477720Y735232D01*
D02*
G37*
G36*
X179080Y719230D02*
X138440D01*
Y681130D01*
X179080D01*
Y719230D01*
D02*
G37*
G36*
X1477720Y684432D02*
X1475180D01*
X1471445Y684064D01*
X1467855Y682975D01*
X1464545Y681206D01*
X1461644Y678826D01*
X1459264Y675925D01*
X1457495Y672615D01*
X1456406Y669025D01*
X1456038Y665290D01*
X1456406Y661555D01*
X1457495Y657965D01*
X1459264Y654655D01*
X1461644Y651754D01*
X1464545Y649374D01*
X1467855Y647605D01*
X1471445Y646516D01*
X1475180Y646148D01*
X1477720D01*
X1481454Y646516D01*
X1485045Y647605D01*
X1488355Y649374D01*
X1491255Y651754D01*
X1493636Y654655D01*
X1495405Y657965D01*
X1496494Y661555D01*
X1496862Y665290D01*
X1496494Y669025D01*
X1495405Y672615D01*
X1493636Y675925D01*
X1491255Y678826D01*
X1488355Y681206D01*
X1485045Y682975D01*
X1481454Y684064D01*
X1477720Y684432D01*
D02*
G37*
G36*
X160030Y668522D02*
X157490D01*
X153756Y668154D01*
X150165Y667065D01*
X146855Y665296D01*
X143954Y662916D01*
X141574Y660015D01*
X139805Y656705D01*
X138716Y653114D01*
X138348Y649380D01*
X138716Y645646D01*
X139805Y642055D01*
X141574Y638745D01*
X143954Y635844D01*
X146855Y633464D01*
X150165Y631695D01*
X153756Y630606D01*
X157490Y630238D01*
X160030D01*
X163764Y630606D01*
X167355Y631695D01*
X170665Y633464D01*
X173566Y635844D01*
X175946Y638745D01*
X177715Y642055D01*
X178804Y645646D01*
X179172Y649380D01*
X178804Y653114D01*
X177715Y656705D01*
X175946Y660015D01*
X173566Y662916D01*
X170665Y665296D01*
X167355Y667065D01*
X163764Y668154D01*
X160030Y668522D01*
D02*
G37*
G36*
X1477720Y633632D02*
X1475180D01*
X1471445Y633264D01*
X1467855Y632175D01*
X1464545Y630406D01*
X1461644Y628026D01*
X1459264Y625125D01*
X1457495Y621815D01*
X1456406Y618224D01*
X1456038Y614490D01*
X1456406Y610756D01*
X1457495Y607165D01*
X1459264Y603855D01*
X1461644Y600954D01*
X1464545Y598574D01*
X1467855Y596805D01*
X1471445Y595716D01*
X1475180Y595348D01*
X1477720D01*
X1481454Y595716D01*
X1485045Y596805D01*
X1488355Y598574D01*
X1491255Y600954D01*
X1493636Y603855D01*
X1495405Y607165D01*
X1496494Y610756D01*
X1496862Y614490D01*
X1496494Y618224D01*
X1495405Y621815D01*
X1493636Y625125D01*
X1491255Y628026D01*
X1488355Y630406D01*
X1485045Y632175D01*
X1481454Y633264D01*
X1477720Y633632D01*
D02*
G37*
G36*
X160030Y617722D02*
X157490D01*
X153756Y617354D01*
X150165Y616265D01*
X146855Y614496D01*
X143954Y612116D01*
X141574Y609215D01*
X139805Y605905D01*
X138716Y602314D01*
X138348Y598580D01*
X138716Y594846D01*
X139805Y591255D01*
X141574Y587945D01*
X143954Y585044D01*
X146855Y582664D01*
X150165Y580895D01*
X153756Y579806D01*
X157490Y579438D01*
X160030D01*
X163764Y579806D01*
X167355Y580895D01*
X170665Y582664D01*
X173566Y585044D01*
X175946Y587945D01*
X177715Y591255D01*
X178804Y594846D01*
X179172Y598580D01*
X178804Y602314D01*
X177715Y605905D01*
X175946Y609215D01*
X173566Y612116D01*
X170665Y614496D01*
X167355Y616265D01*
X163764Y617354D01*
X160030Y617722D01*
D02*
G37*
G36*
X1477720Y582832D02*
X1475180D01*
X1471445Y582464D01*
X1467855Y581375D01*
X1464545Y579606D01*
X1461644Y577226D01*
X1459264Y574325D01*
X1457495Y571015D01*
X1456406Y567425D01*
X1456038Y563690D01*
X1456406Y559955D01*
X1457495Y556365D01*
X1459264Y553055D01*
X1461644Y550154D01*
X1464545Y547774D01*
X1467855Y546005D01*
X1471445Y544916D01*
X1475180Y544548D01*
X1477720D01*
X1481454Y544916D01*
X1485045Y546005D01*
X1488355Y547774D01*
X1491255Y550154D01*
X1493636Y553055D01*
X1495405Y556365D01*
X1496494Y559955D01*
X1496862Y563690D01*
X1496494Y567425D01*
X1495405Y571015D01*
X1493636Y574325D01*
X1491255Y577226D01*
X1488355Y579606D01*
X1485045Y581375D01*
X1481454Y582464D01*
X1477720Y582832D01*
D02*
G37*
G36*
X160030Y566922D02*
X157490D01*
X153756Y566554D01*
X150165Y565465D01*
X146855Y563696D01*
X143954Y561316D01*
X141574Y558415D01*
X139805Y555105D01*
X138716Y551515D01*
X138348Y547780D01*
X138716Y544045D01*
X139805Y540455D01*
X141574Y537145D01*
X143954Y534244D01*
X146855Y531864D01*
X150165Y530095D01*
X153756Y529006D01*
X157490Y528638D01*
X160030D01*
X163764Y529006D01*
X167355Y530095D01*
X170665Y531864D01*
X173566Y534244D01*
X175946Y537145D01*
X177715Y540455D01*
X178804Y544045D01*
X179172Y547780D01*
X178804Y551515D01*
X177715Y555105D01*
X175946Y558415D01*
X173566Y561316D01*
X170665Y563696D01*
X167355Y565465D01*
X163764Y566554D01*
X160030Y566922D01*
D02*
G37*
G36*
X1496770Y531940D02*
X1456130D01*
Y493840D01*
X1496770D01*
Y531940D01*
D02*
G37*
G36*
X160030Y516122D02*
X157490D01*
X153756Y515754D01*
X150165Y514665D01*
X146855Y512896D01*
X143954Y510516D01*
X141574Y507615D01*
X139805Y504305D01*
X138716Y500714D01*
X138348Y496980D01*
X138716Y493246D01*
X139805Y489655D01*
X141574Y486345D01*
X143954Y483444D01*
X146855Y481064D01*
X150165Y479295D01*
X153756Y478206D01*
X157490Y477838D01*
X160030D01*
X163764Y478206D01*
X167355Y479295D01*
X170665Y481064D01*
X173566Y483444D01*
X175946Y486345D01*
X177715Y489655D01*
X178804Y493246D01*
X179172Y496980D01*
X178804Y500714D01*
X177715Y504305D01*
X175946Y507615D01*
X173566Y510516D01*
X170665Y512896D01*
X167355Y514665D01*
X163764Y515754D01*
X160030Y516122D01*
D02*
G37*
G36*
X780000Y463529D02*
X777016Y463136D01*
X774236Y461984D01*
X771848Y460152D01*
X770016Y457764D01*
X768864Y454984D01*
X768471Y452000D01*
X768864Y449016D01*
X770016Y446236D01*
X771848Y443848D01*
X774236Y442016D01*
X777016Y440864D01*
X780000Y440471D01*
X782984Y440864D01*
X785764Y442016D01*
X788152Y443848D01*
X789984Y446236D01*
X791136Y449016D01*
X791529Y452000D01*
X791136Y454984D01*
X789984Y457764D01*
X788152Y460152D01*
X785764Y461984D01*
X782984Y463136D01*
X780000Y463529D01*
D02*
G37*
G36*
X160030Y465322D02*
X157490D01*
X153756Y464954D01*
X150165Y463865D01*
X146855Y462096D01*
X143954Y459716D01*
X141574Y456815D01*
X139805Y453505D01*
X138716Y449915D01*
X138348Y446180D01*
X138716Y442445D01*
X139805Y438855D01*
X141574Y435545D01*
X143954Y432644D01*
X146855Y430264D01*
X150165Y428495D01*
X153756Y427406D01*
X157490Y427038D01*
X160030D01*
X163764Y427406D01*
X167355Y428495D01*
X170665Y430264D01*
X173566Y432644D01*
X175946Y435545D01*
X177715Y438855D01*
X178804Y442445D01*
X179172Y446180D01*
X178804Y449915D01*
X177715Y453505D01*
X175946Y456815D01*
X173566Y459716D01*
X170665Y462096D01*
X167355Y463865D01*
X163764Y464954D01*
X160030Y465322D01*
D02*
G37*
G36*
X512797Y470905D02*
X509813Y470512D01*
X507033Y469360D01*
X504645Y467528D01*
X502813Y465141D01*
X501661Y462360D01*
X501269Y459376D01*
X501661Y456393D01*
X502813Y453612D01*
X504645Y451224D01*
X507033Y449392D01*
X509813Y448241D01*
X512797Y447848D01*
X515781Y448241D01*
X518562Y449392D01*
X520949Y451224D01*
X522513Y453262D01*
X713209D01*
X716060Y450412D01*
Y442613D01*
X714645Y441528D01*
X712813Y439141D01*
X711662Y436360D01*
X711269Y433376D01*
X711662Y430392D01*
X712813Y427612D01*
X714645Y425224D01*
X717033Y423392D01*
X719813Y422240D01*
X722797Y421848D01*
X725781Y422240D01*
X728562Y423392D01*
X730949Y425224D01*
X732781Y427612D01*
X733933Y430392D01*
X734326Y433376D01*
X733933Y436360D01*
X732781Y439141D01*
X730949Y441528D01*
X729535Y442613D01*
Y453203D01*
X729305Y454947D01*
X728632Y456572D01*
X727561Y457967D01*
X720764Y464764D01*
X719369Y465835D01*
X717744Y466508D01*
X716000Y466738D01*
X521556D01*
X520949Y467528D01*
X518562Y469360D01*
X515781Y470512D01*
X512797Y470905D01*
D02*
G37*
G36*
X502046Y418936D02*
X499675Y418624D01*
X497466Y417709D01*
X495570Y416254D01*
X494114Y414357D01*
X493199Y412148D01*
X492887Y409778D01*
X493199Y407407D01*
X494114Y405199D01*
X495570Y403302D01*
X497466Y401846D01*
X499675Y400931D01*
X501619Y400676D01*
X511059Y391236D01*
X512454Y390165D01*
X514080Y389492D01*
X515823Y389262D01*
X525865D01*
X527421Y388069D01*
X529630Y387154D01*
X532000Y386842D01*
X534370Y387154D01*
X536579Y388069D01*
X538476Y389524D01*
X539931Y391421D01*
X540846Y393630D01*
X541158Y396000D01*
X540846Y398370D01*
X539931Y400579D01*
X538476Y402476D01*
X536579Y403931D01*
X534370Y404846D01*
X532000Y405158D01*
X529630Y404846D01*
X527421Y403931D01*
X525865Y402738D01*
X518614D01*
X511148Y410204D01*
X510892Y412148D01*
X509977Y414357D01*
X508521Y416254D01*
X506625Y417709D01*
X504416Y418624D01*
X502046Y418936D01*
D02*
G37*
G36*
X179080Y414230D02*
X138440D01*
Y376130D01*
X179080D01*
Y414230D01*
D02*
G37*
G36*
X1489000Y408173D02*
X1484280Y407802D01*
X1479676Y406696D01*
X1475302Y404884D01*
X1471265Y402411D01*
X1467664Y399336D01*
X1464590Y395735D01*
X1462116Y391698D01*
X1460304Y387324D01*
X1459198Y382720D01*
X1458827Y378000D01*
X1459198Y373280D01*
X1460304Y368676D01*
X1462116Y364302D01*
X1464590Y360265D01*
X1467664Y356665D01*
X1471265Y353590D01*
X1475302Y351116D01*
X1479676Y349304D01*
X1484280Y348199D01*
X1489000Y347827D01*
X1493720Y348199D01*
X1498324Y349304D01*
X1502698Y351116D01*
X1506735Y353590D01*
X1510336Y356665D01*
X1513410Y360265D01*
X1515884Y364302D01*
X1517696Y368676D01*
X1518802Y373280D01*
X1519173Y378000D01*
X1518802Y382720D01*
X1517696Y387324D01*
X1515884Y391698D01*
X1513410Y395735D01*
X1510336Y399336D01*
X1506735Y402411D01*
X1502698Y404884D01*
X1498324Y406696D01*
X1493720Y407802D01*
X1489000Y408173D01*
D02*
G37*
G36*
X160030Y363522D02*
X157490D01*
X153756Y363154D01*
X150165Y362065D01*
X146855Y360296D01*
X143954Y357915D01*
X141574Y355015D01*
X139805Y351705D01*
X138716Y348114D01*
X138348Y344380D01*
X138716Y340645D01*
X139805Y337055D01*
X141574Y333745D01*
X143954Y330844D01*
X146855Y328464D01*
X150165Y326695D01*
X153756Y325606D01*
X157490Y325238D01*
X160030D01*
X163764Y325606D01*
X167355Y326695D01*
X170665Y328464D01*
X173566Y330844D01*
X175946Y333745D01*
X177715Y337055D01*
X178804Y340645D01*
X179172Y344380D01*
X178804Y348114D01*
X177715Y351705D01*
X175946Y355015D01*
X173566Y357915D01*
X170665Y360296D01*
X167355Y362065D01*
X163764Y363154D01*
X160030Y363522D01*
D02*
G37*
G36*
X498488Y304700D02*
X496118Y304387D01*
X493909Y303473D01*
X492012Y302017D01*
X490557Y300120D01*
X489642Y297912D01*
X489330Y295541D01*
X489642Y293171D01*
X490557Y290962D01*
X492012Y289065D01*
X493909Y287610D01*
X496118Y286695D01*
X498424Y286391D01*
X524846Y259970D01*
X525154Y257630D01*
X526069Y255421D01*
X527524Y253524D01*
X529421Y252069D01*
X531630Y251154D01*
X534000Y250842D01*
X536370Y251154D01*
X538579Y252069D01*
X540476Y253524D01*
X541931Y255421D01*
X542846Y257630D01*
X543101Y259566D01*
X544488Y259383D01*
X546859Y259695D01*
X549067Y260610D01*
X550964Y262065D01*
X552420Y263962D01*
X553335Y266171D01*
X553647Y268541D01*
X553335Y270912D01*
X552420Y273120D01*
X550964Y275017D01*
X549067Y276473D01*
X546859Y277388D01*
X544914Y277644D01*
X528794Y293764D01*
X527398Y294835D01*
X525773Y295508D01*
X524030Y295738D01*
X523234D01*
X522516Y296289D01*
X520307Y297204D01*
X517937Y297516D01*
X515566Y297204D01*
X513358Y296289D01*
X511461Y294833D01*
X511296Y294619D01*
X508762Y294453D01*
X507643Y295572D01*
X507335Y297912D01*
X506420Y300120D01*
X504964Y302017D01*
X503067Y303473D01*
X500859Y304387D01*
X498488Y304700D01*
D02*
G37*
G36*
X644488Y418700D02*
X642118Y418387D01*
X639909Y417473D01*
X638012Y416017D01*
X636557Y414120D01*
X635642Y411912D01*
X635330Y409541D01*
X635642Y407171D01*
X636557Y404962D01*
X637262Y404043D01*
Y251029D01*
X637492Y249286D01*
X638165Y247661D01*
X639236Y246265D01*
X671386Y214115D01*
X671642Y212171D01*
X672557Y209962D01*
X674012Y208065D01*
X675909Y206610D01*
X678118Y205695D01*
X680488Y205383D01*
X682859Y205695D01*
X685067Y206610D01*
X686964Y208065D01*
X688420Y209962D01*
X689334Y212171D01*
X689647Y214541D01*
X689334Y216912D01*
X688420Y219120D01*
X686964Y221017D01*
X685067Y222473D01*
X682859Y223388D01*
X680914Y223643D01*
X650738Y253820D01*
Y402892D01*
X650964Y403065D01*
X652420Y404962D01*
X653335Y407171D01*
X653647Y409541D01*
X653335Y411912D01*
X652420Y414120D01*
X650964Y416017D01*
X649067Y417473D01*
X646859Y418387D01*
X644488Y418700D01*
D02*
G37*
G36*
X475000Y416158D02*
X472630Y415846D01*
X470421Y414931D01*
X468524Y413476D01*
X467069Y411579D01*
X466154Y409370D01*
X465842Y407000D01*
X466154Y404630D01*
X467069Y402421D01*
X467762Y401517D01*
Y219659D01*
X467524Y219476D01*
X466069Y217579D01*
X465154Y215370D01*
X464842Y213000D01*
X465154Y210630D01*
X466069Y208421D01*
X467524Y206524D01*
X469421Y205069D01*
X471630Y204154D01*
X474000Y203842D01*
X476370Y204154D01*
X478579Y205069D01*
X480476Y206524D01*
X481931Y208421D01*
X482846Y210630D01*
X483158Y213000D01*
X482846Y215370D01*
X481931Y217579D01*
X481238Y218483D01*
Y400341D01*
X481476Y400524D01*
X482931Y402421D01*
X483846Y404630D01*
X484158Y407000D01*
X483846Y409370D01*
X482931Y411579D01*
X481476Y413476D01*
X479579Y414931D01*
X477370Y415846D01*
X475000Y416158D01*
D02*
G37*
G36*
X709797Y211535D02*
X707427Y211223D01*
X705218Y210308D01*
X703321Y208852D01*
X701866Y206956D01*
X700951Y204747D01*
X700639Y202376D01*
X700951Y200006D01*
X701866Y197797D01*
X703321Y195900D01*
X705218Y194445D01*
X707427Y193530D01*
X709797Y193218D01*
X712168Y193530D01*
X714377Y194445D01*
X716273Y195900D01*
X718767Y195033D01*
X721848Y191953D01*
X722154Y189630D01*
X723069Y187421D01*
X724524Y185524D01*
X726421Y184069D01*
X728630Y183154D01*
X731000Y182842D01*
X733370Y183154D01*
X735579Y184069D01*
X737476Y185524D01*
X738931Y187421D01*
X739846Y189630D01*
X740158Y192000D01*
X739846Y194370D01*
X738931Y196579D01*
X737476Y198476D01*
X735579Y199931D01*
X733370Y200846D01*
X731047Y201152D01*
X724600Y207600D01*
X722489Y209010D01*
X720000Y209505D01*
X715423D01*
X714377Y210308D01*
X712168Y211223D01*
X709797Y211535D01*
D02*
G37*
G36*
X564114Y436223D02*
X561744Y435911D01*
X559535Y434996D01*
X557638Y433540D01*
X556183Y431643D01*
X555268Y429435D01*
X554956Y427064D01*
X555268Y424694D01*
X556183Y422485D01*
X557638Y420588D01*
X559535Y419133D01*
X561744Y418218D01*
X564114Y417906D01*
X564513Y417958D01*
X576097Y406375D01*
Y220181D01*
X574903Y218626D01*
X573988Y216417D01*
X573676Y214046D01*
X573988Y211676D01*
X574903Y209467D01*
X576358Y207570D01*
X578255Y206115D01*
X580464Y205200D01*
X580786Y205158D01*
X582812Y203837D01*
X582783Y202472D01*
X582639Y201376D01*
X582663Y201192D01*
X582236Y200764D01*
X581165Y199369D01*
X580492Y197744D01*
X580262Y196000D01*
Y187135D01*
X579069Y185579D01*
X578154Y183370D01*
X577842Y181000D01*
X578154Y178630D01*
X579069Y176421D01*
X580524Y174524D01*
X582421Y173069D01*
X584630Y172154D01*
X587000Y171842D01*
X589370Y172154D01*
X591579Y173069D01*
X593476Y174524D01*
X594931Y176421D01*
X595846Y178630D01*
X596158Y181000D01*
X595846Y183370D01*
X594931Y185579D01*
X593738Y187135D01*
Y192473D01*
X594168Y192530D01*
X596376Y193445D01*
X598273Y194900D01*
X599729Y196797D01*
X600644Y199006D01*
X600956Y201376D01*
X600644Y203747D01*
X599729Y205956D01*
X598273Y207852D01*
X596376Y209308D01*
X594168Y210223D01*
X593845Y210265D01*
X591820Y211586D01*
X591848Y212950D01*
X591993Y214046D01*
X591681Y216417D01*
X590766Y218626D01*
X589572Y220181D01*
Y409165D01*
X589572Y409165D01*
X589342Y410909D01*
X588669Y412534D01*
X587599Y413930D01*
X573092Y428437D01*
X572960Y429435D01*
X572046Y431643D01*
X570590Y433540D01*
X568693Y434996D01*
X566484Y435911D01*
X564114Y436223D01*
D02*
G37*
G36*
X501797Y209535D02*
X499427Y209223D01*
X497218Y208308D01*
X495321Y206852D01*
X493866Y204956D01*
X492951Y202747D01*
X492639Y200376D01*
X492951Y198006D01*
X493866Y195797D01*
X495321Y193900D01*
X497218Y192445D01*
X497350Y192390D01*
X498236Y191236D01*
X510236Y179236D01*
X511631Y178165D01*
X513256Y177492D01*
X515000Y177262D01*
X553209D01*
X553898Y176574D01*
X554154Y174630D01*
X555069Y172421D01*
X556524Y170524D01*
X558421Y169069D01*
X560630Y168154D01*
X563000Y167842D01*
X565370Y168154D01*
X567579Y169069D01*
X569476Y170524D01*
X570931Y172421D01*
X571846Y174630D01*
X572158Y177000D01*
X571846Y179370D01*
X570931Y181579D01*
X569476Y183476D01*
X567579Y184931D01*
X565370Y185846D01*
X563426Y186102D01*
X560764Y188764D01*
X559369Y189835D01*
X557744Y190508D01*
X556000Y190738D01*
X517791D01*
X510608Y197920D01*
X510644Y198006D01*
X510956Y200376D01*
X510644Y202747D01*
X509729Y204956D01*
X508273Y206852D01*
X506376Y208308D01*
X504168Y209223D01*
X501797Y209535D01*
D02*
G37*
G36*
X1228650Y128320D02*
X1190550D01*
Y87680D01*
X1228650D01*
Y128320D01*
D02*
G37*
G36*
X923850D02*
X885750D01*
Y87680D01*
X923850D01*
Y128320D01*
D02*
G37*
G36*
X771450D02*
X733350D01*
Y87680D01*
X771450D01*
Y128320D01*
D02*
G37*
G36*
X1463600Y128412D02*
X1459866Y128044D01*
X1456275Y126955D01*
X1452965Y125186D01*
X1450065Y122806D01*
X1447684Y119905D01*
X1445915Y116595D01*
X1444826Y113005D01*
X1444458Y109270D01*
Y106730D01*
X1444826Y102996D01*
X1445915Y99405D01*
X1447684Y96095D01*
X1450065Y93195D01*
X1452965Y90814D01*
X1456275Y89045D01*
X1459866Y87956D01*
X1463600Y87588D01*
X1467334Y87956D01*
X1470925Y89045D01*
X1474235Y90814D01*
X1477136Y93195D01*
X1479516Y96095D01*
X1481285Y99405D01*
X1482374Y102996D01*
X1482742Y106730D01*
Y109270D01*
X1482374Y113005D01*
X1481285Y116595D01*
X1479516Y119905D01*
X1477136Y122806D01*
X1474235Y125186D01*
X1470925Y126955D01*
X1467334Y128044D01*
X1463600Y128412D01*
D02*
G37*
G36*
X1412800D02*
X1409066Y128044D01*
X1405475Y126955D01*
X1402165Y125186D01*
X1399265Y122806D01*
X1396884Y119905D01*
X1395115Y116595D01*
X1394026Y113005D01*
X1393658Y109270D01*
Y106730D01*
X1394026Y102996D01*
X1395115Y99405D01*
X1396884Y96095D01*
X1399265Y93195D01*
X1402165Y90814D01*
X1405475Y89045D01*
X1409066Y87956D01*
X1412800Y87588D01*
X1416534Y87956D01*
X1420125Y89045D01*
X1423435Y90814D01*
X1426336Y93195D01*
X1428716Y96095D01*
X1430485Y99405D01*
X1431574Y102996D01*
X1431942Y106730D01*
Y109270D01*
X1431574Y113005D01*
X1430485Y116595D01*
X1428716Y119905D01*
X1426336Y122806D01*
X1423435Y125186D01*
X1420125Y126955D01*
X1416534Y128044D01*
X1412800Y128412D01*
D02*
G37*
G36*
X1362000D02*
X1358266Y128044D01*
X1354675Y126955D01*
X1351365Y125186D01*
X1348465Y122806D01*
X1346084Y119905D01*
X1344315Y116595D01*
X1343226Y113005D01*
X1342858Y109270D01*
Y106730D01*
X1343226Y102996D01*
X1344315Y99405D01*
X1346084Y96095D01*
X1348465Y93195D01*
X1351365Y90814D01*
X1354675Y89045D01*
X1358266Y87956D01*
X1362000Y87588D01*
X1365735Y87956D01*
X1369325Y89045D01*
X1372635Y90814D01*
X1375536Y93195D01*
X1377916Y96095D01*
X1379685Y99405D01*
X1380774Y102996D01*
X1381142Y106730D01*
Y109270D01*
X1380774Y113005D01*
X1379685Y116595D01*
X1377916Y119905D01*
X1375536Y122806D01*
X1372635Y125186D01*
X1369325Y126955D01*
X1365735Y128044D01*
X1362000Y128412D01*
D02*
G37*
G36*
X1311200D02*
X1307466Y128044D01*
X1303875Y126955D01*
X1300565Y125186D01*
X1297664Y122806D01*
X1295284Y119905D01*
X1293515Y116595D01*
X1292426Y113005D01*
X1292058Y109270D01*
Y106730D01*
X1292426Y102996D01*
X1293515Y99405D01*
X1295284Y96095D01*
X1297664Y93195D01*
X1300565Y90814D01*
X1303875Y89045D01*
X1307466Y87956D01*
X1311200Y87588D01*
X1314935Y87956D01*
X1318525Y89045D01*
X1321835Y90814D01*
X1324736Y93195D01*
X1327116Y96095D01*
X1328885Y99405D01*
X1329974Y102996D01*
X1330342Y106730D01*
Y109270D01*
X1329974Y113005D01*
X1328885Y116595D01*
X1327116Y119905D01*
X1324736Y122806D01*
X1321835Y125186D01*
X1318525Y126955D01*
X1314935Y128044D01*
X1311200Y128412D01*
D02*
G37*
G36*
X1260400D02*
X1256666Y128044D01*
X1253075Y126955D01*
X1249765Y125186D01*
X1246864Y122806D01*
X1244484Y119905D01*
X1242715Y116595D01*
X1241626Y113005D01*
X1241258Y109270D01*
Y106730D01*
X1241626Y102996D01*
X1242715Y99405D01*
X1244484Y96095D01*
X1246864Y93195D01*
X1249765Y90814D01*
X1253075Y89045D01*
X1256666Y87956D01*
X1260400Y87588D01*
X1264135Y87956D01*
X1267725Y89045D01*
X1271035Y90814D01*
X1273936Y93195D01*
X1276316Y96095D01*
X1278085Y99405D01*
X1279174Y102996D01*
X1279542Y106730D01*
Y109270D01*
X1279174Y113005D01*
X1278085Y116595D01*
X1276316Y119905D01*
X1273936Y122806D01*
X1271035Y125186D01*
X1267725Y126955D01*
X1264135Y128044D01*
X1260400Y128412D01*
D02*
G37*
G36*
X1158800D02*
X1155066Y128044D01*
X1151475Y126955D01*
X1148165Y125186D01*
X1145265Y122806D01*
X1142884Y119905D01*
X1141115Y116595D01*
X1140026Y113005D01*
X1139658Y109270D01*
Y106730D01*
X1140026Y102996D01*
X1141115Y99405D01*
X1142884Y96095D01*
X1145265Y93195D01*
X1148165Y90814D01*
X1151475Y89045D01*
X1155066Y87956D01*
X1158800Y87588D01*
X1162534Y87956D01*
X1166125Y89045D01*
X1169435Y90814D01*
X1172336Y93195D01*
X1174716Y96095D01*
X1176485Y99405D01*
X1177574Y102996D01*
X1177942Y106730D01*
Y109270D01*
X1177574Y113005D01*
X1176485Y116595D01*
X1174716Y119905D01*
X1172336Y122806D01*
X1169435Y125186D01*
X1166125Y126955D01*
X1162534Y128044D01*
X1158800Y128412D01*
D02*
G37*
G36*
X1108000D02*
X1104266Y128044D01*
X1100675Y126955D01*
X1097365Y125186D01*
X1094464Y122806D01*
X1092084Y119905D01*
X1090315Y116595D01*
X1089226Y113005D01*
X1088858Y109270D01*
Y106730D01*
X1089226Y102996D01*
X1090315Y99405D01*
X1092084Y96095D01*
X1094464Y93195D01*
X1097365Y90814D01*
X1100675Y89045D01*
X1104266Y87956D01*
X1108000Y87588D01*
X1111734Y87956D01*
X1115325Y89045D01*
X1118635Y90814D01*
X1121536Y93195D01*
X1123916Y96095D01*
X1125685Y99405D01*
X1126774Y102996D01*
X1127142Y106730D01*
Y109270D01*
X1126774Y113005D01*
X1125685Y116595D01*
X1123916Y119905D01*
X1121536Y122806D01*
X1118635Y125186D01*
X1115325Y126955D01*
X1111734Y128044D01*
X1108000Y128412D01*
D02*
G37*
G36*
X1057200D02*
X1053466Y128044D01*
X1049875Y126955D01*
X1046565Y125186D01*
X1043664Y122806D01*
X1041284Y119905D01*
X1039515Y116595D01*
X1038426Y113005D01*
X1038058Y109270D01*
Y106730D01*
X1038426Y102996D01*
X1039515Y99405D01*
X1041284Y96095D01*
X1043664Y93195D01*
X1046565Y90814D01*
X1049875Y89045D01*
X1053466Y87956D01*
X1057200Y87588D01*
X1060935Y87956D01*
X1064525Y89045D01*
X1067835Y90814D01*
X1070736Y93195D01*
X1073116Y96095D01*
X1074885Y99405D01*
X1075974Y102996D01*
X1076342Y106730D01*
Y109270D01*
X1075974Y113005D01*
X1074885Y116595D01*
X1073116Y119905D01*
X1070736Y122806D01*
X1067835Y125186D01*
X1064525Y126955D01*
X1060935Y128044D01*
X1057200Y128412D01*
D02*
G37*
G36*
X1006400D02*
X1002666Y128044D01*
X999075Y126955D01*
X995765Y125186D01*
X992865Y122806D01*
X990484Y119905D01*
X988715Y116595D01*
X987626Y113005D01*
X987258Y109270D01*
Y106730D01*
X987626Y102996D01*
X988715Y99405D01*
X990484Y96095D01*
X992865Y93195D01*
X995765Y90814D01*
X999075Y89045D01*
X1002666Y87956D01*
X1006400Y87588D01*
X1010135Y87956D01*
X1013725Y89045D01*
X1017035Y90814D01*
X1019936Y93195D01*
X1022316Y96095D01*
X1024085Y99405D01*
X1025174Y102996D01*
X1025542Y106730D01*
Y109270D01*
X1025174Y113005D01*
X1024085Y116595D01*
X1022316Y119905D01*
X1019936Y122806D01*
X1017035Y125186D01*
X1013725Y126955D01*
X1010135Y128044D01*
X1006400Y128412D01*
D02*
G37*
G36*
X955600D02*
X951866Y128044D01*
X948275Y126955D01*
X944965Y125186D01*
X942065Y122806D01*
X939684Y119905D01*
X937915Y116595D01*
X936826Y113005D01*
X936458Y109270D01*
Y106730D01*
X936826Y102996D01*
X937915Y99405D01*
X939684Y96095D01*
X942065Y93195D01*
X944965Y90814D01*
X948275Y89045D01*
X951866Y87956D01*
X955600Y87588D01*
X959334Y87956D01*
X962925Y89045D01*
X966235Y90814D01*
X969136Y93195D01*
X971516Y96095D01*
X973285Y99405D01*
X974374Y102996D01*
X974742Y106730D01*
Y109270D01*
X974374Y113005D01*
X973285Y116595D01*
X971516Y119905D01*
X969136Y122806D01*
X966235Y125186D01*
X962925Y126955D01*
X959334Y128044D01*
X955600Y128412D01*
D02*
G37*
G36*
X854000D02*
X850266Y128044D01*
X846675Y126955D01*
X843365Y125186D01*
X840464Y122806D01*
X838084Y119905D01*
X836315Y116595D01*
X835226Y113005D01*
X834858Y109270D01*
Y106730D01*
X835226Y102996D01*
X836315Y99405D01*
X838084Y96095D01*
X840464Y93195D01*
X843365Y90814D01*
X846675Y89045D01*
X850266Y87956D01*
X854000Y87588D01*
X857735Y87956D01*
X861325Y89045D01*
X864635Y90814D01*
X867536Y93195D01*
X869916Y96095D01*
X871685Y99405D01*
X872774Y102996D01*
X873142Y106730D01*
Y109270D01*
X872774Y113005D01*
X871685Y116595D01*
X869916Y119905D01*
X867536Y122806D01*
X864635Y125186D01*
X861325Y126955D01*
X857735Y128044D01*
X854000Y128412D01*
D02*
G37*
G36*
X803200D02*
X799466Y128044D01*
X795875Y126955D01*
X792565Y125186D01*
X789665Y122806D01*
X787284Y119905D01*
X785515Y116595D01*
X784426Y113005D01*
X784058Y109270D01*
Y106730D01*
X784426Y102996D01*
X785515Y99405D01*
X787284Y96095D01*
X789665Y93195D01*
X792565Y90814D01*
X795875Y89045D01*
X799466Y87956D01*
X803200Y87588D01*
X806935Y87956D01*
X810525Y89045D01*
X813835Y90814D01*
X816736Y93195D01*
X819116Y96095D01*
X820885Y99405D01*
X821974Y102996D01*
X822342Y106730D01*
Y109270D01*
X821974Y113005D01*
X820885Y116595D01*
X819116Y119905D01*
X816736Y122806D01*
X813835Y125186D01*
X810525Y126955D01*
X806935Y128044D01*
X803200Y128412D01*
D02*
G37*
G36*
X615000D02*
X611265Y128044D01*
X607675Y126955D01*
X604365Y125186D01*
X601464Y122806D01*
X599084Y119905D01*
X597315Y116595D01*
X596226Y113005D01*
X595858Y109270D01*
Y106730D01*
X596226Y102996D01*
X597315Y99405D01*
X599084Y96095D01*
X601464Y93195D01*
X604365Y90814D01*
X607675Y89045D01*
X611265Y87956D01*
X615000Y87588D01*
X618734Y87956D01*
X622325Y89045D01*
X625635Y90814D01*
X628535Y93195D01*
X630916Y96095D01*
X632685Y99405D01*
X633774Y102996D01*
X634142Y106730D01*
Y109270D01*
X633774Y113005D01*
X632685Y116595D01*
X630916Y119905D01*
X628535Y122806D01*
X625635Y125186D01*
X622325Y126955D01*
X618734Y128044D01*
X615000Y128412D01*
D02*
G37*
G36*
X151000Y127173D02*
X146280Y126802D01*
X141676Y125696D01*
X137302Y123884D01*
X133265Y121411D01*
X129664Y118336D01*
X126589Y114735D01*
X124116Y110698D01*
X122304Y106324D01*
X121199Y101720D01*
X120827Y97000D01*
X121199Y92280D01*
X122304Y87676D01*
X124116Y83302D01*
X126589Y79265D01*
X129664Y75665D01*
X133265Y72590D01*
X137302Y70116D01*
X141676Y68304D01*
X146280Y67199D01*
X151000Y66827D01*
X155720Y67199D01*
X160324Y68304D01*
X164698Y70116D01*
X168735Y72590D01*
X172335Y75665D01*
X175410Y79265D01*
X177884Y83302D01*
X179696Y87676D01*
X180802Y92280D01*
X181173Y97000D01*
X180802Y101720D01*
X179696Y106324D01*
X177884Y110698D01*
X175410Y114735D01*
X172335Y118336D01*
X168735Y121411D01*
X164698Y123884D01*
X160324Y125696D01*
X155720Y126802D01*
X151000Y127173D01*
D02*
G37*
%LPD*%
G36*
X1113311Y1036994D02*
X1115328Y1034366D01*
X1117956Y1032350D01*
X1121016Y1031082D01*
X1124300Y1030650D01*
X1127584Y1031082D01*
X1129822Y1032009D01*
X1130028Y1031919D01*
X1131375Y1029903D01*
X1098574Y997102D01*
X1096630Y996846D01*
X1094421Y995931D01*
X1092524Y994476D01*
X1091069Y992579D01*
X1090154Y990370D01*
X1089842Y988000D01*
X1090154Y985630D01*
X1091069Y983421D01*
X1092524Y981524D01*
X1093083Y981095D01*
X1092701Y978187D01*
X1092556Y978127D01*
X1089928Y976111D01*
X1087911Y973483D01*
X1087575Y972670D01*
X1084825D01*
X1084489Y973483D01*
X1082472Y976111D01*
X1079844Y978127D01*
X1076784Y979395D01*
X1073500Y979827D01*
X1070216Y979395D01*
X1067156Y978127D01*
X1064528Y976111D01*
X1062511Y973483D01*
X1062175Y972670D01*
X1059425D01*
X1059089Y973483D01*
X1057072Y976111D01*
X1054444Y978127D01*
X1054299Y978187D01*
X1053917Y981095D01*
X1054476Y981524D01*
X1055931Y983421D01*
X1056846Y985630D01*
X1057102Y987574D01*
X1093064Y1023536D01*
X1094135Y1024931D01*
X1094808Y1026556D01*
X1095038Y1028300D01*
Y1028707D01*
X1097578Y1030824D01*
X1098900Y1030650D01*
X1102184Y1031082D01*
X1105244Y1032350D01*
X1107872Y1034366D01*
X1109889Y1036994D01*
X1110225Y1037807D01*
X1112975D01*
X1113311Y1036994D01*
D02*
G37*
G36*
X1062511D02*
X1064528Y1034366D01*
X1067156Y1032350D01*
X1070216Y1031082D01*
X1073500Y1030650D01*
X1076784Y1031082D01*
X1078794Y1031915D01*
X1080233Y1029762D01*
X1047574Y997102D01*
X1045630Y996846D01*
X1043421Y995931D01*
X1041524Y994476D01*
X1040069Y992579D01*
X1039154Y990370D01*
X1038842Y988000D01*
X1039154Y985630D01*
X1040069Y983421D01*
X1041524Y981524D01*
X1042153Y981041D01*
X1041771Y978133D01*
X1041756Y978127D01*
X1039128Y976111D01*
X1037111Y973483D01*
X1036775Y972670D01*
X1034025D01*
X1033689Y973483D01*
X1031672Y976111D01*
X1029044Y978127D01*
X1025984Y979395D01*
X1022700Y979827D01*
X1019416Y979395D01*
X1016356Y978127D01*
X1013728Y976111D01*
X1012420Y974406D01*
X1009880Y975268D01*
Y979718D01*
X1008143D01*
X1007966Y979910D01*
X1007039Y982259D01*
X1007931Y983421D01*
X1008846Y985630D01*
X1009102Y987574D01*
X1042264Y1020736D01*
X1043335Y1022131D01*
X1044008Y1023756D01*
X1044238Y1025500D01*
Y1028707D01*
X1046778Y1030824D01*
X1048100Y1030650D01*
X1051384Y1031082D01*
X1054444Y1032350D01*
X1057072Y1034366D01*
X1059089Y1036994D01*
X1059425Y1037807D01*
X1062175D01*
X1062511Y1036994D01*
D02*
G37*
G36*
X835202Y914000D02*
Y904000D01*
X835514Y901630D01*
X836429Y899421D01*
X837884Y897524D01*
X839781Y896069D01*
X841990Y895154D01*
X844360Y894842D01*
X852360D01*
X854730Y895154D01*
X856939Y896069D01*
X858836Y897524D01*
X860291Y899421D01*
X860419Y899728D01*
X863326Y900111D01*
X864431Y898671D01*
X867164Y896575D01*
X870346Y895257D01*
X873760Y894807D01*
X877175Y895257D01*
X880357Y896575D01*
X883089Y898671D01*
X885055Y901234D01*
X886419Y901415D01*
X886501D01*
X887865Y901234D01*
X889831Y898671D01*
X892564Y896575D01*
X895745Y895257D01*
X899160Y894807D01*
X902575Y895257D01*
X903856Y895788D01*
X906396Y894090D01*
Y888009D01*
X903856Y886312D01*
X902815Y886743D01*
X899400Y887193D01*
X895985Y886743D01*
X892804Y885425D01*
X890071Y883329D01*
X888104Y880766D01*
X886741Y880585D01*
X886659D01*
X885295Y880766D01*
X883329Y883329D01*
X880596Y885425D01*
X877415Y886743D01*
X874000Y887193D01*
X870585Y886743D01*
X867404Y885425D01*
X864671Y883329D01*
X863567Y881889D01*
X860659Y882272D01*
X860531Y882579D01*
X859076Y884476D01*
X857179Y885931D01*
X854970Y886846D01*
X852600Y887158D01*
X844600D01*
X842230Y886846D01*
X840021Y885931D01*
X838124Y884476D01*
X836669Y882579D01*
X835754Y880370D01*
X835442Y878000D01*
Y868000D01*
X835754Y865630D01*
X836669Y863421D01*
X838124Y861524D01*
X840021Y860069D01*
X842230Y859154D01*
X844600Y858842D01*
X852600D01*
X854970Y859154D01*
X857179Y860069D01*
X859076Y861524D01*
X860531Y863421D01*
X860659Y863728D01*
X863567Y864111D01*
X864671Y862671D01*
X867404Y860575D01*
X870585Y859257D01*
X874000Y858807D01*
X877415Y859257D01*
X880596Y860575D01*
X883329Y862671D01*
X885295Y865234D01*
X886659Y865415D01*
X886741D01*
X888104Y865234D01*
X890071Y862671D01*
X892804Y860575D01*
X895985Y859257D01*
X899400Y858807D01*
X902495Y859215D01*
X903090Y858589D01*
X903783Y856910D01*
X894027Y847155D01*
X894000Y847158D01*
X891630Y846846D01*
X889421Y845931D01*
X887524Y844476D01*
X886069Y842579D01*
X885154Y840370D01*
X884842Y838000D01*
X885154Y835630D01*
X886069Y833421D01*
X887524Y831524D01*
X889421Y830069D01*
X891630Y829154D01*
X894000Y828842D01*
X895006Y828974D01*
X897546Y827123D01*
Y725673D01*
X884202Y712329D01*
X883773Y712385D01*
X881403Y712073D01*
X879194Y711158D01*
X877297Y709703D01*
X875842Y707806D01*
X874927Y705597D01*
X874615Y703227D01*
X874873Y701266D01*
X874011Y700021D01*
X872932Y699036D01*
X872000Y699158D01*
X869630Y698846D01*
X867421Y697931D01*
X865524Y696476D01*
X864069Y694579D01*
X863154Y692370D01*
X862842Y690000D01*
X863154Y687630D01*
X864069Y685421D01*
X864357Y685045D01*
X863104Y682505D01*
X852939D01*
X852505Y683034D01*
Y709562D01*
X853931Y711421D01*
X854846Y713630D01*
X855158Y716000D01*
X854846Y718370D01*
X853931Y720579D01*
X852476Y722476D01*
X850579Y723931D01*
X848370Y724846D01*
X846000Y725158D01*
X843630Y724846D01*
X841421Y723931D01*
X839524Y722476D01*
X838765Y721487D01*
X837961Y721820D01*
X835591Y722132D01*
X835295Y722392D01*
Y856937D01*
X835295Y856937D01*
X834803Y859407D01*
X833404Y861501D01*
X833404Y861501D01*
X829454Y865452D01*
Y883507D01*
X829476Y883524D01*
X830931Y885421D01*
X831846Y887630D01*
X832158Y890000D01*
X831846Y892370D01*
X830931Y894579D01*
X829476Y896476D01*
X827579Y897931D01*
X825370Y898846D01*
X823000Y899158D01*
X820630Y898846D01*
X818421Y897931D01*
X817629Y897324D01*
X816476Y897476D01*
X814579Y898931D01*
X812370Y899846D01*
X810000Y900158D01*
X807630Y899846D01*
X805421Y898931D01*
X803524Y897476D01*
X802069Y895579D01*
X801154Y893370D01*
X800842Y891000D01*
X801154Y888630D01*
X802069Y886421D01*
X803524Y884524D01*
X803546Y884507D01*
Y863000D01*
X803546Y863000D01*
X804037Y860530D01*
X805436Y858436D01*
X808436Y855436D01*
X808436Y855436D01*
X810530Y854037D01*
X813000Y853546D01*
X815327D01*
X816546Y852327D01*
Y691967D01*
X815630Y691846D01*
X813421Y690931D01*
X811524Y689476D01*
X811133Y689450D01*
X801327Y699256D01*
X801476Y701524D01*
X802931Y703421D01*
X803846Y705630D01*
X804041Y707110D01*
X804370Y707154D01*
X806579Y708069D01*
X808476Y709524D01*
X809931Y711421D01*
X810846Y713630D01*
X811158Y716000D01*
X810846Y718370D01*
X809931Y720579D01*
X808476Y722476D01*
X806579Y723931D01*
X804370Y724846D01*
X802000Y725158D01*
X799630Y724846D01*
X797421Y723931D01*
X796061Y722888D01*
X794391D01*
X749290Y767989D01*
Y775264D01*
X750605Y776006D01*
X751830Y776290D01*
X753421Y775069D01*
X755630Y774154D01*
X758000Y773842D01*
X760370Y774154D01*
X762579Y775069D01*
X764476Y776524D01*
X765931Y778421D01*
X766846Y780630D01*
X767158Y783000D01*
X766846Y785370D01*
X765931Y787579D01*
X764476Y789476D01*
X762579Y790931D01*
X760370Y791846D01*
X758000Y792158D01*
X755630Y791846D01*
X753421Y790931D01*
X751830Y789710D01*
X750605Y789994D01*
X749290Y790736D01*
Y847296D01*
X750483Y848851D01*
X751398Y851060D01*
X751711Y853431D01*
X751398Y855801D01*
X750483Y858010D01*
X749028Y859906D01*
X747131Y861362D01*
X744922Y862277D01*
X742552Y862589D01*
X740182Y862277D01*
X737973Y861362D01*
X736529Y860254D01*
X736028Y860907D01*
X734131Y862362D01*
X731923Y863277D01*
X729552Y863589D01*
X727182Y863277D01*
X724973Y862362D01*
X723076Y860907D01*
X721621Y859010D01*
X720706Y856801D01*
X720394Y854431D01*
X720706Y852060D01*
X721621Y849851D01*
X723076Y847955D01*
X723098Y847938D01*
Y766013D01*
X723098Y766013D01*
X723589Y763543D01*
X724988Y761449D01*
X730652Y755786D01*
X730706Y755655D01*
X731777Y754260D01*
X735833Y750203D01*
X735341Y747103D01*
X734524Y746476D01*
X733069Y744579D01*
X732154Y742370D01*
X731842Y740000D01*
X732154Y737630D01*
X733069Y735421D01*
X734524Y733524D01*
X736421Y732069D01*
X738630Y731154D01*
X740574Y730898D01*
X766620Y704852D01*
X765648Y702505D01*
X761848D01*
X761754Y702600D01*
X759643Y704010D01*
X757154Y704505D01*
X732438D01*
X730579Y705931D01*
X728370Y706846D01*
X726000Y707158D01*
X723630Y706846D01*
X721421Y705931D01*
X719524Y704476D01*
X718069Y702579D01*
X717154Y700370D01*
X716842Y698000D01*
X717154Y695630D01*
X718069Y693421D01*
X719524Y691524D01*
X721421Y690069D01*
X723177Y689341D01*
X722910Y687308D01*
X723076Y686045D01*
X721339Y683505D01*
X715695D01*
X713600Y685600D01*
X711489Y687010D01*
X709000Y687505D01*
X635695D01*
X614600Y708600D01*
X612489Y710010D01*
X610000Y710505D01*
X597438D01*
X595579Y711931D01*
X593370Y712846D01*
X591000Y713158D01*
X588630Y712846D01*
X586790Y712084D01*
X585479Y712598D01*
X584250Y713467D01*
Y839589D01*
X658957Y914296D01*
X834942D01*
X835202Y914000D01*
D02*
G37*
G36*
X732884Y623236D02*
X734279Y622165D01*
X735904Y621492D01*
X737648Y621262D01*
X785744D01*
X786716Y618916D01*
X767178Y599378D01*
X764182Y599974D01*
X763931Y600579D01*
X762476Y602476D01*
X760579Y603931D01*
X758370Y604846D01*
X756000Y605158D01*
X754893Y605013D01*
X754846Y605370D01*
X753931Y607579D01*
X752476Y609476D01*
X750579Y610931D01*
X748370Y611846D01*
X746000Y612158D01*
X743630Y611846D01*
X741421Y610931D01*
X739524Y609476D01*
X738069Y607579D01*
X737154Y605370D01*
X736939Y603738D01*
X662889D01*
X661917Y606084D01*
X683495Y627662D01*
X728457D01*
X732884Y623236D01*
D02*
G37*
G36*
X936890Y603436D02*
X938984Y602037D01*
X941454Y601546D01*
X941454Y601546D01*
X989677D01*
X989843Y599006D01*
X988630Y598846D01*
X986421Y597931D01*
X984524Y596476D01*
X983069Y594579D01*
X982154Y592370D01*
X981842Y590000D01*
X982154Y587630D01*
X983069Y585421D01*
X981760Y582954D01*
X908627D01*
X902450Y589131D01*
X902476Y589524D01*
X903931Y591421D01*
X904846Y593630D01*
X905158Y596000D01*
X904846Y598370D01*
X903931Y600579D01*
X902476Y602476D01*
X900579Y603931D01*
X898370Y604846D01*
X896000Y605158D01*
X895973Y605155D01*
X893454Y607673D01*
Y631507D01*
X893476Y631524D01*
X894931Y633421D01*
X895846Y635630D01*
X896158Y638000D01*
X895846Y640370D01*
X895480Y641255D01*
X897633Y642693D01*
X936890Y603436D01*
D02*
G37*
D11*
X857000Y656000D02*
X858750Y657750D01*
X891704D01*
X1229000Y878250D02*
X1269000Y838250D01*
Y661750D02*
Y838250D01*
X891704Y657750D02*
X941454Y608000D01*
X1215250D01*
X1269000Y661750D01*
X574000Y675000D02*
X577796Y678796D01*
Y842263D01*
X656283Y920750D01*
X855156D01*
X859110Y916796D01*
Y911900D02*
Y916796D01*
Y911900D02*
X862010Y909000D01*
X873760D01*
X1012500Y576500D02*
X1029000Y593000D01*
X905954Y576500D02*
X1012500D01*
X879000Y603454D02*
X905954Y576500D01*
X903676Y571000D02*
X1019000D01*
X868000Y606676D02*
X903676Y571000D01*
X1019000D02*
X1030000Y582000D01*
X859000Y605000D02*
X898500Y565500D01*
X1025500D02*
X1031000Y571000D01*
X898500Y565500D02*
X1025500D01*
X823000Y688000D02*
Y855000D01*
X818000Y860000D02*
X823000Y855000D01*
X818000Y683000D02*
X823000Y688000D01*
X1024382Y532250D02*
X1030684Y538552D01*
X897500Y543500D02*
X908750Y532250D01*
X1024382D01*
X834000Y609512D02*
Y611000D01*
Y609512D02*
X838000Y605512D01*
Y599365D02*
X893865Y543500D01*
X897500D01*
X838000Y599365D02*
Y605512D01*
X868000Y606676D02*
Y646000D01*
X896143Y549000D02*
X1031000D01*
X840000Y620285D02*
X843500Y616786D01*
Y601643D02*
Y616786D01*
X840000Y620285D02*
Y621000D01*
X843500Y601643D02*
X896143Y549000D01*
X778000Y571000D02*
X803948Y596948D01*
X808948D01*
X823000Y611000D01*
X833371Y574629D02*
X937000Y471000D01*
X833371Y574629D02*
Y592881D01*
X937000Y471000D02*
X1120000D01*
X849000Y603921D02*
Y646512D01*
X847000Y648512D02*
X849000Y646512D01*
Y603921D02*
X892921Y560000D01*
X847000Y648512D02*
Y650000D01*
X857000Y643512D02*
Y645000D01*
X859000Y605000D02*
Y641512D01*
X857000Y643512D02*
X859000Y641512D01*
X879000Y603454D02*
Y650000D01*
X816250Y613796D02*
X831454Y629000D01*
X816250Y613250D02*
Y613796D01*
X831454Y629000D02*
X831750D01*
X808114Y605115D02*
X816250Y613250D01*
X802122Y605115D02*
X808114D01*
X781484Y584476D02*
X802122Y605115D01*
X780581Y584476D02*
X781484D01*
X777308Y582692D02*
X778797D01*
X780581Y584476D01*
X887000Y605000D02*
X896000Y596000D01*
X887000Y605000D02*
Y638000D01*
X895811Y485441D02*
X896371Y484881D01*
X818559Y485441D02*
X895811D01*
X818000Y486000D02*
X818559Y485441D01*
X835252Y498000D02*
X897000D01*
X825371Y507881D02*
X835252Y498000D01*
X824376Y601089D02*
X825000D01*
X818000Y594713D02*
X824376Y601089D01*
X818000Y574000D02*
Y594713D01*
X807000Y563000D02*
X818000Y574000D01*
X786000Y563000D02*
X807000D01*
X828841Y683729D02*
X829000Y683570D01*
X828841Y683729D02*
Y856937D01*
X823000Y890000D02*
X823000Y890000D01*
X823000Y862778D02*
Y890000D01*
Y862778D02*
X828841Y856937D01*
X729552Y766013D02*
X736541Y759024D01*
X729552Y766013D02*
Y854431D01*
X908052Y653052D02*
Y658506D01*
X908964Y692111D02*
X909657D01*
X908964Y659418D02*
Y692111D01*
X950207Y732661D02*
Y744073D01*
X908052Y658506D02*
X908964Y659418D01*
X909657Y692111D02*
X950207Y732661D01*
X907000Y652000D02*
X908052Y653052D01*
X1255309Y1002000D02*
X1288021Y1034712D01*
X1213214Y1002000D02*
X1255309D01*
X1210214Y999000D02*
X1213214Y1002000D01*
X1209000Y999000D02*
X1210214D01*
X1070660Y704660D02*
X1071000Y705000D01*
X1070660Y679752D02*
Y704660D01*
X1070321Y679412D02*
X1070660Y679752D01*
X902000Y694000D02*
X940000Y732000D01*
X902000Y662000D02*
Y694000D01*
X1209000Y986000D02*
X1253676D01*
X1268465Y971212D02*
X1288521D01*
X1253676Y986000D02*
X1268465Y971212D01*
X1085660Y680340D02*
Y705340D01*
Y680340D02*
X1086000Y680000D01*
X1085000Y706000D02*
X1085660Y705340D01*
X1282871Y850102D02*
X1288441Y844532D01*
X1209000Y961000D02*
X1244000D01*
X1282871Y850102D02*
Y922129D01*
X1244000Y961000D02*
X1282871Y922129D01*
X1112000Y706000D02*
X1113000Y707000D01*
X1112000Y673000D02*
Y706000D01*
X963850Y873000D02*
X975600D01*
X960950Y867547D02*
Y870100D01*
X933403Y840000D02*
X960950Y867547D01*
Y870100D02*
X963850Y873000D01*
X904000Y834000D02*
X910000Y840000D01*
X933403D01*
X904000Y723000D02*
Y834000D01*
X884227Y703227D02*
X904000Y723000D01*
X883773Y703227D02*
X884227D01*
X922000Y726500D02*
Y746000D01*
X908500Y713000D02*
X922000Y726500D01*
X1289621Y907712D02*
Y936379D01*
X1209000Y974000D02*
X1252000D01*
X1289621Y936379D01*
X1098500Y676500D02*
X1099000Y676000D01*
X1098500Y676500D02*
Y705500D01*
X1098000Y706000D02*
X1098500Y705500D01*
X813000Y860000D02*
X818000D01*
X810000Y863000D02*
X813000Y860000D01*
X810000Y863000D02*
Y891000D01*
X810000Y891000D01*
X892921Y560000D02*
X1031000D01*
X894000Y838000D02*
X912850Y856850D01*
X909000Y927954D02*
Y950000D01*
X912850Y856850D02*
Y924105D01*
X909000Y927954D02*
X912850Y924105D01*
X819000Y941000D02*
Y983686D01*
X807416Y995270D02*
X819000Y983686D01*
X807416Y995270D02*
Y1043338D01*
D62*
X308620Y1081930D02*
D03*
Y1107330D02*
D03*
Y1031130D02*
D03*
Y1056530D02*
D03*
Y1132730D02*
D03*
Y980330D02*
D03*
Y954930D02*
D03*
Y1005730D02*
D03*
Y929530D02*
D03*
X232420Y980330D02*
D03*
Y904130D02*
D03*
Y929530D02*
D03*
Y954930D02*
D03*
Y1005730D02*
D03*
Y1031130D02*
D03*
Y1056530D02*
D03*
Y1081930D02*
D03*
Y1107330D02*
D03*
Y1132730D02*
D03*
D63*
X308620Y904130D02*
D03*
D77*
X575000Y1083000D02*
Y1165000D01*
X515000Y184000D02*
X556000D01*
X563000Y177000D01*
X503000Y196000D02*
X515000Y184000D01*
X517000Y289000D02*
X524030D01*
X793701Y708000D02*
X795000D01*
X789032Y709950D02*
X791751D01*
X793701Y708000D01*
X783982Y715000D02*
X789032Y709950D01*
X780565Y715000D02*
X783982D01*
X736541Y759024D02*
X780565Y715000D01*
X741000Y740000D02*
X777835Y703165D01*
X785835D01*
X742552Y765198D02*
Y853431D01*
Y765198D02*
X791600Y716150D01*
X801850D02*
X802000Y716000D01*
X791600Y716150D02*
X801850D01*
X562321Y1064412D02*
X608391D01*
X617491Y1073512D01*
X662262D01*
X699387Y1036387D01*
X515823Y396000D02*
X532000D01*
X502046Y409778D02*
X515823Y396000D01*
X524030Y289000D02*
X544488Y268541D01*
X644000Y251029D02*
Y410000D01*
Y251029D02*
X680488Y214541D01*
X564000Y428000D02*
X582835Y409165D01*
Y214046D02*
Y409165D01*
X587000Y196000D02*
X590000Y199000D01*
X587000Y181000D02*
Y196000D01*
X474000Y213000D02*
X474500Y213500D01*
Y406500D01*
X475000Y407000D01*
X511000Y461000D02*
X512000Y460000D01*
X716000D01*
X722797Y453203D01*
Y433376D02*
Y453203D01*
X629000Y594000D02*
X640600Y605600D01*
X643136D01*
X678136Y640600D01*
X733816D01*
X734716Y639700D01*
X806300D02*
X807000Y639000D01*
X734716Y639700D02*
X806300D01*
X659321Y1066412D02*
X693366Y1032366D01*
X628000Y556000D02*
X629299D01*
X647299Y574000D02*
X734000D01*
X756000Y596000D01*
X629299Y556000D02*
X647299Y574000D01*
X629000Y618000D02*
X638000D01*
X677000Y657000D02*
X792000D01*
X638000Y618000D02*
X677000Y657000D01*
X740000Y597000D02*
X746000Y603000D01*
X629000Y568000D02*
X658000Y597000D01*
X740000D01*
X629000Y582000D02*
Y582696D01*
X680704Y634400D01*
X731248D01*
X737648Y628000D01*
X802000D01*
X629000Y606000D02*
X629845D01*
X635645Y611800D02*
X640568D01*
X629845Y606000D02*
X635645Y611800D01*
X640568D02*
X675568Y646800D01*
X736384D01*
X798041Y649000D02*
X810000D01*
X736384Y646800D02*
X737284Y645900D01*
X794941D02*
X798041Y649000D01*
X737284Y645900D02*
X794941D01*
X1099000Y988000D02*
X1139100Y1028100D01*
Y1058100D01*
X1189000Y1108000D01*
X1048000Y988000D02*
X1088300Y1028300D01*
Y1058300D01*
X1138000Y1108000D01*
X1000000Y988000D02*
X1037500Y1025500D01*
Y1057500D01*
X1088000Y1108000D01*
X810800Y1084800D02*
X835000Y1109000D01*
X738275Y1084800D02*
X810800D01*
X736400Y1082925D02*
X738275Y1084800D01*
X736400Y1048564D02*
Y1082925D01*
Y1048564D02*
X790964Y994000D01*
X791000D01*
X997000Y1064000D02*
X1041000Y1108000D01*
X757000Y1064000D02*
X997000D01*
X886000Y1088000D02*
Y1108000D01*
X767000Y1091000D02*
X784000Y1108000D01*
X732075Y1091000D02*
X767000D01*
X730200Y1089126D02*
X732075Y1091000D01*
X730200Y1038800D02*
Y1089126D01*
Y1038800D02*
X774000Y995000D01*
X833415Y1079000D02*
X911000D01*
X940000Y1108000D01*
X955200Y1071200D02*
X992000Y1108000D01*
X783000Y1071200D02*
X955200D01*
X724000Y1028000D02*
X757000Y995000D01*
X724000Y1028000D02*
Y1096000D01*
X736000Y1108000D01*
D78*
X709797Y203000D02*
X720000D01*
X731000Y192000D01*
X789000Y677000D02*
X792000Y680000D01*
X709000Y681000D02*
X713000Y677000D01*
X789000D01*
X610000Y704000D02*
X633000Y681000D01*
X591000Y704000D02*
X610000D01*
X633000Y681000D02*
X709000D01*
X706680Y675400D02*
X713080Y669000D01*
X804000D01*
X630680Y675400D02*
X706680D01*
X592000Y685000D02*
X621080D01*
X630680Y675400D01*
X846000Y683034D02*
Y716000D01*
X732068Y687308D02*
X795692D01*
X815000Y668000D02*
X830966D01*
X795692Y687308D02*
X815000Y668000D01*
X830966D02*
X846000Y683034D01*
X722000Y537000D02*
X796400Y611400D01*
X802936D01*
X824600Y633064D01*
Y655277D01*
X700000Y537000D02*
X722000D01*
X800617Y617000D02*
X819000Y635383D01*
X794000Y617000D02*
X800617D01*
X819000Y635383D02*
Y660877D01*
X728000Y551000D02*
X794000Y617000D01*
X700000Y551000D02*
X728000D01*
X824600Y655277D02*
X826123Y656800D01*
X835605D01*
X848903Y670097D01*
X866903D01*
X872000Y665000D01*
Y690000D02*
X894000D01*
X498000Y296000D02*
X498015D01*
X534000Y260015D01*
Y260000D02*
Y260015D01*
X726000Y698000D02*
X757154D01*
X759154Y696000D02*
X783213D01*
X757154Y698000D02*
X759154Y696000D01*
X783213D02*
X783317Y695896D01*
X795488D01*
X838000Y682953D02*
Y709103D01*
X835591Y711512D02*
Y712974D01*
Y711512D02*
X838000Y709103D01*
X795488Y695896D02*
X817383Y674000D01*
X829046D02*
X838000Y682953D01*
X817383Y674000D02*
X829046D01*
X819000Y660877D02*
X820523Y662400D01*
X833286D01*
X846886Y676000D01*
X895000D01*
D80*
X924800Y873000D02*
D03*
X899400D02*
D03*
X950200D02*
D03*
X975600D02*
D03*
X874000D02*
D03*
X1026400D02*
D03*
X1001000D02*
D03*
X975360Y909000D02*
D03*
X949960D02*
D03*
X873760D02*
D03*
X899160D02*
D03*
X924560D02*
D03*
D81*
X848600Y873000D02*
D03*
X848360Y909000D02*
D03*
D82*
X1108000Y108000D02*
D03*
X1158800D02*
D03*
X1057200D02*
D03*
X955600D02*
D03*
X1006400D02*
D03*
X658800Y1320000D02*
D03*
X608000D02*
D03*
X811200D02*
D03*
X760400D02*
D03*
X709600D02*
D03*
X1069200Y1321000D02*
D03*
X1120000D02*
D03*
X1018400D02*
D03*
X967600D02*
D03*
X916800D02*
D03*
X803200Y108000D02*
D03*
X854000D02*
D03*
X615000D02*
D03*
X1311200D02*
D03*
X1260400D02*
D03*
X1362000D02*
D03*
X1412800D02*
D03*
X1463600D02*
D03*
D83*
X904800D02*
D03*
X564200D02*
D03*
X862000Y1320000D02*
D03*
X1170800Y1321000D02*
D03*
X752400Y108000D02*
D03*
X1209600D02*
D03*
D84*
X1351000Y1246000D02*
D03*
X1376000Y1226000D02*
D03*
Y1246000D02*
D03*
D85*
X1157000Y1222000D02*
D03*
Y1145800D02*
D03*
X1106000Y1145900D02*
D03*
Y1222100D02*
D03*
X1004300Y1222100D02*
D03*
X1055100Y1222100D02*
D03*
X953300Y1222100D02*
D03*
X902300D02*
D03*
X1004300Y1145900D02*
D03*
X1055100Y1145900D02*
D03*
X953300Y1145900D02*
D03*
X902300D02*
D03*
X800300Y1222100D02*
D03*
X851300D02*
D03*
X698300D02*
D03*
X749300D02*
D03*
X800300Y1145900D02*
D03*
X851300D02*
D03*
X749300D02*
D03*
X698300D02*
D03*
X444800Y1198420D02*
D03*
Y1141270D02*
D03*
Y1255570D02*
D03*
Y1084120D02*
D03*
Y1026970D02*
D03*
Y912670D02*
D03*
Y969820D02*
D03*
Y798370D02*
D03*
Y855520D02*
D03*
Y741220D02*
D03*
X368600Y1141270D02*
D03*
Y1198420D02*
D03*
Y1255570D02*
D03*
Y969820D02*
D03*
Y912670D02*
D03*
Y1026970D02*
D03*
Y1084120D02*
D03*
Y798370D02*
D03*
Y741220D02*
D03*
Y855520D02*
D03*
X444800Y1166670D02*
D03*
Y1280970D02*
D03*
Y823770D02*
D03*
Y766620D02*
D03*
Y880920D02*
D03*
Y1052370D02*
D03*
Y1109520D02*
D03*
Y938070D02*
D03*
Y1223820D02*
D03*
Y995220D02*
D03*
X825700Y1145900D02*
D03*
X1029700D02*
D03*
X876700D02*
D03*
X774700D02*
D03*
X927700D02*
D03*
X978700D02*
D03*
X723700D02*
D03*
X1182400Y1145800D02*
D03*
X1131400Y1145900D02*
D03*
X1080500Y1145900D02*
D03*
D86*
X556000Y780780D02*
D03*
Y806180D02*
D03*
Y755380D02*
D03*
D87*
X1489000Y378000D02*
D03*
X150000Y1335000D02*
D03*
X1487000Y1330000D02*
D03*
X151000Y97000D02*
D03*
D88*
X876700Y1222100D02*
D03*
X723700D02*
D03*
X774700D02*
D03*
X825700D02*
D03*
X1182400Y1222000D02*
D03*
X1131400Y1222100D02*
D03*
X978700Y1222100D02*
D03*
X1029700D02*
D03*
X1080500Y1222100D02*
D03*
X927700Y1222100D02*
D03*
D89*
X1476450Y919290D02*
D03*
Y868490D02*
D03*
Y970090D02*
D03*
Y614490D02*
D03*
Y665290D02*
D03*
Y716090D02*
D03*
Y766890D02*
D03*
Y563690D02*
D03*
X159000Y960400D02*
D03*
Y1164480D02*
D03*
Y1215280D02*
D03*
Y1113680D02*
D03*
Y1011200D02*
D03*
Y909600D02*
D03*
Y858800D02*
D03*
Y808000D02*
D03*
X158760Y446180D02*
D03*
Y496980D02*
D03*
Y547780D02*
D03*
Y649380D02*
D03*
Y598580D02*
D03*
Y344380D02*
D03*
D90*
X1476450Y817690D02*
D03*
Y512890D02*
D03*
X159000Y1266080D02*
D03*
Y1062000D02*
D03*
X158760Y700180D02*
D03*
Y395180D02*
D03*
D91*
X909016Y1043338D02*
D03*
X782016Y967139D02*
D03*
X858216Y1043338D02*
D03*
X1124300Y967139D02*
D03*
X1073500D02*
D03*
X832816Y967139D02*
D03*
X1022700Y967139D02*
D03*
X883616Y967139D02*
D03*
X909016D02*
D03*
X807416Y1043338D02*
D03*
Y967139D02*
D03*
X858216D02*
D03*
X756616Y1043338D02*
D03*
X782016D02*
D03*
X832816D02*
D03*
X883616D02*
D03*
X1149700Y1043338D02*
D03*
X1124300D02*
D03*
X1098900D02*
D03*
X1073500D02*
D03*
X1048100D02*
D03*
X1022700D02*
D03*
X997300D02*
D03*
X1149700Y967139D02*
D03*
X1098900D02*
D03*
X1048100D02*
D03*
D92*
X368600Y938070D02*
D03*
Y1052370D02*
D03*
Y766620D02*
D03*
Y1109520D02*
D03*
Y823770D02*
D03*
Y1166670D02*
D03*
Y880920D02*
D03*
Y1223820D02*
D03*
Y1280970D02*
D03*
Y995220D02*
D03*
D93*
X756616Y967139D02*
D03*
X997300Y967139D02*
D03*
D94*
X1351000Y1226000D02*
D03*
D95*
X1423700Y1273100D02*
D03*
X1303300D02*
D03*
D96*
X1500000Y1290000D02*
D03*
Y1260000D02*
D03*
Y1230000D02*
D03*
Y1200000D02*
D03*
Y1170000D02*
D03*
Y1140000D02*
D03*
Y1110000D02*
D03*
Y1080000D02*
D03*
Y1050000D02*
D03*
Y1020000D02*
D03*
Y990000D02*
D03*
Y960000D02*
D03*
Y930000D02*
D03*
Y900000D02*
D03*
Y840000D02*
D03*
Y780000D02*
D03*
Y750000D02*
D03*
Y690000D02*
D03*
Y630000D02*
D03*
Y600000D02*
D03*
Y570000D02*
D03*
Y540000D02*
D03*
Y480000D02*
D03*
Y450000D02*
D03*
Y420000D02*
D03*
Y330000D02*
D03*
Y300000D02*
D03*
Y180000D02*
D03*
Y150000D02*
D03*
Y120000D02*
D03*
Y90000D02*
D03*
Y60000D02*
D03*
X1470000Y1290000D02*
D03*
Y1260000D02*
D03*
Y1230000D02*
D03*
Y1200000D02*
D03*
Y1170000D02*
D03*
Y1140000D02*
D03*
Y1110000D02*
D03*
Y1080000D02*
D03*
Y1050000D02*
D03*
Y1020000D02*
D03*
Y690000D02*
D03*
Y540000D02*
D03*
Y480000D02*
D03*
Y450000D02*
D03*
Y420000D02*
D03*
Y330000D02*
D03*
Y300000D02*
D03*
Y60000D02*
D03*
X1440000Y1350000D02*
D03*
Y1320000D02*
D03*
Y1230000D02*
D03*
Y1200000D02*
D03*
Y1170000D02*
D03*
Y1140000D02*
D03*
Y1110000D02*
D03*
Y1080000D02*
D03*
Y1050000D02*
D03*
Y990000D02*
D03*
Y930000D02*
D03*
Y870000D02*
D03*
Y840000D02*
D03*
Y780000D02*
D03*
Y750000D02*
D03*
Y720000D02*
D03*
Y690000D02*
D03*
Y660000D02*
D03*
Y630000D02*
D03*
Y600000D02*
D03*
Y540000D02*
D03*
Y510000D02*
D03*
Y450000D02*
D03*
Y420000D02*
D03*
Y390000D02*
D03*
Y360000D02*
D03*
Y330000D02*
D03*
Y300000D02*
D03*
Y180000D02*
D03*
Y150000D02*
D03*
Y120000D02*
D03*
Y90000D02*
D03*
Y60000D02*
D03*
X1410000Y1350000D02*
D03*
Y1320000D02*
D03*
Y1080000D02*
D03*
Y1050000D02*
D03*
Y1020000D02*
D03*
Y960000D02*
D03*
Y930000D02*
D03*
Y900000D02*
D03*
Y870000D02*
D03*
Y840000D02*
D03*
Y780000D02*
D03*
Y750000D02*
D03*
Y720000D02*
D03*
Y690000D02*
D03*
Y660000D02*
D03*
Y630000D02*
D03*
Y600000D02*
D03*
Y540000D02*
D03*
Y510000D02*
D03*
Y450000D02*
D03*
Y420000D02*
D03*
Y390000D02*
D03*
Y360000D02*
D03*
Y330000D02*
D03*
Y60000D02*
D03*
X1380000Y1350000D02*
D03*
Y1320000D02*
D03*
Y1290000D02*
D03*
Y1200000D02*
D03*
Y1110000D02*
D03*
Y420000D02*
D03*
Y390000D02*
D03*
Y360000D02*
D03*
Y300000D02*
D03*
Y240000D02*
D03*
Y180000D02*
D03*
Y150000D02*
D03*
Y90000D02*
D03*
Y60000D02*
D03*
X1350000Y1350000D02*
D03*
Y1320000D02*
D03*
Y1290000D02*
D03*
Y1260000D02*
D03*
Y1200000D02*
D03*
Y1110000D02*
D03*
Y420000D02*
D03*
Y390000D02*
D03*
Y360000D02*
D03*
Y330000D02*
D03*
Y150000D02*
D03*
Y60000D02*
D03*
X1320000Y1350000D02*
D03*
Y1320000D02*
D03*
Y1230000D02*
D03*
Y420000D02*
D03*
Y390000D02*
D03*
Y360000D02*
D03*
Y300000D02*
D03*
Y240000D02*
D03*
Y180000D02*
D03*
Y150000D02*
D03*
Y60000D02*
D03*
X1290000Y1350000D02*
D03*
Y1320000D02*
D03*
Y1230000D02*
D03*
Y1200000D02*
D03*
Y1170000D02*
D03*
Y1140000D02*
D03*
Y1110000D02*
D03*
Y1020000D02*
D03*
Y780000D02*
D03*
Y480000D02*
D03*
Y420000D02*
D03*
Y390000D02*
D03*
Y360000D02*
D03*
Y150000D02*
D03*
Y90000D02*
D03*
Y60000D02*
D03*
X1260000Y1350000D02*
D03*
Y1320000D02*
D03*
Y1290000D02*
D03*
Y1260000D02*
D03*
Y1230000D02*
D03*
Y1200000D02*
D03*
Y1170000D02*
D03*
Y1140000D02*
D03*
Y1110000D02*
D03*
Y1050000D02*
D03*
Y930000D02*
D03*
Y540000D02*
D03*
Y510000D02*
D03*
Y480000D02*
D03*
Y450000D02*
D03*
Y420000D02*
D03*
Y390000D02*
D03*
Y360000D02*
D03*
Y300000D02*
D03*
Y150000D02*
D03*
Y60000D02*
D03*
X1230000Y1350000D02*
D03*
Y1320000D02*
D03*
Y1290000D02*
D03*
Y1260000D02*
D03*
Y1230000D02*
D03*
Y1200000D02*
D03*
Y1170000D02*
D03*
Y1140000D02*
D03*
Y1110000D02*
D03*
Y720000D02*
D03*
Y690000D02*
D03*
Y660000D02*
D03*
Y540000D02*
D03*
Y510000D02*
D03*
Y480000D02*
D03*
Y450000D02*
D03*
Y420000D02*
D03*
Y390000D02*
D03*
Y360000D02*
D03*
Y210000D02*
D03*
Y180000D02*
D03*
Y60000D02*
D03*
X1200000Y1350000D02*
D03*
Y1290000D02*
D03*
Y1260000D02*
D03*
Y1230000D02*
D03*
Y1200000D02*
D03*
Y1170000D02*
D03*
Y1140000D02*
D03*
Y1080000D02*
D03*
Y1050000D02*
D03*
Y1020000D02*
D03*
Y930000D02*
D03*
Y840000D02*
D03*
Y810000D02*
D03*
Y780000D02*
D03*
Y690000D02*
D03*
Y660000D02*
D03*
Y540000D02*
D03*
Y510000D02*
D03*
Y480000D02*
D03*
Y450000D02*
D03*
Y420000D02*
D03*
Y390000D02*
D03*
Y360000D02*
D03*
Y300000D02*
D03*
Y150000D02*
D03*
Y60000D02*
D03*
X1170000Y1200000D02*
D03*
Y1170000D02*
D03*
Y1050000D02*
D03*
Y1020000D02*
D03*
Y990000D02*
D03*
Y900000D02*
D03*
Y870000D02*
D03*
Y840000D02*
D03*
Y810000D02*
D03*
Y780000D02*
D03*
Y750000D02*
D03*
Y660000D02*
D03*
Y630000D02*
D03*
Y540000D02*
D03*
Y510000D02*
D03*
Y480000D02*
D03*
Y450000D02*
D03*
Y420000D02*
D03*
Y390000D02*
D03*
Y360000D02*
D03*
Y180000D02*
D03*
Y60000D02*
D03*
X1140000Y1290000D02*
D03*
Y1260000D02*
D03*
Y1200000D02*
D03*
Y1170000D02*
D03*
Y1080000D02*
D03*
Y990000D02*
D03*
Y870000D02*
D03*
Y840000D02*
D03*
Y810000D02*
D03*
Y780000D02*
D03*
Y750000D02*
D03*
Y720000D02*
D03*
Y660000D02*
D03*
Y630000D02*
D03*
Y540000D02*
D03*
Y510000D02*
D03*
Y480000D02*
D03*
Y450000D02*
D03*
Y390000D02*
D03*
Y360000D02*
D03*
Y300000D02*
D03*
Y150000D02*
D03*
Y90000D02*
D03*
Y60000D02*
D03*
X1110000Y1200000D02*
D03*
Y1170000D02*
D03*
Y1020000D02*
D03*
Y930000D02*
D03*
Y630000D02*
D03*
Y540000D02*
D03*
Y510000D02*
D03*
Y390000D02*
D03*
Y360000D02*
D03*
Y180000D02*
D03*
Y60000D02*
D03*
X1080000Y1200000D02*
D03*
Y1170000D02*
D03*
Y1080000D02*
D03*
Y990000D02*
D03*
Y930000D02*
D03*
Y900000D02*
D03*
Y630000D02*
D03*
Y540000D02*
D03*
Y510000D02*
D03*
Y450000D02*
D03*
Y420000D02*
D03*
Y390000D02*
D03*
Y360000D02*
D03*
Y300000D02*
D03*
Y120000D02*
D03*
Y90000D02*
D03*
Y60000D02*
D03*
X1050000Y1200000D02*
D03*
Y1170000D02*
D03*
Y1020000D02*
D03*
Y840000D02*
D03*
Y810000D02*
D03*
Y780000D02*
D03*
Y750000D02*
D03*
Y630000D02*
D03*
Y510000D02*
D03*
Y390000D02*
D03*
Y360000D02*
D03*
Y300000D02*
D03*
Y150000D02*
D03*
Y60000D02*
D03*
X1020000Y1200000D02*
D03*
Y1170000D02*
D03*
Y990000D02*
D03*
Y810000D02*
D03*
Y780000D02*
D03*
Y750000D02*
D03*
Y720000D02*
D03*
Y510000D02*
D03*
Y390000D02*
D03*
Y360000D02*
D03*
Y60000D02*
D03*
X990000Y1290000D02*
D03*
Y1260000D02*
D03*
Y1200000D02*
D03*
Y1170000D02*
D03*
Y1080000D02*
D03*
Y1020000D02*
D03*
Y930000D02*
D03*
Y900000D02*
D03*
Y810000D02*
D03*
Y780000D02*
D03*
Y510000D02*
D03*
Y450000D02*
D03*
Y390000D02*
D03*
Y360000D02*
D03*
Y150000D02*
D03*
Y90000D02*
D03*
Y60000D02*
D03*
X960000Y1200000D02*
D03*
Y1170000D02*
D03*
Y1050000D02*
D03*
Y1020000D02*
D03*
Y990000D02*
D03*
Y960000D02*
D03*
Y930000D02*
D03*
Y510000D02*
D03*
Y390000D02*
D03*
Y360000D02*
D03*
Y60000D02*
D03*
X930000Y1200000D02*
D03*
Y1170000D02*
D03*
Y1050000D02*
D03*
Y1020000D02*
D03*
Y990000D02*
D03*
Y960000D02*
D03*
Y930000D02*
D03*
Y510000D02*
D03*
Y450000D02*
D03*
Y420000D02*
D03*
Y390000D02*
D03*
Y360000D02*
D03*
Y180000D02*
D03*
Y90000D02*
D03*
Y60000D02*
D03*
X900000Y1200000D02*
D03*
Y1170000D02*
D03*
Y450000D02*
D03*
Y420000D02*
D03*
Y390000D02*
D03*
Y360000D02*
D03*
Y60000D02*
D03*
X870000Y1200000D02*
D03*
Y1170000D02*
D03*
Y1020000D02*
D03*
Y240000D02*
D03*
Y90000D02*
D03*
Y60000D02*
D03*
X840000Y1290000D02*
D03*
Y1260000D02*
D03*
Y1200000D02*
D03*
Y1170000D02*
D03*
Y1140000D02*
D03*
Y1020000D02*
D03*
Y150000D02*
D03*
Y60000D02*
D03*
X810000Y1200000D02*
D03*
Y1170000D02*
D03*
Y450000D02*
D03*
Y420000D02*
D03*
Y390000D02*
D03*
Y360000D02*
D03*
Y330000D02*
D03*
Y300000D02*
D03*
Y240000D02*
D03*
Y60000D02*
D03*
X780000Y1290000D02*
D03*
Y1200000D02*
D03*
Y1170000D02*
D03*
Y420000D02*
D03*
Y390000D02*
D03*
Y360000D02*
D03*
Y330000D02*
D03*
Y300000D02*
D03*
Y90000D02*
D03*
Y60000D02*
D03*
X750000Y1200000D02*
D03*
Y1170000D02*
D03*
Y900000D02*
D03*
Y870000D02*
D03*
Y510000D02*
D03*
Y480000D02*
D03*
Y450000D02*
D03*
Y420000D02*
D03*
Y390000D02*
D03*
Y360000D02*
D03*
Y330000D02*
D03*
Y300000D02*
D03*
Y270000D02*
D03*
Y60000D02*
D03*
X720000Y1200000D02*
D03*
Y1170000D02*
D03*
Y960000D02*
D03*
Y900000D02*
D03*
Y870000D02*
D03*
Y480000D02*
D03*
Y150000D02*
D03*
Y120000D02*
D03*
Y90000D02*
D03*
Y60000D02*
D03*
X690000Y1290000D02*
D03*
Y1260000D02*
D03*
Y1200000D02*
D03*
Y1170000D02*
D03*
Y990000D02*
D03*
Y960000D02*
D03*
Y900000D02*
D03*
Y510000D02*
D03*
Y420000D02*
D03*
Y390000D02*
D03*
Y360000D02*
D03*
Y330000D02*
D03*
Y300000D02*
D03*
Y270000D02*
D03*
Y150000D02*
D03*
Y90000D02*
D03*
Y60000D02*
D03*
X660000Y1290000D02*
D03*
Y1260000D02*
D03*
Y1230000D02*
D03*
Y1200000D02*
D03*
Y1170000D02*
D03*
Y1140000D02*
D03*
Y1110000D02*
D03*
Y990000D02*
D03*
Y960000D02*
D03*
Y810000D02*
D03*
Y780000D02*
D03*
Y510000D02*
D03*
Y420000D02*
D03*
Y390000D02*
D03*
Y360000D02*
D03*
Y120000D02*
D03*
Y90000D02*
D03*
Y60000D02*
D03*
X630000Y1260000D02*
D03*
Y1230000D02*
D03*
Y1170000D02*
D03*
Y990000D02*
D03*
Y960000D02*
D03*
Y840000D02*
D03*
Y240000D02*
D03*
Y210000D02*
D03*
Y60000D02*
D03*
X600000Y990000D02*
D03*
Y840000D02*
D03*
Y630000D02*
D03*
Y510000D02*
D03*
Y270000D02*
D03*
X570000Y1320000D02*
D03*
Y1290000D02*
D03*
Y1260000D02*
D03*
Y1230000D02*
D03*
Y1200000D02*
D03*
Y900000D02*
D03*
Y870000D02*
D03*
Y630000D02*
D03*
Y480000D02*
D03*
Y390000D02*
D03*
Y300000D02*
D03*
X540000Y1320000D02*
D03*
Y1290000D02*
D03*
Y1260000D02*
D03*
Y1230000D02*
D03*
Y1200000D02*
D03*
Y1170000D02*
D03*
Y1110000D02*
D03*
Y1080000D02*
D03*
Y1050000D02*
D03*
Y930000D02*
D03*
Y900000D02*
D03*
Y870000D02*
D03*
Y840000D02*
D03*
Y690000D02*
D03*
Y660000D02*
D03*
Y630000D02*
D03*
Y240000D02*
D03*
Y150000D02*
D03*
Y120000D02*
D03*
X510000Y1320000D02*
D03*
Y1290000D02*
D03*
Y960000D02*
D03*
Y930000D02*
D03*
Y900000D02*
D03*
Y870000D02*
D03*
Y840000D02*
D03*
Y810000D02*
D03*
Y750000D02*
D03*
Y720000D02*
D03*
Y690000D02*
D03*
Y630000D02*
D03*
Y480000D02*
D03*
Y360000D02*
D03*
Y150000D02*
D03*
Y120000D02*
D03*
X480000Y1320000D02*
D03*
Y1290000D02*
D03*
Y840000D02*
D03*
Y720000D02*
D03*
Y690000D02*
D03*
Y630000D02*
D03*
Y510000D02*
D03*
Y450000D02*
D03*
Y120000D02*
D03*
X450000Y1320000D02*
D03*
Y840000D02*
D03*
Y720000D02*
D03*
Y690000D02*
D03*
Y660000D02*
D03*
Y630000D02*
D03*
Y570000D02*
D03*
Y480000D02*
D03*
Y450000D02*
D03*
Y420000D02*
D03*
Y390000D02*
D03*
Y300000D02*
D03*
Y270000D02*
D03*
Y240000D02*
D03*
Y150000D02*
D03*
Y120000D02*
D03*
Y90000D02*
D03*
Y60000D02*
D03*
X420000Y1350000D02*
D03*
Y1290000D02*
D03*
Y1260000D02*
D03*
Y1200000D02*
D03*
Y1170000D02*
D03*
Y1140000D02*
D03*
Y1110000D02*
D03*
Y1080000D02*
D03*
Y1050000D02*
D03*
Y1020000D02*
D03*
Y990000D02*
D03*
Y960000D02*
D03*
Y930000D02*
D03*
Y870000D02*
D03*
Y840000D02*
D03*
Y810000D02*
D03*
Y750000D02*
D03*
Y720000D02*
D03*
Y690000D02*
D03*
Y660000D02*
D03*
Y630000D02*
D03*
Y570000D02*
D03*
Y540000D02*
D03*
Y510000D02*
D03*
Y300000D02*
D03*
Y270000D02*
D03*
Y240000D02*
D03*
Y150000D02*
D03*
Y120000D02*
D03*
Y90000D02*
D03*
Y60000D02*
D03*
X390000Y1350000D02*
D03*
Y1320000D02*
D03*
Y1290000D02*
D03*
Y1230000D02*
D03*
Y1170000D02*
D03*
Y1140000D02*
D03*
Y1110000D02*
D03*
Y1080000D02*
D03*
Y1050000D02*
D03*
Y1020000D02*
D03*
Y960000D02*
D03*
Y900000D02*
D03*
Y840000D02*
D03*
Y780000D02*
D03*
Y720000D02*
D03*
Y690000D02*
D03*
Y660000D02*
D03*
Y630000D02*
D03*
Y570000D02*
D03*
Y540000D02*
D03*
Y510000D02*
D03*
Y450000D02*
D03*
Y390000D02*
D03*
Y360000D02*
D03*
Y330000D02*
D03*
Y300000D02*
D03*
Y270000D02*
D03*
Y240000D02*
D03*
Y150000D02*
D03*
Y120000D02*
D03*
Y90000D02*
D03*
Y60000D02*
D03*
X360000Y1350000D02*
D03*
Y1320000D02*
D03*
Y960000D02*
D03*
Y900000D02*
D03*
Y840000D02*
D03*
Y420000D02*
D03*
Y300000D02*
D03*
Y270000D02*
D03*
Y240000D02*
D03*
Y150000D02*
D03*
Y120000D02*
D03*
Y90000D02*
D03*
Y60000D02*
D03*
X330000Y1350000D02*
D03*
Y1320000D02*
D03*
Y1290000D02*
D03*
Y1020000D02*
D03*
Y960000D02*
D03*
Y720000D02*
D03*
Y630000D02*
D03*
Y570000D02*
D03*
Y480000D02*
D03*
Y420000D02*
D03*
Y300000D02*
D03*
Y270000D02*
D03*
Y240000D02*
D03*
Y210000D02*
D03*
Y180000D02*
D03*
Y150000D02*
D03*
Y120000D02*
D03*
Y90000D02*
D03*
Y60000D02*
D03*
X300000Y1350000D02*
D03*
Y1320000D02*
D03*
Y1290000D02*
D03*
Y1230000D02*
D03*
Y1020000D02*
D03*
Y810000D02*
D03*
Y780000D02*
D03*
Y750000D02*
D03*
Y720000D02*
D03*
Y570000D02*
D03*
Y420000D02*
D03*
Y300000D02*
D03*
Y270000D02*
D03*
Y240000D02*
D03*
Y210000D02*
D03*
Y180000D02*
D03*
Y150000D02*
D03*
Y120000D02*
D03*
Y90000D02*
D03*
Y60000D02*
D03*
X270000Y1350000D02*
D03*
Y1320000D02*
D03*
Y1290000D02*
D03*
Y1260000D02*
D03*
Y1230000D02*
D03*
Y1200000D02*
D03*
Y1080000D02*
D03*
Y1020000D02*
D03*
Y990000D02*
D03*
Y960000D02*
D03*
Y840000D02*
D03*
Y810000D02*
D03*
Y780000D02*
D03*
Y750000D02*
D03*
Y720000D02*
D03*
Y570000D02*
D03*
Y420000D02*
D03*
Y300000D02*
D03*
Y270000D02*
D03*
Y240000D02*
D03*
Y210000D02*
D03*
Y180000D02*
D03*
Y150000D02*
D03*
Y120000D02*
D03*
Y90000D02*
D03*
Y60000D02*
D03*
X240000Y1350000D02*
D03*
Y1320000D02*
D03*
Y1290000D02*
D03*
Y1260000D02*
D03*
Y1230000D02*
D03*
Y870000D02*
D03*
Y840000D02*
D03*
Y810000D02*
D03*
Y780000D02*
D03*
Y750000D02*
D03*
Y570000D02*
D03*
Y420000D02*
D03*
Y300000D02*
D03*
Y270000D02*
D03*
Y240000D02*
D03*
Y210000D02*
D03*
Y180000D02*
D03*
Y150000D02*
D03*
Y120000D02*
D03*
Y90000D02*
D03*
Y60000D02*
D03*
X210000Y1350000D02*
D03*
Y1320000D02*
D03*
Y1290000D02*
D03*
Y1260000D02*
D03*
Y1200000D02*
D03*
Y1020000D02*
D03*
Y930000D02*
D03*
Y840000D02*
D03*
Y810000D02*
D03*
Y780000D02*
D03*
Y750000D02*
D03*
Y570000D02*
D03*
Y420000D02*
D03*
Y300000D02*
D03*
Y270000D02*
D03*
Y240000D02*
D03*
Y210000D02*
D03*
Y180000D02*
D03*
Y150000D02*
D03*
Y120000D02*
D03*
Y90000D02*
D03*
Y60000D02*
D03*
X180000Y1290000D02*
D03*
Y1230000D02*
D03*
Y780000D02*
D03*
Y750000D02*
D03*
Y630000D02*
D03*
Y570000D02*
D03*
Y510000D02*
D03*
Y480000D02*
D03*
Y420000D02*
D03*
Y360000D02*
D03*
Y330000D02*
D03*
Y300000D02*
D03*
Y270000D02*
D03*
Y240000D02*
D03*
Y210000D02*
D03*
Y180000D02*
D03*
Y150000D02*
D03*
Y120000D02*
D03*
Y60000D02*
D03*
X150000Y1290000D02*
D03*
Y1140000D02*
D03*
Y780000D02*
D03*
Y750000D02*
D03*
Y570000D02*
D03*
Y420000D02*
D03*
Y300000D02*
D03*
Y270000D02*
D03*
Y240000D02*
D03*
Y210000D02*
D03*
Y180000D02*
D03*
Y150000D02*
D03*
Y60000D02*
D03*
X120000Y1290000D02*
D03*
Y1260000D02*
D03*
Y1230000D02*
D03*
Y1200000D02*
D03*
Y1170000D02*
D03*
Y1140000D02*
D03*
Y1110000D02*
D03*
Y1080000D02*
D03*
Y1050000D02*
D03*
Y1020000D02*
D03*
Y990000D02*
D03*
Y960000D02*
D03*
Y930000D02*
D03*
Y900000D02*
D03*
Y870000D02*
D03*
Y840000D02*
D03*
Y810000D02*
D03*
Y780000D02*
D03*
Y750000D02*
D03*
Y720000D02*
D03*
Y690000D02*
D03*
Y660000D02*
D03*
Y630000D02*
D03*
Y600000D02*
D03*
Y570000D02*
D03*
Y540000D02*
D03*
Y510000D02*
D03*
Y480000D02*
D03*
Y450000D02*
D03*
Y420000D02*
D03*
Y390000D02*
D03*
Y360000D02*
D03*
Y330000D02*
D03*
Y300000D02*
D03*
Y270000D02*
D03*
Y240000D02*
D03*
Y210000D02*
D03*
Y180000D02*
D03*
Y150000D02*
D03*
Y120000D02*
D03*
Y60000D02*
D03*
X788392Y620833D02*
D03*
X805392Y549833D02*
D03*
X697000Y566000D02*
D03*
X607392Y1267833D02*
D03*
X605000Y1029000D02*
D03*
X643399Y1030089D02*
D03*
X672392Y1127833D02*
D03*
X634000Y1198000D02*
D03*
X536216Y1121789D02*
D03*
X484712Y655153D02*
D03*
X607700Y637566D02*
D03*
X694392Y691833D02*
D03*
X684885Y762855D02*
D03*
X632234Y806656D02*
D03*
X605392Y772833D02*
D03*
X444626Y162267D02*
D03*
X942392Y583833D02*
D03*
X1061087Y620571D02*
D03*
X1006000Y621000D02*
D03*
X944720Y706941D02*
D03*
X815000Y717000D02*
D03*
X798392Y748833D02*
D03*
X1362000Y1177000D02*
D03*
X1297213Y942765D02*
D03*
X1294000Y878000D02*
D03*
X1307512Y665953D02*
D03*
X1295392Y760833D02*
D03*
X1297950Y727964D02*
D03*
X1301000Y606000D02*
D03*
X1297392Y574833D02*
D03*
X1284194Y1148266D02*
D03*
X1291526Y1053515D02*
D03*
X1287442Y992783D02*
D03*
X1292000Y818000D02*
D03*
X907000Y596000D02*
D03*
X1318392Y503833D02*
D03*
X1463392Y239833D02*
D03*
X1400392D02*
D03*
X1336392Y238833D02*
D03*
X1298392Y448833D02*
D03*
X1273767Y237833D02*
D03*
X1210392D02*
D03*
X1508825Y209333D02*
D03*
X1444241Y209818D02*
D03*
X1381734Y209734D02*
D03*
X1316892Y209333D02*
D03*
X1254379Y209602D02*
D03*
X1189404Y208958D02*
D03*
X1142392Y417833D02*
D03*
X1067392D02*
D03*
X1145000Y237000D02*
D03*
X1017392Y237833D02*
D03*
X930034Y522451D02*
D03*
X995392Y416833D02*
D03*
X1082392Y236833D02*
D03*
X1125590Y208752D02*
D03*
X1059817Y209258D02*
D03*
X954392Y235833D02*
D03*
X887392Y236833D02*
D03*
X994231Y208752D02*
D03*
X930392Y208833D02*
D03*
X867392D02*
D03*
X332392Y640833D02*
D03*
X332015Y689954D02*
D03*
X633019Y502142D02*
D03*
X540484Y521200D02*
D03*
X491920Y519938D02*
D03*
X606871Y446591D02*
D03*
X511000Y350000D02*
D03*
X827392Y236833D02*
D03*
X805392Y208833D02*
D03*
X764923Y235591D02*
D03*
X629797Y308086D02*
D03*
X333495Y588131D02*
D03*
X332459Y539883D02*
D03*
X333051Y489859D02*
D03*
X333051Y435987D02*
D03*
X412392Y193833D02*
D03*
X331867Y384483D02*
D03*
X330979Y331647D02*
D03*
X575273Y1082246D02*
D03*
Y1164246D02*
D03*
X563000Y177000D02*
D03*
X501797Y200376D02*
D03*
X709797Y202376D02*
D03*
X731000Y192000D02*
D03*
X857826Y656338D02*
D03*
X829000Y683570D02*
D03*
X795000Y708000D02*
D03*
X574364Y674519D02*
D03*
X741000Y740000D02*
D03*
X786134Y702696D02*
D03*
X1030684Y538552D02*
D03*
X834000Y611000D02*
D03*
X1030000Y582000D02*
D03*
X868000Y646000D02*
D03*
X1031000Y549000D02*
D03*
X840000Y621000D02*
D03*
X742552Y853431D02*
D03*
X701552Y1036431D02*
D03*
X802000Y716000D02*
D03*
X562321Y1064412D02*
D03*
X793068Y679308D02*
D03*
X591000Y704000D02*
D03*
X804000Y669000D02*
D03*
X592000Y685000D02*
D03*
X778000Y571000D02*
D03*
X823000Y611000D02*
D03*
X991000Y590000D02*
D03*
X429273Y782246D02*
D03*
X427273Y896246D02*
D03*
X432157Y1010607D02*
D03*
X432273Y1125246D02*
D03*
X427000Y1240000D02*
D03*
X930000Y539000D02*
D03*
X1120000Y471000D02*
D03*
X833371Y592881D02*
D03*
X847000Y650000D02*
D03*
X857000Y645000D02*
D03*
X831750Y629000D02*
D03*
X777308Y582692D02*
D03*
X879000Y650000D02*
D03*
X887000Y638000D02*
D03*
X896371Y484881D02*
D03*
X818000Y486000D02*
D03*
X1031000Y571000D02*
D03*
X897371Y497881D02*
D03*
X825371Y507881D02*
D03*
X1033000Y716000D02*
D03*
X1328000Y1115000D02*
D03*
X985000Y744000D02*
D03*
X758000Y783000D02*
D03*
X825000Y601089D02*
D03*
X786000Y563000D02*
D03*
X732068Y687308D02*
D03*
X846000Y716000D02*
D03*
X700000Y537000D02*
D03*
X894000Y690000D02*
D03*
X872000Y665000D02*
D03*
X872000Y690000D02*
D03*
X823000Y890000D02*
D03*
X532000Y396000D02*
D03*
X502046Y409778D02*
D03*
X534000Y260000D02*
D03*
X498488Y295541D02*
D03*
X517937Y288358D02*
D03*
X544488Y268541D02*
D03*
X644488Y409541D02*
D03*
X680488Y214541D02*
D03*
X564114Y427064D02*
D03*
X582835Y214046D02*
D03*
X587000Y181000D02*
D03*
X475000Y407000D02*
D03*
X474000Y213000D02*
D03*
X591797Y201376D02*
D03*
X629000Y594000D02*
D03*
X807000Y639000D02*
D03*
X659321Y1066412D02*
D03*
X692552Y1030431D02*
D03*
X729552Y854431D02*
D03*
X907000Y652000D02*
D03*
X950207Y744073D02*
D03*
X1288021Y1034712D02*
D03*
X1209000Y999000D02*
D03*
X1071000Y705000D02*
D03*
X1070321Y679412D02*
D03*
X726000Y698000D02*
D03*
X835591Y712974D02*
D03*
X902000Y662000D02*
D03*
X940000Y732000D02*
D03*
X1209000Y986000D02*
D03*
X1288521Y971212D02*
D03*
X1085000Y706000D02*
D03*
X1086321Y679412D02*
D03*
X1209000Y961000D02*
D03*
X1288441Y844532D02*
D03*
X1112951Y706463D02*
D03*
X1112000Y673000D02*
D03*
X1029000Y593000D02*
D03*
X896000Y596000D02*
D03*
X883773Y703227D02*
D03*
X922000Y746000D02*
D03*
X906000Y712000D02*
D03*
X1209000Y974000D02*
D03*
X1289621Y907712D02*
D03*
X1098000Y706000D02*
D03*
X1099000Y676000D02*
D03*
X818000Y683000D02*
D03*
X810000Y891000D02*
D03*
X700000Y551000D02*
D03*
X895000Y676000D02*
D03*
X1031000Y560000D02*
D03*
X756000Y596000D02*
D03*
X628000Y556000D02*
D03*
X629000Y618000D02*
D03*
X792000Y657000D02*
D03*
X894000Y838000D02*
D03*
X909000Y950000D02*
D03*
X819000Y941000D02*
D03*
X746000Y603000D02*
D03*
X629000Y568000D02*
D03*
X629000Y582000D02*
D03*
X802000Y628000D02*
D03*
X629000Y606000D02*
D03*
X810000Y649000D02*
D03*
X1088000Y1108000D02*
D03*
X1138000D02*
D03*
X1189000D02*
D03*
X1099000Y988000D02*
D03*
X1048000D02*
D03*
X1000000D02*
D03*
X835000Y1109000D02*
D03*
X791000Y994000D02*
D03*
X1041000Y1108000D02*
D03*
X757000Y1064000D02*
D03*
X886000Y1108000D02*
D03*
Y1088000D02*
D03*
X784000Y1108000D02*
D03*
X774000Y995000D02*
D03*
X940000Y1108000D02*
D03*
X833415Y1079000D02*
D03*
X992000Y1108000D02*
D03*
X783000Y1071200D02*
D03*
X757000Y995000D02*
D03*
X736000Y1108000D02*
D03*
D97*
X680000Y1090000D02*
D03*
X780000Y452000D02*
D03*
X697000Y585000D02*
D03*
X512797Y459376D02*
D03*
X722797Y433376D02*
D03*
D98*
X1229000Y750000D02*
D03*
D99*
Y621750D02*
D03*
Y878250D02*
D03*
M02*
